<svg xmlns="http://www.w3.org/2000/svg" width="42.5" height="35.7">
    <style>
        .st1 {
            fill: #231815
        }

        .st3 {
            fill: #040000
        }

        .st6 {
            fill: #f9f29e
        }

    </style>
    <g id="XMLID_1_">
        <g id="XMLID_14_">
            <g id="XMLID_33_">
                <path id="XMLID_37_" fill="#dbdcdc" d="M.3 4.6h41.9v30.8H.3z" />
                <path id="XMLID_34_" class="st1"
                    d="M42.5 35.7H0V4.5h42.5v31.2zM.6 35.2h41.3V4.9H.6v30.3z" />
            </g>
            <g id="XMLID_18_">
                <path id="XMLID_32_" fill="#b7b7b7" d="M4 8.3h34.5l.9-1H3.1z" />
                <g id="interface_48_up_1_">
                    <path id="XMLID_31_" class="st3"
                        d="M39 8.2H3.5v20.1h7.3v4.1h3.4v2.7h14.1v-2.7h3.4v-4.1H39z" />
                    <path id="XMLID_30_" fill="#343e43"
                        d="M4.8 28.3h6v4.1h3.4v2.7h14.2l-.1-2.7h3.4v-4.1h5.9v-20H4.9z" />
                    <path id="XMLID_29_" fill="#5c686e" d="M11.9 30.8h18.6v.4H11.9z" />
                    <path id="XMLID_28_" class="st3"
                        d="M11.9 21.1h18.6v9.7H11.9z" />
                    <path id="XMLID_27_" class="st3"
                        d="M6.5 8.3h29.4v7.8H6.5z" />
                    <path id="XMLID_26_" class="st6"
                        d="M19 8.3h1.2V14H19z" />
                    <path id="XMLID_25_" class="st6"
                        d="M15.7 8.3h1.2V14h-1.2z" />
                    <path id="XMLID_24_" class="st6"
                        d="M12.3 8.3h1.2V14h-1.2z" />
                    <path id="XMLID_23_" class="st6"
                        d="M9 8.3h1.2V14H9z" />
                    <path id="XMLID_22_" class="st6"
                        d="M32.3 8.3h1.2V14h-1.2z" />
                    <path id="XMLID_21_" class="st6"
                        d="M29 8.3h1.2V14H29z" />
                    <path id="XMLID_20_" class="st6"
                        d="M25.6 8.3h1.2V14h-1.2z" />
                    <path id="XMLID_19_" class="st6"
                        d="M22.3 8.3h1.2V14h-1.2z" />
                </g>
            </g>
            <g id="XMLID_15_">
                <path id="XMLID_17_"
                    d="M42.2 4.6V2.3c0-1.1-1-2.1-2.3-2.1H2.7C1.4.2.4 1.2.4 2.3v2.3" fill="#f8d1e3" />
                <path id="XMLID_16_" class="st1"
                    d="M42.5 4.6h-.6V2.3c0-1-.9-1.8-2-1.8H2.7c-1.1 0-2 .8-2 1.8v2.3H.1V2.3C.1 1.1 1.3 0 2.7 0h37.2c1.4 0 2.6 1 2.6 2.3v2.3z" />
            </g>
        </g>
        <g id="XMLID_2_">
            <path id="XMLID_13_" class="st3"
                d="M11.9 2.9l.4.1c-.1.4-.3.6-.5.8s-.5.3-.9.3c-.3 0-.6-.1-.8-.2-.2-.1-.4-.3-.5-.6s-.2-.6-.2-.9c0-.3.1-.6.2-.9.1-.3.3-.4.5-.6.2-.1.5-.2.8-.2s.6.1.8.2c.2.2.4.4.5.7l-.4.1c-.1-.2-.2-.4-.3-.5-.1-.1-.3-.2-.5-.2s-.5.1-.6.2c-.1.1-.3.3-.4.5s-.1.4-.1.6c0 .3 0 .5.1.7s.2.4.4.5c.2.1.4.2.5.2.2 0 .4-.1.6-.2.2-.1.4-.3.4-.6z" />
            <path id="XMLID_10_" class="st3"
                d="M12.5 2.5c0-.5.1-1 .4-1.2.3-.3.7-.5 1.1-.5.3 0 .6.1.8.2.2.1.4.3.5.6s.2.5.2.9c0 .3-.1.6-.2.9-.1.3-.3.5-.6.6-.2.1-.5.2-.8.2s-.6-.1-.8-.2c-.2-.1-.4-.3-.5-.6-.1-.5-.1-.7-.1-.9zm.5.1c0 .4.1.7.3.9.2.2.5.3.8.3s.6-.1.8-.3c.2-.2.3-.5.3-1 0-.3 0-.5-.1-.7s-.2-.3-.4-.5c-.2-.1-.4-.2-.6-.2-.3 0-.6.1-.8.3-.2.3-.3.7-.3 1.2z" />
            <path id="XMLID_9_" class="st3"
                d="M15.9 4V1h.4L18 3.4V1h.4v3H18l-1.7-2.4V4h-.4z" />
            <path id="XMLID_8_" class="st3"
                d="M18.8 3h.4c0 .2.1.3.1.4l.3.3c.1.1.3.1.5.1s.3 0 .4-.1c.1 0 .2-.1.3-.2.1-.1.1-.2.1-.3s0-.2-.1-.3-.2-.1-.3-.2c-.1 0-.3-.1-.6-.2s-.5-.1-.6-.2c-.2-.1-.3-.2-.3-.3-.1-.1-.1-.3-.1-.4 0-.2 0-.3.1-.5.1-.1.2-.2.4-.3.2-.1.4-.1.6-.1s.4 0 .6.1.3.2.4.3.1.3.2.5h-.4c0-.2-.1-.4-.2-.5s-.3-.2-.6-.2-.4 0-.6.1c-.1.1-.2.2-.2.3s0 .2.1.3.3.2.6.2c.3.1.6.1.7.2.2.1.3.2.4.3s.1.3.1.5-.1.3-.1.5c-.1.2-.2.3-.4.4-.2.1-.4.1-.6.1-.3 0-.5 0-.7-.1s-.4-.2-.5-.4c.1.1 0-.1 0-.3z" />
            <path id="XMLID_5_" class="st3"
                d="M21.6 2.5c0-.5.1-1 .4-1.2.3-.3.7-.5 1.1-.5.3 0 .6.1.8.2.2.1.4.3.5.6s.2.5.2.9c0 .3-.1.6-.2.9-.1.3-.3.5-.6.6-.2.1-.5.2-.8.2s-.6-.1-.8-.2c-.2-.1-.4-.3-.5-.6-.1-.5-.1-.7-.1-.9zm.4.1c0 .4.1.7.3.9.2.2.5.3.8.3s.6-.1.8-.3c.2-.2.3-.5.3-1 0-.3 0-.5-.1-.7s-.2-.3-.4-.5c-.2-.1-.4-.2-.6-.2-.3 0-.6.1-.8.3-.2.3-.3.7-.3 1.2z" />
            <path id="XMLID_4_" class="st3"
                d="M25 4V1h.4v2.7H27v.4h-2V4z" />
            <path id="XMLID_3_" class="st3"
                d="M27.3 4V1h2.3v.4h-1.9v1h1.8v.4h-1.8v1h2v.4c0-.2-2.4-.2-2.4-.2z" />
        </g>
    </g>
</svg>
