<svg xmlns="http://www.w3.org/2000/svg" width="44.9" height="37.9"><path fill="#DCDDDD" d="M.5.5h43.9v36.9H.5z"/><path d="M44.9 37.9H0V0h44.9v37.9zM1 36.9h42.9V1H1v35.9z"/><path fill="#FFF" d="M4.5 7.1h8V2.8h3.2V.2h13.6v2.6h3.2v4.3h7.9v21.5H4.5z"/><path fill="#8B8B8C" d="M4.5 7.1l.9 1.4H13l-.5-1.4V2.8l.5 1.5h3l-.3-1.5V.2l.4 1.5H29l.3-1.5v2.6l-.4 1.5 2.9.1.7-1.6v4.3L32 8.5h7.5l.9-1.4v23.8H4.5z"/><path fill="#8B8B8C" d="M5.4 30h34.1l.9.9H4.5z"/><path d="M5.4 8.5H13V4.3h3V1.7h12.9v2.6H32v4.2h7.5V30H5.4z"/><path fill="#3A3C49" d="M7.3 8.5H13V4.3h3V1h12.9v3.3H32v4.2h5.4V30H7.3z"/><path fill="#3C3C49" d="M13.7 5.4h17.6v10.1H13.7z"/><path d="M13.7 5.8h17.6v9.7H13.7zM8.7 24.5h27.4V30H8.7z"/><path fill="#C4C46C" d="M20.5 25.7h1v4h-1z"/><path fill="#EAEAEA" d="M21.5 25.7h.1v4h-.1zM20.5 25.7h.1v4h-.1z"/><path fill="#C4C46C" d="M17.7 25.7h1v4h-1z"/><path fill="#EAEAEA" d="M18.7 25.7h.1v4h-.1zM17.7 25.7h.1v4h-.1z"/><path fill="#C4C46C" d="M14.9 25.7h1v4h-1z"/><path fill="#EAEAEA" d="M15.9 25.7h.1v4h-.1zM14.9 25.7h.1v4h-.1z"/><path fill="#C4C46C" d="M12.1 25.7h1v4h-1z"/><path fill="#EAEAEA" d="M13 25.7h.1v4H13zM12.1 25.7h.1v4h-.1z"/><path fill="#C4C46C" d="M31.8 25.7h1v4h-1z"/><path fill="#EAEAEA" d="M32.8 25.7h.1v4h-.1zM31.8 25.7h.1v4h-.1z"/><path fill="#C4C46C" d="M29 25.7h1v4h-1z"/><path fill="#EAEAEA" d="M30 25.7h.1v4H30zM29 25.7h.1v4H29z"/><path fill="#C4C46C" d="M26.2 25.7h1v4h-1z"/><path fill="#EAEAEA" d="M27.2 25.7h.1v4h-.1zM26.2 25.7h.1v4h-.1z"/><path fill="#C4C46C" d="M23.4 25.7h1v4h-1z"/><path fill="#EAEAEA" d="M24.3 25.7h.1v4h-.1zM23.4 25.7h.1v4h-.1z"/><path d="M12.1 0h22.3v1H12.1zM5.4 8.5H13V4.3h3V1.7h12.9v2.6H32v4.2h7.5V30H5.4z"/></svg>