<svg xmlns="http://www.w3.org/2000/svg" width="44.9" height="37.6">
    <style>
        .st0 {
            fill: #fff
        }

        .st5 {
            fill: #c4c46c
        }

        .st6 {
            fill: #eaeaea
        }

    </style>
    <g id="XMLID_2_">
        <g id="XMLID_40_">
            <path id="XMLID_44_" class="st0" d="M.4.5h43.9v36.8H.4z" />
        </g>
        <g id="XMLID_6_">
            <path id="XMLID_39_" class="st0" d="M40.3 28.5H4.5V2.8h11.1V.1h13.6v2.7h11.2L40.3 7z" />
            <path id="XMLID_38_" fill="#c6c6c6"
                d="M40.3 30.9H4.5V2.8l.9 1.4H16l-.4-1.5V.1l.3 1.5h12.9l.4-1.5v2.7l-.3 1.4h10.6l.8-1.4V7z" />
            <path id="XMLID_37_" fill="#939292" d="M40.3 30.9H4.5l.9-1h34.1z" />
            <path id="XMLID_36_" d="M39.5 30H5.4V4.2H16V1.6h12.9v2.6h10.6z" />
            <path id="XMLID_35_" fill="#393944" d="M37.5 30h-30V4.2h8.4V1h13v3.2h8.6z" />
            <path id="XMLID_34_" fill="#45454c" d="M13.6 5.4h17.6v10.1H13.6z" />
            <path id="XMLID_33_" d="M13.6 5.8h17.6v9.7H13.6z" />
            <path id="XMLID_32_" d="M8.8 24.4h27.4v5.5H8.8z" />
            <g id="XMLID_7_">
                <path id="XMLID_31_" class="st5" d="M20.5 25.6h1v4h-1z" />
                <path id="XMLID_30_" class="st6" d="M21.5 25.6h.1v4h-.1z" />
                <path id="XMLID_29_" class="st6" d="M20.5 25.6h.1v4h-.1z" />
                <path id="XMLID_28_" class="st5" d="M17.7 25.6h1v4h-1z" />
                <path id="XMLID_27_" class="st6" d="M18.6 25.6h.1v4h-.1z" />
                <path id="XMLID_26_" class="st6" d="M17.7 25.6h.1v4h-.1z" />
                <path id="XMLID_25_" class="st5" d="M14.9 25.6h1v4h-1z" />
                <path id="XMLID_24_" class="st6" d="M15.8 25.6h.1v4h-.1z" />
                <path id="XMLID_23_" class="st6" d="M14.9 25.6h.1v4h-.1z" />
                <path id="XMLID_22_" class="st5" d="M12 25.6h1v4h-1z" />
                <path id="XMLID_21_" class="st6" d="M13 25.6h.1v4H13z" />
                <path id="XMLID_20_" class="st6" d="M12 25.6h.1v4H12z" />
                <path id="XMLID_19_" class="st5" d="M31.8 25.6h1v4h-1z" />
                <path id="XMLID_18_" class="st6" d="M32.8 25.6h.1v4h-.1z" />
                <path id="XMLID_17_" class="st6" d="M31.8 25.6h.1v4h-.1z" />
                <path id="XMLID_16_" class="st5" d="M29 25.6h1v4h-1z" />
                <path id="XMLID_15_" class="st6" d="M30 25.6h.1v4H30z" />
                <path id="XMLID_14_" class="st6" d="M29 25.6h.1v4H29z" />
                <path id="XMLID_13_" class="st5" d="M26.2 25.6h1v4h-1z" />
                <path id="XMLID_12_" class="st6" d="M27.1 25.6h.1v4h-.1z" />
                <path id="XMLID_11_" class="st6" d="M26.2 25.6h.1v4h-.1z" />
                <path id="XMLID_10_" class="st5" d="M23.3 25.6h1v4h-1z" />
                <path id="XMLID_9_" class="st6" d="M24.3 25.6h.1v4h-.1z" />
                <path id="XMLID_8_" class="st6" d="M23.3 25.6h.1v4h-.1z" />
            </g>
        </g>
        <path id="XMLID_5_" d="M12.1 0h22.3v1H12.1z" />
        <path id="XMLID_4_" fill="#9ecc6b" d="M30.9 4.5h8.3v4.2h-8.3z" />
        <path id="XMLID_3_" fill="#ffed87" d="M5.6 4.5h8.3v4.2H5.6z" />
    </g>
</svg>
