<svg xmlns="http://www.w3.org/2000/svg" width="90.2" height="41.3"><path fill="#040000" d="M0 41.3V0h90.2v41.3H0zM87.7.8L2.4.9v39.4h85.3V.8z"/><path fill="#FFF" d="M47.3 7.5h35.8v21h-8v4.1h-3.2v2.6H58.4v-2.6h-3.3v-4.1h-7.8z"/><path fill="#C6C6C6" d="M47.3 5.2h35.8v23.3l-1-1.5h-7.5l.5 1.5v4.1l-.5-1.5-3 .2.3 1.3v2.6l-.3-1.4H58.9l-.5 1.4v-2.6l.2-1.3h-3l-.5 1.3v-4.1l.5-1.5h-7.5l-.8 1.5z"/><path fill="#939292" d="M47.3 5.2h35.8l-1 .9h-34z"/><path fill="#040000" d="M48.1 6.1h34V27h-7.5v4.3h-3v2.5h-13v-2.5h-3V27h-7.5z"/><path fill="#565651" d="M50.1 6.1h30V27h-5.5v4.3h-3v3.1h-13v-3.1h-3V27h-5.5z"/><path fill="#4B4B51" d="M56.4 20.2H74v9.7H56.4z"/><path fill="#040000" d="M56.4 20.2H74v9.4H56.4zM51.3 6.1h27.4v5.4H51.3z"/><path fill="#F9F4A9" d="M63.1 6.4h1v3.9h-1zM60.6 6.4h1v3.9h-1zM57.6 6.4h1v3.9h-1zM54.8 6.4h1v3.9h-1zM74.6 6.4h1v3.9h-1zM71.6 6.4h1v3.9h-1zM68.8 6.4h1v3.9h-1zM66.1 6.4h1v3.9h-1z"/><g><path fill="#FFF" d="M4.3 7.5h35.8v21h-8v4.1h-3.2v2.6H15.4v-2.6h-3.3v-4.1H4.3z"/><path fill="#C6C6C6" d="M4.3 5.2h35.8v23.3l-1-1.5h-7.5l.5 1.5v4.1l-.5-1.5-3 .2.3 1.3v2.6l-.3-1.4H15.9l-.5 1.4v-2.6l.2-1.3h-3l-.5 1.3v-4.1l.5-1.5H5.1l-.8 1.5z"/><path fill="#939292" d="M4.3 5.2h35.8l-1 .9h-34z"/><path fill="#040000" d="M5.1 6.1h34V27h-7.5v4.3h-3v2.5h-13v-2.5h-3V27H5.1z"/><path fill="#565651" d="M7.1 6.1h30V27h-5.5v4.3h-3v3.1h-13v-3.1h-3V27H7.1z"/><path fill="#4B4B51" d="M13.4 20.2H31v9.7H13.4z"/><path fill="#040000" d="M13.4 20.2H31v9.4H13.4zM8.3 6.1h27.4v5.4H8.3z"/><path fill="#F9F4A9" d="M20.1 6.4h1v3.9h-1zM17.6 6.4h1v3.9h-1zM14.6 6.4h1v3.9h-1zM11.8 6.4h1v3.9h-1zM31.6 6.4h1v3.9h-1zM28.6 6.4h1v3.9h-1zM25.8 6.4h1v3.9h-1zM23.1 6.4h1v3.9h-1z"/></g><g fill="#040000"><path d="M39.8 6.1H4.4v21.1h7.2v4.2H15v3h14v-3h3.4v-4.2h7.4zM82.8 6.1H47.4v21.1h7.2v4.2H58v3h14v-3h3.4v-4.2h7.4z"/></g></svg>