<svg xmlns="http://www.w3.org/2000/svg" width="275.6" height="39.6"><path fill="#FFF" d="M0 1.3h274.4v37.1H0z"/><path fill="#FFF" d="M46.6 8.3H10.8v21.1h8v4.1H22V36h13.6v-2.5h3.2v-4.1h7.8z"/><path fill="#C6C6C6" d="M46.6 6.1H10.8v23.3l1-1.5h7.5l-.5 1.5v4.1l.5-1.5 3 .2-.3 1.3V36l.3-1.3h12.8l.5 1.3v-2.5l-.3-1.3h3l.5 1.3v-4.1l-.5-1.5h7.5l.8 1.5z"/><path fill="#939292" d="M46.6 6.1H10.8l1 .8h34z"/><path fill="#040000" d="M45.8 6.9h-34v21h7.5v4.3h3v2.5h13v-2.5h3v-4.3h7.5z"/><path fill="#565651" d="M43.8 6.9h-30v21h5.5v4.3h3v3.1h13v-3.1h3v-4.3h5.5z"/><path fill="#343E43" d="M19.9 21.1h17.6v9.7H19.9z"/><path fill="#040000" d="M19.9 21.1h17.6v9.4H19.9zM15.2 6.9h27.4v5.4H15.2z"/><path fill="#F9F4A9" d="M29.8 7.3h1v3.9h-1zM32.3 7.3h1v3.9h-1zM35.3 7.3h1v3.9h-1zM38.1 7.3h1v3.9h-1zM18.3 7.3h1v3.9h-1zM21.3 7.3h1v3.9h-1zM24.1 7.3h1v3.9h-1zM26.8 7.3h1v3.9h-1z"/><g><path fill="#FFF" d="M91.1 8.3H55.3v21.1h8v4.1h3.2V36H80v-2.5h3.3v-4.1h7.8z"/><path fill="#C6C6C6" d="M91.1 6.1H55.3v23.3l1-1.5h7.5l-.5 1.5v4.1l.5-1.5 3 .2-.3 1.3V36l.3-1.3h12.7L80 36v-2.5l-.2-1.3h3l.5 1.3v-4.1l-.5-1.5h7.5l.8 1.5z"/><path fill="#939292" d="M91.1 6.1H55.3l1 .8h34z"/><path fill="#040000" d="M90.3 6.9h-34v21h7.5v4.3h3v2.5h13v-2.5h3v-4.3h7.5z"/><path fill="#565651" d="M88.3 6.9h-30v21h5.5v4.3h3v3.1h13v-3.1h3v-4.3h5.5z"/><path fill="#343E43" d="M64.4 21.1H82v9.7H64.4z"/><path fill="#040000" d="M64.4 21.1H82v9.4H64.4zM59.7 6.9h27.4v5.4H59.7z"/><path fill="#F9F4A9" d="M74.3 7.3h1v3.9h-1zM76.8 7.3h1v3.9h-1zM79.8 7.3h1v3.9h-1zM82.6 7.3h1v3.9h-1zM62.8 7.3h1v3.9h-1zM65.8 7.3h1v3.9h-1zM68.6 7.3h1v3.9h-1zM71.3 7.3h1v3.9h-1z"/></g><g><path fill="#FFF" d="M135.7 8.3H99.8v21.1h8v4.1h3.2V36h13.5v-2.5h3.3v-4.1h7.9z"/><path fill="#C6C6C6" d="M135.7 6.1H99.8v23.3l1-1.5h7.5l-.5 1.5v4.1l.5-1.5 3 .2-.3 1.3V36l.3-1.3H124l.5 1.3v-2.5l-.2-1.3h3l.5 1.3v-4.1l-.5-1.5h7.6l.8 1.5z"/><path fill="#939292" d="M135.7 6.1H99.8l1 .8h34.1z"/><path fill="#040000" d="M134.9 6.9h-34.1v21h7.5v4.3h3v2.5h13v-2.5h3v-4.3h7.6z"/><path fill="#565651" d="M132.9 6.9h-30.1v21h5.5v4.3h3v3.1h13v-3.1h3v-4.3h5.6z"/><path fill="#343E43" d="M108.9 21.1h17.6v9.7h-17.6z"/><path fill="#040000" d="M108.9 21.1h17.6v9.4h-17.6zM104.2 6.9h27.4v5.4h-27.4z"/><path fill="#F9F4A9" d="M118.8 7.3h1v3.9h-1zM121.3 7.3h1v3.9h-1zM124.3 7.3h1v3.9h-1zM127.1 7.3h1v3.9h-1zM107.3 7.3h1v3.9h-1zM110.3 7.3h1v3.9h-1zM113.1 7.3h1v3.9h-1zM115.8 7.3h1v3.9h-1z"/></g><g><path fill="#FFF" d="M180.1 8.3h-35.8v21.1h8v4.1h3.1V36h13.5v-2.5h3.4v-4.1h7.8z"/><path fill="#C6C6C6" d="M180.1 6.1h-35.8v23.3l1-1.5h7.5l-.5 1.5v4.1l.5-1.5 3 .2-.4 1.3V36l.4-1.3h12.6l.5 1.3v-2.5l-.1-1.3h3l.5 1.3v-4.1l-.5-1.5h7.5l.8 1.5z"/><path fill="#939292" d="M180.1 6.1h-35.8l1 .8h34z"/><path fill="#040000" d="M179.3 6.9h-34v21h7.5v4.3h3v2.5h13v-2.5h3v-4.3h7.5z"/><path fill="#565651" d="M177.3 6.9h-30v21h5.5v4.3h3v3.1h13v-3.1h3v-4.3h5.5z"/><path fill="#343E43" d="M153.4 21.1H171v9.7h-17.6z"/><path fill="#040000" d="M153.4 21.1H171v9.4h-17.6zM148.7 6.9h27.4v5.4h-27.4z"/><path fill="#F9F4A9" d="M163.3 7.3h1v3.9h-1zM165.8 7.3h1v3.9h-1zM168.8 7.3h1v3.9h-1zM171.6 7.3h1v3.9h-1zM151.8 7.3h1v3.9h-1zM154.8 7.3h1v3.9h-1zM157.6 7.3h1v3.9h-1zM160.3 7.3h1v3.9h-1z"/></g><path fill="none" stroke="#000" stroke-width="2.5" stroke-miterlimit="10" d="M1.3 1.3h273v37.1H1.3z"/><g><path fill="#FFF" d="M224.1 8.1h-35.8v21h8v4.1h3.2v2.6H213v-2.6h3.3v-4.1h7.8z"/><path fill="#C6C6C6" d="M224.1 5.8h-35.8v23.3l1-1.5h7.5l-.5 1.5v4.1l.5-1.5 3 .2-.3 1.3v2.6l.3-1.4h12.7l.5 1.4v-2.6l-.2-1.3h3l.5 1.3v-4.1l-.5-1.5h7.5l.8 1.5z"/><path fill="#939292" d="M224.1 5.8h-35.8l1 .9h34z"/><path fill="#040000" d="M223.3 6.7h-34v20.9h7.5v4.3h3v2.5h13v-2.5h3v-4.3h7.5z"/><path fill="#565651" d="M221.3 6.7h-30v20.9h5.5v4.3h3V35h13v-3.1h3v-4.3h5.5z"/><path fill="#343E43" d="M197.4 20.8H215v9.7h-17.6z"/><path fill="#040000" d="M197.4 20.8H215v9.4h-17.6zM192.7 6.7h27.4v5.4h-27.4z"/><path fill="#F9F4A9" d="M207.3 7h1v3.9h-1zM209.8 7h1v3.9h-1zM212.8 7h1v3.9h-1zM215.6 7h1v3.9h-1zM195.8 7h1v3.9h-1zM198.8 7h1v3.9h-1zM201.6 7h1v3.9h-1zM204.3 7h1v3.9h-1z"/></g><g><path fill="#FFF" d="M268.5 8.1h-35.8v21h8v4.1h3.2v2.6h13.5v-2.6h3.3v-4.1h7.8z"/><path fill="#C6C6C6" d="M268.5 5.8h-35.8v23.3l1-1.5h7.5l-.5 1.5v4.1l.5-1.5 3 .2-.3 1.3v2.6l.3-1.4h12.7l.5 1.4v-2.6l-.2-1.3h3l.5 1.3v-4.1l-.5-1.5h7.5l.8 1.5z"/><path fill="#939292" d="M268.5 5.8h-35.8l1 .9h34z"/><path fill="#040000" d="M267.7 6.7h-34v20.9h7.5v4.3h3v2.5h13v-2.5h3v-4.3h7.5z"/><path fill="#565651" d="M265.7 6.7h-30v20.9h5.5v4.3h3V35h13v-3.1h3v-4.3h5.5z"/><path fill="#343E43" d="M241.8 20.8h17.6v9.7h-17.6z"/><path fill="#040000" d="M241.8 20.8h17.6v9.4h-17.6zM237.1 6.7h27.4v5.4h-27.4z"/><path fill="#F9F4A9" d="M251.7 7h1v3.9h-1zM254.2 7h1v3.9h-1zM257.2 7h1v3.9h-1zM260 7h1v3.9h-1zM240.2 7h1v3.9h-1zM243.2 7h1v3.9h-1zM246 7h1v3.9h-1zM248.7 7h1v3.9h-1z"/></g><g fill="#040000"><path d="M55.5 6.9h35.4V28h-7.2v4.2h-3.4v3h-14v-3h-3.4V28h-7.4zM11 6.9h35.4v21.2h-7.2v4.2h-3.4v3h-14v-3h-3.4v-4.2H11zM144.4 6.9h35.5V28h-7.2v4.2h-3.4v3h-14v-3h-3.4V28h-7.5zM100 6.9h35.4v21.2h-7.1v4.2h-3.5v3h-14v-3h-3.4v-4.2H100zM233.1 6.8h35.4v21.1h-7.2v4.2h-3.4v3h-14v-3h-3.4v-4.2h-7.4zM188.7 6.9h35.4V28h-7.2v4.2h-3.4v3h-14v-3h-3.4V28h-7.4z"/></g></svg>