<svg xmlns="http://www.w3.org/2000/svg" width="324.8" height="36.3">
    <style>
        .st0 {
            fill: #dcdddd
        }

        .st1 {
            fill: #343e43
        }

        .st2 {
            fill: #5d696f
        }

        .st3 {
            fill: #fff89e
        }

    </style>
    <g id="XMLID_1_">
        <g id="XMLID_3_">
            <g id="XMLID_109_">
                <path id="XMLID_114_" class="st0"
                    d="M1.5 33.5H3v-2.1H1.5V23H3v-2.1H1.5V1.8h40.2v2.1H43V1.8h5.8v2.1h1.5V1.8h30.1v2.1h1.4V1.8h5.7v2.1H89V1.8h30v2.1h1.5V1.8h5.5v2.1h1.7V1.8h30v2.1h1.3V1.8h5.8v2.1h1.5V1.8h30v2.1h1.4V1.8h5.7v2.1h1.5V1.8h30v2.1h1.5V1.8h5.6v2.1h1.7V1.8h30v2.1h1.3V1.8h5.7v2.1h1.5V1.8h41.1v19.1h-1.4V23h1.4v8.2h-1.4v2.1h1.4" />
                <path id="XMLID_113_" class="st0"
                    d="M323.3 34.7h-41.1v-1.4h-1.5v1.4H275v-1.4h-1.3v1.4h-30v-1.4H242v1.4h-5.6v-1.4h-1.5v1.4h-30v-1.4h-1.5v1.4h-5.7v-1.4h-1.4v1.4h-30v-1.4h-1.5v1.4H159v-1.4h-1.3v1.4h-30.2v-1.4H126v1.4h-5.5v-1.4H119v1.4H89v-1.4h-1.5v1.4h-5.7v-1.4h-1.4v1.4H50.3v-1.4h-1.5v1.4H43v-1.4h-1.3v1.4H1.5" />
                <path id="XMLID_110_"
                    d="M324.8 36.3H0V3.5C0 .8 0 0 1.5 0h323.3M3 33.2h37.1v-1.4h4.4v1.4h2.7v-1.4h4.4v1.4h27.1v-1.4h4.4v1.4h2.7v-1.4h4.4v1.4h27.2v-1.4h4.4v1.4h2.7v-1.4h4.4v1.4h27.4v-1.4h4.4v1.4h2.7v-1.4h4.4v1.4h27.1v-1.4h4.4v1.4h2.7v-1.4h4.4v1.4h27v-1.4h4.4v1.4h2.7v-1.4h4.4v1.4H272v-1.4h4.4v1.4h2.7v-1.4h4.4v1.4h38.1v-8.6h-1.4v-4.5h1.4v-2.6h-1.4v-4.6h1.4v-10h-38.1v1.4h-4.4V2.9h-2.9v1.4h-4.4V2.9h-27.1v1.4h-4.3V2.9h-2.7v1.4h-4.4V2.9h-27.1v1.4h-4.4V2.9h-2.7v1.4h-4.4V2.9h-27.1v1.4h-4.4V2.9h-2.8v1.4H156V2.9h-27.1v1.4h-4.4V2.9H122v1.4h-4.4V2.9H90.5v1.4h-4.4V2.9h-2.9v1.4h-4.4V2.9H51.7v1.4h-4.5V2.9h-2.7v1.4h-4.4V2.9H3v10h1.4v4.5H3v2.7h1.4v4.6H3v8.5z" />
            </g>
            <g id="XMLID_4_">
                <g id="interface_13_down_1_">
                    <path id="XMLID_108_"
                        d="M276.9 26.9h-7.2v4.4h-3.5v2.8h-14.4v-2.8h-3.4v-4.4h-7.2V5.5h35.7z" />
                    <path id="XMLID_107_" class="st1"
                        d="M242.5 5.5h33.2v21.4h-6v4.4h-3.5v2.8h-14.3l-.1-2.8h-3.4v-4.4h-6z" />
                    <path id="XMLID_106_" class="st2" d="M249.7 29.5h18.8v.4h-18.8z" />
                    <path id="XMLID_105_" d="M249.7 19.2h18.8v10.3h-18.8z" />
                    <path id="XMLID_104_" d="M244.2 5.5h29.7v8.3h-29.7z" />
                    <path id="XMLID_103_" class="st3" d="M256.7 5.5h1.2v6.1h-1.2z" />
                    <path id="XMLID_102_" class="st3" d="M253.4 5.5h1.2v6.1h-1.2z" />
                    <path id="XMLID_101_" class="st3" d="M250 5.5h1.2v6.1H250z" />
                    <path id="XMLID_100_" class="st3" d="M246.7 5.5h1.2v6.1h-1.2z" />
                    <path id="XMLID_99_" class="st3" d="M270.2 5.5h1.2v6.1h-1.2z" />
                    <path id="XMLID_98_" class="st3" d="M266.8 5.5h1.2v6.1h-1.2z" />
                    <path id="XMLID_97_" class="st3" d="M263.5 5.5h1.2v6.1h-1.2z" />
                    <path id="XMLID_96_" class="st3" d="M260.2 5.5h1.2v6.1h-1.2z" />
                </g>
                <g id="interface_15_down_1_">
                    <path id="XMLID_95_" d="M315.7 26.9h-7.5v4.4h-3.4v2.8h-14.3v-2.8h-3.3v-4.4h-7.5V5.5h36z" />
                    <path id="XMLID_94_" class="st1"
                        d="M281.2 5.5h33v21.4h-6v4.4h-3.4l.1 2.8h-14.4v-2.8h-3.3v-4.4h-6z" />
                    <path id="XMLID_93_" class="st2" d="M288.2 29.5H307v.4h-18.8z" />
                    <path id="XMLID_92_" d="M288.2 19.2H307v10.3h-18.8z" />
                    <path id="XMLID_91_" d="M282.8 5.5h29.7v8.3h-29.7z" />
                    <path id="XMLID_90_" class="st3" d="M295.4 5.5h1.2v6.1h-1.2z" />
                    <path id="XMLID_89_" class="st3" d="M292.2 5.5h1.2v6.1h-1.2z" />
                    <path id="XMLID_88_" class="st3" d="M288.7 5.5h1.2v6.1h-1.2z" />
                    <path id="XMLID_87_" class="st3" d="M285.3 5.5h1.2v6.1h-1.2z" />
                    <path id="XMLID_86_" class="st3" d="M308.8 5.5h1.2v6.1h-1.2z" />
                    <path id="XMLID_85_" class="st3" d="M305.5 5.5h1.2v6.1h-1.2z" />
                    <path id="XMLID_84_" class="st3" d="M302.2 5.5h1.2v6.1h-1.2z" />
                    <path id="XMLID_83_" class="st3" d="M298.7 5.5h1.2v6.1h-1.2z" />
                </g>
                <g id="interface_1_down_1_">
                    <path id="XMLID_82_" d="M45 26.9h-7.2v4.4h-3.4v2.8H20v-2.8h-3.5v-4.4H9.3V5.5H45z" />
                    <path id="XMLID_81_" class="st1"
                        d="M10.7 5.5h33v21.4h-5.9v4.4h-3.4v2.8H20v-2.8h-3.5v-4.4h-5.8z" />
                    <path id="XMLID_80_" class="st2" d="M17.7 29.5h18.9v.4H17.7z" />
                    <path id="XMLID_79_" d="M17.7 19.2h18.9v10.3H17.7z" />
                    <path id="XMLID_78_" d="M12.4 5.5h29.7v8.3H12.4z" />
                    <path id="XMLID_77_" class="st3" d="M24.9 5.5h1.2v6.1h-1.2z" />
                    <path id="XMLID_76_" class="st3" d="M21.5 5.5h1.2v6.1h-1.2z" />
                    <path id="XMLID_75_" class="st3" d="M18 5.5h1.2v6.1H18z" />
                    <path id="XMLID_74_" class="st3" d="M14.8 5.5H16v6.1h-1.2z" />
                    <path id="XMLID_73_" class="st3" d="M38.3 5.5h1.2v6.1h-1.2z" />
                    <path id="XMLID_72_" class="st3" d="M35 5.5h1.2v6.1H35z" />
                    <path id="XMLID_71_" class="st3" d="M31.7 5.5h1.2v6.1h-1.2z" />
                    <path id="XMLID_70_" class="st3" d="M28.2 5.5h1.2v6.1h-1.2z" />
                </g>
                <g id="interface_3_down_1_">
                    <path id="XMLID_69_" d="M83.8 26.9h-7.4v4.4H73v2.8H58.7v-2.8h-3.4v-4.4h-7.4V5.5h35.9z" />
                    <path id="XMLID_68_" class="st1"
                        d="M49.4 5.5h33v21.4h-6v4.4H73v2.8H58.7v-2.8h-3.4v-4.4h-6z" />
                    <path id="XMLID_67_" class="st2" d="M56.4 29.5h18.9v.4H56.4z" />
                    <path id="XMLID_66_" d="M56.4 19.2h18.9v10.3H56.4z" />
                    <path id="XMLID_65_" d="M51 5.5h29.7v8.3H51z" />
                    <path id="XMLID_64_" class="st3" d="M63.5 5.5h1.2v6.1h-1.2z" />
                    <path id="XMLID_63_" class="st3" d="M60.2 5.5h1.2v6.1h-1.2z" />
                    <path id="XMLID_62_" class="st3" d="M56.8 5.5H58v6.1h-1.2z" />
                    <path id="XMLID_61_" class="st3" d="M53.5 5.5h1.2v6.1h-1.2z" />
                    <path id="XMLID_60_" class="st3" d="M77 5.5h1.2v6.1H77z" />
                    <path id="XMLID_59_" class="st3" d="M73.7 5.5h1.2v6.1h-1.2z" />
                    <path id="XMLID_58_" class="st3" d="M70.3 5.5h1.2v6.1h-1.2z" />
                    <path id="XMLID_57_" class="st3" d="M66.9 5.5h1.2v6.1h-1.2z" />
                </g>
                <g id="interface_5_down_1_">
                    <path id="XMLID_56_" d="M122.4 26.9H115v4.4h-3.5v2.8H97.3v-2.8h-3.4v-4.4h-7.4V5.5h35.9z" />
                    <path id="XMLID_55_" class="st1"
                        d="M88 5.5h33v21.4h-6v4.4h-3.5l.2 2.8H97.3v-2.8h-3.4v-4.4h-6.1z" />
                    <path id="XMLID_54_" class="st2" d="M95 29.5h18.9v.4H95z" />
                    <path id="XMLID_53_" d="M95 19.2h18.9v10.3H95z" />
                    <path id="XMLID_52_" d="M89.5 5.5h29.7v8.3H89.5z" />
                    <path id="XMLID_51_" class="st3" d="M102.2 5.5h1.2v6.1h-1.2z" />
                    <path id="XMLID_50_" class="st3" d="M98.8 5.5h1.2v6.1h-1.2z" />
                    <path id="XMLID_49_" class="st3" d="M95.4 5.5h1.2v6.1h-1.2z" />
                    <path id="XMLID_48_" class="st3" d="M92 5.5h1.2v6.1H92z" />
                    <path id="XMLID_47_" class="st3" d="M115.5 5.5h1.2v6.1h-1.2z" />
                    <path id="XMLID_46_" class="st3" d="M112.3 5.5h1.2v6.1h-1.2z" />
                    <path id="XMLID_45_" class="st3" d="M108.9 5.5h1.2v6.1h-1.2z" />
                    <path id="XMLID_44_" class="st3" d="M105.5 5.5h1.2v6.1h-1.2z" />
                </g>
                <g id="interface_7_down_1_">
                    <path id="XMLID_43_" d="M161 26.9h-7.2v4.4h-3.4v2.8H136v-2.8h-3.5v-4.4h-7.2V5.5H161z" />
                    <path id="XMLID_42_" class="st1"
                        d="M126.5 5.5h33.2v21.4h-5.9v4.4h-3.4v2.8H136v-2.8h-3.5v-4.4h-6z" />
                    <path id="XMLID_41_" class="st2" d="M133.7 29.5h18.8v.4h-18.8z" />
                    <path id="XMLID_40_" d="M133.7 19.2h18.8v10.3h-18.8z" />
                    <path id="XMLID_39_" d="M128.4 5.5h29.7v8.3h-29.7z" />
                    <path id="XMLID_38_" class="st3" d="M140.9 5.5h1.2v6.1h-1.2z" />
                    <path id="XMLID_37_" class="st3" d="M137.5 5.5h1.2v6.1h-1.2z" />
                    <path id="XMLID_36_" class="st3" d="M134.2 5.5h1.2v6.1h-1.2z" />
                    <path id="XMLID_35_" class="st3" d="M130.8 5.5h1.2v6.1h-1.2z" />
                    <path id="XMLID_34_" class="st3" d="M154.3 5.5h1.2v6.1h-1.2z" />
                    <path id="XMLID_33_" class="st3" d="M151 5.5h1.2v6.1H151z" />
                    <path id="XMLID_32_" class="st3" d="M147.7 5.5h1.2v6.1h-1.2z" />
                    <path id="XMLID_31_" class="st3" d="M144.3 5.5h1.2v6.1h-1.2z" />
                </g>
                <g id="interface_9_down_1_">
                    <path id="XMLID_30_" d="M199.7 26.9h-7.3v4.4H189v2.8h-14.3v-2.8h-3.4v-4.4H164V5.5h35.7z" />
                    <path id="XMLID_29_" class="st1"
                        d="M165.3 5.5h33v21.4h-5.9v4.4H189v2.8h-14.3v-2.8h-3.4v-4.4h-6z" />
                    <path id="XMLID_28_" class="st2" d="M172.4 29.5h18.8v.4h-18.8z" />
                    <path id="XMLID_27_" d="M172.4 19.2h18.8v10.3h-18.8z" />
                    <path id="XMLID_26_" d="M167 5.5h29.7v8.3H167z" />
                    <path id="XMLID_25_" class="st3" d="M179.5 5.5h1.2v6.1h-1.2z" />
                    <path id="XMLID_24_" class="st3" d="M176.3 5.5h1.2v6.1h-1.2z" />
                    <path id="XMLID_23_" class="st3" d="M172.8 5.5h1.2v6.1h-1.2z" />
                    <path id="XMLID_22_" class="st3" d="M169.5 5.5h1.2v6.1h-1.2z" />
                    <path id="XMLID_21_" class="st3" d="M192.9 5.5h1.2v6.1h-1.2z" />
                    <path id="XMLID_20_" class="st3" d="M189.7 5.5h1.2v6.1h-1.2z" />
                    <path id="XMLID_19_" class="st3" d="M186.3 5.5h1.2v6.1h-1.2z" />
                    <path id="XMLID_18_" class="st3" d="M182.8 5.5h1.2v6.1h-1.2z" />
                </g>
                <g id="interface_11_down_1_">
                    <path id="XMLID_17_" d="M238.3 26.9H231v4.4h-3.3v2.8h-14.5v-2.8h-3.4v-4.4h-7.3V5.5h35.8z" />
                    <path id="XMLID_16_" class="st1"
                        d="M203.9 5.5H237v21.4h-6v4.4h-3.3v2.8h-14.4l-.1-2.8h-3.4v-4.4h-6z" />
                    <path id="XMLID_15_" class="st2" d="M211 29.5h18.8v.4H211z" />
                    <path id="XMLID_14_" d="M211 19.2h18.8v10.3H211z" />
                    <path id="XMLID_13_" d="M205.7 5.5h29.7v8.3h-29.7z" />
                    <path id="XMLID_12_" class="st3" d="M218.2 5.5h1.2v6.1h-1.2z" />
                    <path id="XMLID_11_" class="st3" d="M214.8 5.5h1.2v6.1h-1.2z" />
                    <path id="XMLID_10_" class="st3" d="M211.4 5.5h1.2v6.1h-1.2z" />
                    <path id="XMLID_9_" class="st3" d="M208.2 5.5h1.2v6.1h-1.2z" />
                    <path id="XMLID_8_" class="st3" d="M231.7 5.5h1.2v6.1h-1.2z" />
                    <path id="XMLID_7_" class="st3" d="M228.2 5.5h1.2v6.1h-1.2z" />
                    <path id="XMLID_6_" class="st3" d="M224.9 5.5h1.2v6.1h-1.2z" />
                    <path id="XMLID_5_" class="st3" d="M221.5 5.5h1.2v6.1h-1.2z" />
                </g>
            </g>
        </g>
        <g id="XMLID_2_">
            <path id="g-1_1_" d="M45.1 5.5H9.3V27h7.3v4.4H20v2.8h14.4v-2.8h3.4V27h7.3z" />
            <path id="g-2_1_" d="M83.8 5.5H47.9V27h7.4v4.4h3.4v2.8H73v-2.8h3.4V27h7.4z" />
            <path id="g-3_1_" d="M122.4 5.5H86.5V27h7.4v4.4h3.4v2.8h14.3v-2.8h3.4V27h7.4z" />
            <path id="g-4_1_" d="M161.2 5.5h-35.9V27h7.4v4.4h3.4v2.8h14.3v-2.8h3.4V27h7.4z" />
            <path id="g-5_1_" d="M199.9 5.5H164V27h7.3v4.4h3.5v2.8h14.3v-2.8h3.3V27h7.5z" />
            <path id="g-6_1_" d="M238.3 5.5h-35.8V27h7.3v4.4h3.5v2.8h14.4v-2.8h3.3V27h7.3z" />
            <path id="g-7_1_" d="M277 5.5h-35.8V27h7.3v4.4h3.3v2.8h14.5v-2.8h3.4V27h7.3z" />
            <path id="g-8_1_" d="M315.6 5.5h-35.9v21.6h7.4v4.3h3.3v2.9h14.3v-2.9h3.5v-4.3h7.4z" />
        </g>
    </g>
</svg>
