<svg xmlns="http://www.w3.org/2000/svg" width="45.4" height="81"><path fill="#FFF" d="M.3 1h44.3v79.2H.3z"/><path fill="#040000" d="M0 81V0h45.4v81H0zM44.1 1.6l-42.9.2V79h42.9V1.6z"/><path fill="#FFF" d="M4.8 33.1h35.8v-21h-8V8h-3.2V5.4H15.9V8h-3.3v4.1H4.8z"/><path fill="#C4C2C2" d="M4.8 35.4h35.8V12.1l-1 1.5h-7.5l.5-1.5V8l-.5 1.5-3-.2.3-1.3V5.4l-.3 1.4H16.4l-.5-1.4V8l.2 1.3h-3L12.6 8v4.1l.5 1.5H5.6l-.8-1.5z"/><path fill="#939090" d="M4.8 35.4h35.8l-1-.9h-34z"/><path fill="#040000" d="M5.6 34.5h34V13.6h-7.5V9.3h-3V6.8h-13v2.5h-3v4.3H5.6z"/><path fill="#565651" d="M7.6 34.5h30V13.6h-5.5V9.3h-3V6.2h-13v3.1h-3v4.3H7.6z"/><path fill="#232121" d="M13.9 10.7h17.6v9.7H13.9z"/><path fill="#040000" d="M13.9 11h17.6v9.4H13.9zM8.8 29.1h27.4v5.4H8.8z"/><path fill="#F9F4A9" d="M20.6 30.3h1v3.9h-1zM18.1 30.3h1v3.9h-1zM15.1 30.3h1v3.9h-1zM12.3 30.3h1v3.9h-1zM32.1 30.3h1v3.9h-1zM29.1 30.3h1v3.9h-1zM26.3 30.3h1v3.9h-1zM23.6 30.3h1v3.9h-1z"/><g><path fill="#FFF" d="M4.2 47.3H40v21h-8v4h-3.2v2.6H15.3v-2.6H12v-4H4.2z"/><path fill="#C4C2C2" d="M4.2 44.9H40v23.4l-1-1.5h-7.5l.5 1.5v4l-.5-1.5-3 .3.3 1.2v2.6l-.3-1.3H15.8l-.5 1.3v-2.6l.2-1.2h-3l-.5 1.2v-4l.5-1.5H5l-.8 1.5z"/><path fill="#939090" d="M4.2 44.9H40l-1 .9H5z"/><path fill="#040000" d="M5 45.8h34v21h-7.5v4.3h-3v2.5h-13v-2.5h-3v-4.3H5z"/><path fill="#565651" d="M7 45.8h30v21h-5.5v4.3h-3v3.1h-13v-3.1h-3v-4.3H7z"/><path fill="#232121" d="M13.3 59.9h17.6v9.7H13.3z"/><path fill="#040000" d="M13.3 59.9h17.6v9.4H13.3zM8.2 45.8h27.4v5.4H8.2z"/><path fill="#F9F4A9" d="M20 46.1h1V50h-1zM17.5 46.1h1V50h-1zM14.5 46.1h1V50h-1zM11.7 46.1h1V50h-1zM31.5 46.1h1V50h-1zM28.5 46.1h1V50h-1zM25.7 46.1h1V50h-1zM23 46.1h1V50h-1z"/></g><g fill="#040000"><path d="M39.7 45.8H4.3v21.1h7.2v4.2h3.4v3h14v-3h3.4v-4.2h7.4zM5 34.5h35.4V13.4h-7.2V9.3h-3.4v-3h-14v3h-3.4v4.1H5z"/></g></svg>