<svg xmlns="http://www.w3.org/2000/svg" width="90.2" height="81"><path fill="#FFF" d="M.4 1.1h87.4v79.2H.4z"/><path fill="#040000" d="M0 81V0h90.2v81H0zM87.7 1.7l-85.3.1V79h85.3V1.7z"/><path fill="#FFF" d="M47.9 33.1h35.8v-21h-8V8h-3.2V5.4H59V8h-3.3v4.1h-7.8z"/><path fill="#C6C6C6" d="M47.9 35.4h35.8V12.1l-1 1.5h-7.5l.5-1.5V8l-.5 1.5-3-.2.3-1.3V5.4l-.3 1.4H59.5L59 5.4V8l.2 1.3h-3L55.7 8v4.1l.5 1.5h-7.5l-.8-1.5z"/><path fill="#939292" d="M47.9 35.4h35.8l-1-.9h-34z"/><path fill="#040000" d="M48.7 34.5h34V13.6h-7.5V9.3h-3V6.8h-13v2.5h-3v4.3h-7.5z"/><path fill="#565651" d="M50.7 34.5h30V13.6h-5.5V9.3h-3V6.2h-13v3.1h-3v4.3h-5.5z"/><path fill="#4B4B51" d="M57 10.7h17.6v9.7H57z"/><path fill="#040000" d="M57 11h17.6v9.4H57zM51.9 29.1h27.4v5.4H51.9z"/><path fill="#F9F4A9" d="M63.7 30.3h1v3.9h-1zM61.2 30.3h1v3.9h-1zM58.2 30.3h1v3.9h-1zM55.4 30.3h1v3.9h-1zM75.2 30.3h1v3.9h-1zM72.2 30.3h1v3.9h-1zM69.4 30.3h1v3.9h-1zM66.7 30.3h1v3.9h-1z"/><g><path fill="#FFF" d="M4.9 33.1h35.8v-21h-8V8h-3.2V5.4H16V8h-3.3v4.1H4.9z"/><path fill="#C6C6C6" d="M4.9 35.4h35.8V12.1l-1 1.5h-7.5l.5-1.5V8l-.5 1.5-3-.2.3-1.3V5.4l-.3 1.4H16.5L16 5.4V8l.2 1.3h-3L12.7 8v4.1l.5 1.5H5.7l-.8-1.5z"/><path fill="#939292" d="M4.9 35.4h35.8l-1-.9h-34z"/><path fill="#040000" d="M5.7 34.5h34V13.6h-7.5V9.3h-3V6.8h-13v2.5h-3v4.3H5.7z"/><path fill="#565651" d="M7.7 34.5h30V13.6h-5.5V9.3h-3V6.2h-13v3.1h-3v4.3H7.7z"/><path fill="#4B4B51" d="M14 10.7h17.6v9.7H14z"/><path fill="#040000" d="M14 11h17.6v9.4H14zM8.9 29.1h27.4v5.4H8.9z"/><path fill="#F9F4A9" d="M20.7 30.3h1v3.9h-1zM18.2 30.3h1v3.9h-1zM15.2 30.3h1v3.9h-1zM12.4 30.3h1v3.9h-1zM32.2 30.3h1v3.9h-1zM29.2 30.3h1v3.9h-1zM26.4 30.3h1v3.9h-1zM23.7 30.3h1v3.9h-1z"/></g><g><path fill="#FFF" d="M47.3 47.2h35.8v21h-8v4.1h-3.2v2.6H58.4v-2.6h-3.3v-4.1h-7.8z"/><path fill="#C6C6C6" d="M47.3 44.9h35.8v23.3l-1-1.5h-7.5l.5 1.5v4.1l-.5-1.5-3 .2.3 1.3v2.6l-.3-1.4H58.9l-.5 1.4v-2.6l.2-1.3h-3l-.5 1.3v-4.1l.5-1.5h-7.5l-.8 1.5z"/><path fill="#939292" d="M47.3 44.9h35.8l-1 .9h-34z"/><path fill="#040000" d="M48.1 45.8h34v20.9h-7.5V71h-3v2.5h-13V71h-3v-4.3h-7.5z"/><path fill="#565651" d="M50.1 45.8h30v20.9h-5.5V71h-3v3.1h-13V71h-3v-4.3h-5.5z"/><path fill="#4B4B51" d="M56.4 59.9H74v9.7H56.4z"/><path fill="#040000" d="M56.4 59.9H74v9.4H56.4zM51.3 45.8h27.4v5.4H51.3z"/><path fill="#F9F4A9" d="M63.1 46.1h1V50h-1zM60.6 46.1h1V50h-1zM57.6 46.1h1V50h-1zM54.8 46.1h1V50h-1zM74.6 46.1h1V50h-1zM71.6 46.1h1V50h-1zM68.8 46.1h1V50h-1zM66.1 46.1h1V50h-1z"/></g><g><path fill="#FFF" d="M4.3 47.2h35.8v21h-8v4.1h-3.2v2.6H15.4v-2.6h-3.3v-4.1H4.3z"/><path fill="#C6C6C6" d="M4.3 44.9h35.8v23.3l-1-1.5h-7.5l.5 1.5v4.1l-.5-1.5-3 .2.3 1.3v2.6l-.3-1.4H15.9l-.5 1.4v-2.6l.2-1.3h-3l-.5 1.3v-4.1l.5-1.5H5.1l-.8 1.5z"/><path fill="#939292" d="M4.3 44.9h35.8l-1 .9h-34z"/><path fill="#040000" d="M5.1 45.8h34v20.9h-7.5V71h-3v2.5h-13V71h-3v-4.3H5.1z"/><path fill="#565651" d="M7.1 45.8h30v20.9h-5.5V71h-3v3.1h-13V71h-3v-4.3H7.1z"/><path fill="#4B4B51" d="M13.4 59.9H31v9.7H13.4z"/><path fill="#040000" d="M13.4 59.9H31v9.4H13.4zM8.3 45.8h27.4v5.4H8.3z"/><path fill="#F9F4A9" d="M20.1 46.1h1V50h-1zM17.6 46.1h1V50h-1zM14.6 46.1h1V50h-1zM11.8 46.1h1V50h-1zM31.6 46.1h1V50h-1zM28.6 46.1h1V50h-1zM25.8 46.1h1V50h-1zM23.1 46.1h1V50h-1z"/></g><g fill="#040000"><path d="M39.8 45.7H4.4v21.1h7.2V71H15v3h14v-3h3.4v-4.2h7.4zM40.5 34.5H5.1V13.4h7.2V9.2h3.4v-3h14v3h3.4v4.2h7.4zM82.8 45.7H47.4v21.1h7.2V71H58v3h14v-3h3.4v-4.2h7.4zM83.5 34.5H48.1V13.4h7.2V9.2h3.4v-3h14v3h3.4v4.2h7.4z"/></g></svg>