<svg xmlns="http://www.w3.org/2000/svg" width="166.6" height="80.3"><path fill="#040000" d="M166.6 80.3H0V0h166.6v80.3zM2.1 76.9h162.5V3.3H2.1v73.6z"/><path fill="#DBDCDC" d="M165.9 15.7V1.3h-40.2v1.6h-1.4V1.3h-5.6v1.6h-1.5V1.3H87.5v1.6h-1.4V1.3h-5.7v1.6H79V1.3H49.2v1.6h-1.4V1.3h-5.6v1.6h-1.5V1.3H12.9v-.1H2.4v.1H1v14.4h1.4v1.7H1v6.5h1.4v1.6H1v29.2h1.4v1.7H1v6.4h1.4v1.6H1v14.5h39.7v-1.7h1.5v1.7h5.6v-1.7h1.4v1.7H79v-1.7h1.4v1.7h5.7v-1.7h1.4v1.7h29.7v-1.7h1.5v1.7h5.6v-1.7h1.4v1.7h40.2V64.4h-1.5v-1.6h1.5v-6.6h-1.5v-1.6h1.5V25.5h-1.5v-1.8h1.5v-6.3h-1.5v-1.7z"/><path fill="#040000" d="M42.9 13.8h-7.3V9.7h-3.4V7H18.1v2.7h-3.4v4.1H7.4v20.1h35.5z"/><path fill="#343E43" d="M8.8 33.9h32.7V13.8h-5.9V9.7h-3.4l.1-2.7H18.1v2.7h-3.4v4.1H8.8z"/><path fill="#5C686E" d="M15.8 10.9h18.6v.4H15.8z"/><path fill="#040000" d="M15.8 11.3h18.6V21H15.8zM10.4 26h29.4v7.8H10.4z"/><path fill="#F9F29E" d="M22.9 28.2h1.2v5.7h-1.2zM19.6 28.2h1.2v5.7h-1.2zM16.2 28.2h1.2v5.7h-1.2zM12.9 28.2h1.2v5.7h-1.2zM36.2 28.2h1.2v5.7h-1.2zM32.9 28.2h1.2v5.7h-1.2zM29.5 28.2h1.2v5.7h-1.2zM26.2 28.2h1.2v5.7h-1.2z"/><g><path fill="#040000" d="M81.1 13.8h-7.2V9.7h-3.4V7H56.3v2.7h-3.4v4.1h-7.2v20.1h35.4z"/><path fill="#343E43" d="M47 33.9h32.7V13.8h-5.8V9.7h-3.4V7H56.3v2.7h-3.4v4.1H47z"/><path fill="#5C686E" d="M54 10.9h18.6v.4H54z"/><path fill="#040000" d="M54 11.3h18.6V21H54zM48.7 26h29.4v7.8H48.7z"/><path fill="#F9F29E" d="M61.1 28.2h1.2v5.7h-1.2zM57.8 28.2H59v5.7h-1.2zM54.5 28.2h1.2v5.7h-1.2zM51.1 28.2h1.2v5.7h-1.2zM74.4 28.2h1.2v5.7h-1.2zM71.1 28.2h1.2v5.7h-1.2zM67.8 28.2H69v5.7h-1.2zM64.5 28.2h1.2v5.7h-1.2z"/></g><g><path fill="#040000" d="M42.9 64.8h-7.3v4h-3.4v2.9H18.1v-2.9h-3.4v-4H7.4V44.6h35.5z"/><path fill="#343E43" d="M8.8 44.7h32.7v20.1h-5.9v4h-3.4l.1 2.9H18.1v-2.9h-3.4v-4H8.8z"/><path fill="#5C686E" d="M15.8 67.4h18.6v.4H15.8z"/><path fill="#040000" d="M15.8 57.5h18.6v9.7H15.8zM10.4 44.7h29.4v7.8H10.4z"/><path fill="#F9F29E" d="M22.9 44.7h1.2v5.7h-1.2zM19.6 44.7h1.2v5.7h-1.2zM16.2 44.7h1.2v5.7h-1.2zM12.9 44.7h1.2v5.7h-1.2zM36.2 44.7h1.2v5.7h-1.2zM32.9 44.7h1.2v5.7h-1.2zM29.5 44.7h1.2v5.7h-1.2zM26.2 44.7h1.2v5.7h-1.2z"/></g><g><path fill="#040000" d="M81.1 64.8h-7.2v4h-3.4v2.9H56.3v-2.9h-3.4v-4h-7.2V44.6h35.4z"/><path fill="#343E43" d="M47 44.7h32.7v20.1h-5.8v4h-3.4v2.9H56.3v-2.9h-3.4v-4H47z"/><path fill="#5C686E" d="M54 67.4h18.6v.4H54z"/><path fill="#040000" d="M54 57.5h18.6v9.7H54zM48.7 44.7h29.4v7.8H48.7z"/><path fill="#F9F29E" d="M61.1 44.7h1.2v5.7h-1.2zM57.8 44.7H59v5.7h-1.2zM54.5 44.7h1.2v5.7h-1.2zM51.1 44.7h1.2v5.7h-1.2zM74.4 44.7h1.2v5.7h-1.2zM71.1 44.7h1.2v5.7h-1.2zM67.8 44.7H69v5.7h-1.2zM64.5 44.7h1.2v5.7h-1.2z"/></g><g><path fill="#040000" d="M119.7 13.8h-7.3V9.7H109V7H94.9v2.7h-3.4v4.1h-7.3v20.1h35.5z"/><path fill="#343E43" d="M85.6 33.9h32.7V13.8h-5.9V9.7H109l.1-2.7H94.9v2.7h-3.4v4.1h-6z"/><path fill="#5C686E" d="M92.6 10.9h18.6v.4H92.6z"/><path fill="#040000" d="M92.6 11.3h18.6V21H92.6zM87.2 26h29.4v7.8H87.2z"/><path fill="#F9F29E" d="M99.7 28.2h1.2v5.7h-1.2zM96.3 28.2h1.2v5.7h-1.2zM93 28.2h1.2v5.7H93zM89.7 28.2h1.2v5.7h-1.2zM113 28.2h1.2v5.7H113zM109.7 28.2h1.2v5.7h-1.2zM106.3 28.2h1.2v5.7h-1.2zM103 28.2h1.2v5.7H103z"/></g><g><path fill="#040000" d="M157.9 13.8h-7.2V9.7h-3.4V7h-14.2v2.7h-3.4v4.1h-7.2v20.1h35.4z"/><path fill="#343E43" d="M123.9 33.9h32.7V13.8h-5.9V9.7h-3.4V7h-14.1l-.1 2.7h-3.4v4.1h-5.9z"/><path fill="#5C686E" d="M130.8 10.9h18.6v.4h-18.6z"/><path fill="#040000" d="M130.8 11.3h18.6V21h-18.6zM125.5 26h29.4v7.8h-29.4z"/><path fill="#F9F29E" d="M137.9 28.2h1.2v5.7h-1.2zM134.6 28.2h1.2v5.7h-1.2zM131.3 28.2h1.2v5.7h-1.2zM128 28.2h1.2v5.7H128zM151.3 28.2h1.2v5.7h-1.2zM147.9 28.2h1.2v5.7h-1.2zM144.6 28.2h1.2v5.7h-1.2zM141.3 28.2h1.2v5.7h-1.2z"/></g><g><path fill="#040000" d="M119.7 64.7h-7.3v4.1H109v2.7H94.9v-2.7h-3.4v-4.1h-7.3V44.6h35.5z"/><path fill="#343E43" d="M85.6 44.6h32.7v20.1h-5.9v4.1H109l.1 2.7H94.9v-2.7h-3.4v-4.1h-6z"/><path fill="#5C686E" d="M92.6 67.2h18.6v.4H92.6z"/><path fill="#040000" d="M92.6 57.4h18.6v9.7H92.6zM87.2 44.6h29.4v7.8H87.2z"/><path fill="#F9F29E" d="M99.7 44.6h1.2v5.7h-1.2zM96.3 44.6h1.2v5.7h-1.2zM93 44.6h1.2v5.7H93zM89.7 44.6h1.2v5.7h-1.2zM113 44.6h1.2v5.7H113zM109.7 44.6h1.2v5.7h-1.2zM106.3 44.6h1.2v5.7h-1.2zM103 44.6h1.2v5.7H103z"/></g><g><path fill="#040000" d="M157.9 64.7h-7.2v4.1h-3.4v2.7h-14.2v-2.7h-3.4v-4.1h-7.2V44.6h35.4z"/><path fill="#343E43" d="M123.9 44.6h32.7v20.1h-5.9v4.1h-3.4v2.7h-14.1l-.1-2.7h-3.4v-4.1h-5.9z"/><path fill="#5C686E" d="M130.8 67.2h18.6v.4h-18.6z"/><path fill="#040000" d="M130.8 57.4h18.6v9.7h-18.6zM125.5 44.6h29.4v7.8h-29.4z"/><path fill="#F9F29E" d="M137.9 44.6h1.2v5.7h-1.2zM134.6 44.6h1.2v5.7h-1.2zM131.3 44.6h1.2v5.7h-1.2zM128 44.6h1.2v5.7H128zM151.3 44.6h1.2v5.7h-1.2zM147.9 44.6h1.2v5.7h-1.2zM144.6 44.6h1.2v5.7h-1.2zM141.3 44.6h1.2v5.7h-1.2z"/></g><g fill="#040000"><path d="M42.9 13.8h-7.3V9.6h-3.4V6.8H18.1v2.8h-3.4v4.2H7.4v21.1h35.5zM42.9 43.6H7.4v21h7.3v4.3h3.4v2.7h14.1v-2.7h3.4v-4.3h7.3zM81.1 13.8h-7.2V9.6h-3.4V6.8H56.3v2.8h-3.4v4.2h-7.2v21.1h35.4zM81.1 43.6H45.7v21.1h7.2v4.2h3.4v2.8h14.2v-2.8h3.4v-4.2h7.2zM119.6 13.8h-7.2V9.6H109V6.8H94.8v2.8h-3.4v4.2h-7.2v21.1h35.4zM119.6 43.6H84.2v21h7.2v4.3h3.4v2.7H109v-2.7h3.4v-4.3h7.2zM157.9 13.8h-7.2V9.6h-3.4V6.8h-14.2v2.8h-3.4v4.2h-7.2v21.1h35.4zM157.9 43.6h-35.4v21h7.2v4.3h3.4v2.7h14.2v-2.7h3.4v-4.3h7.2z"/></g></svg>