<svg xmlns="http://www.w3.org/2000/svg" width="242" height="81"><path fill="#DBDCDC" d="M241.7 80h-40v-1.7h-1.4V80h-5.7v-1.7h-1.4V80h-29.8v-1.7H162V80h-5.7v-1.7h-1.4V80H125v-1.7h-1.4V80h-5.7v-1.7h-1.4V80H86.8v-1.7h-1.5V80h-5.6v-1.7h-1.4V80H48.5v-1.7h-1.4V80h-5.7v-1.7H40V80H.2V65.1h1.4v-1.7H.2V57h1.4v-1.8H.2v-30h1.4v-1.6H.2v-6.5h1.4v-1.8H.2V.4H40v1.7h1.4V.4h5.7v1.7h1.4V.4h29.8v1.7h1.4V.4h5.6v1.7h1.5V.4h29.7v1.7h1.4V.4h5.7v1.7h1.4V.4h29.9v1.7h1.4V.4h5.7v1.7h1.4V.4h29.8v1.7h1.4V.4h5.7v1.7h1.4V.4h40v14.9h-1.4v1.8h1.4v6.4h-1.4v1.7h1.4V55h-1.4v1.7h1.4v6.7h-1.4v1.7h1.4z"/><path fill="#231815" d="M242 81h-40.6v-1.7h-.9V81h-6.2v-1.7h-.9V81h-30.3v-1.7h-.9V81H156v-1.7h-.9V81h-30.3v-1.7h-.9V81h-6.2v-1.7h-.9V81H86.5v-1.7h-.9V81h-6.2v-1.7h-.9V81H48.2v-1.7h-.8V81h-6.2v-1.7h-1V81H0V65.2h1.4v-1.1H0V57h1.4v-1.1H0V25.1h1.4V24H0v-7.4h1.4v-1.1H0v-13C0 0 0 0 .3 0h39.9v1.7h1V0h6.2v1.7h.9V0h30.3v1.7h.9V0h6.2v1.7h.9V0h30.3v1.7h.9V0h6.2v1.7h.9V0h30.3v1.7h.9V0h6.2v1.7h.9V0h30.1v1.7h.9V0h6.2v1.7h.9V0h40.6v15.8h-1.4v1.1h1.4V24h-1.4v1h1.4v30.9h-1.4v1h1.4v7.4h-1.4v1.1h1.4V81h.1zm-40.1-.6h39.6V65.8h-1.4v-2.2h1.4v-6.1h-1.4v-2.2h1.4V25.4h-1.4v-2.2h1.4v-5.9h-1.4v-2.2h1.4V.4h-39.6v1.7H200V.4h-5.2v1.7h-1.9V.4h-29.3v1.7h-1.9V.4h-5.2v1.7h-1.9V.4h-29.4v1.7h-1.9V.4h-5.2v1.7h-1.8V.4H87v1.7h-1.9V.4h-5.2v1.7H78V.4H48.7v1.7h-1.9V.4h-5.2v1.7h-1.9V.4H.5V15h1.4v2.2H.5v6.1h1.4v2.2H.5v29.7h1.4v2.2H.5v5.9h1.4v2.2H.5V80h39.2v-1.7h1.9V80h5.2v-1.7h1.9V80H78v-1.7h1.9V80h5.2v-1.7H87V80h29.2v-1.7h1.9V80h5.2v-1.7h1.9V80h29.3v-1.7h1.9V80h5.2v-1.7h1.9V80h29.3v-1.7h1.9V80h5.2v-1.7h1.9l.1 2.1z"/><g><path fill="#040000" d="M42.8 14.6h-7.2v-4.2h-3.4V7.7H18v2.7h-3.4v4.2H7.3v20.5h35.5z"/><path fill="#343E43" d="M8.8 35.1h32.7V14.6h-5.9v-4.2h-3.4V7.7H18.1l-.1 2.7h-3.4v4.2H8.7z"/><path fill="#5C686E" d="M15.7 11.7h18.7v.4H15.7z"/><path fill="#040000" d="M15.7 12.1h18.7V22H15.7zM10.4 27.1h29.4V35H10.4z"/><path fill="#F9F29E" d="M22.8 29.3H24v5.8h-1.2zM19.5 29.3h1.2v5.8h-1.2zM16.2 29.3h1.2v5.8h-1.2zM12.9 29.3h1.2v5.8h-1.2zM36.2 29.3h1.2v5.8h-1.2zM32.8 29.3H34v5.8h-1.2zM29.5 29.3h1.2v5.8h-1.2zM26.2 29.3h1.2v5.8h-1.2z"/><g><path fill="#040000" d="M81.1 14.6h-7.2v-4.2h-3.4V7.7H56.3v2.7h-3.4v4.2h-7.2v20.5h35.4z"/><path fill="#343E43" d="M47 35.1h32.7V14.6h-5.8v-4.2h-3.4V7.7H56.3v2.7h-3.4v4.2H47z"/><path fill="#5C686E" d="M54 11.7h18.6v.4H54z"/><path fill="#040000" d="M54 12.1h18.6V22H54zM48.7 27.1h29.4V35H48.7z"/><path fill="#F9F29E" d="M61.1 29.3h1.2v5.8h-1.2zM57.8 29.3H59v5.8h-1.2zM54.4 29.3h1.2v5.8h-1.2zM51.1 29.3h1.2v5.8h-1.2zM74.4 29.3h1.2v5.8h-1.2zM71.1 29.3h1.2v5.8h-1.2zM67.8 29.3H69v5.8h-1.2zM64.4 29.3h1.2v5.8h-1.2z"/></g><g><path fill="#040000" d="M119.3 14.6h-7.2v-4.2h-3.4V7.7H94.5v2.7h-3.4v4.2h-7.2v20.5h35.4z"/><path fill="#343E43" d="M85.2 35.1h32.7V14.6h-5.8v-4.2h-3.4V7.7H94.5v2.7h-3.4v4.2h-5.9z"/><path fill="#5C686E" d="M92.2 11.7h18.6v.4H92.2z"/><path fill="#040000" d="M92.2 12.1h18.6V22H92.2zM86.9 27.1h29.4V35H86.9z"/><path fill="#F9F29E" d="M99.3 29.3h1.2v5.8h-1.2zM96 29.3h1.2v5.8H96zM92.7 29.3h1.2v5.8h-1.2zM89.3 29.3h1.2v5.8h-1.2zM112.6 29.3h1.2v5.8h-1.2zM109.3 29.3h1.2v5.8h-1.2zM106 29.3h1.2v5.8H106zM102.6 29.3h1.2v5.8h-1.2z"/></g><g><path fill="#040000" d="M157.8 14.6h-7.3v-4.2h-3.4V7.7h-14.3v2.7h-3.4v4.2h-7.2v20.5h35.6z"/><path fill="#343E43" d="M123.6 35.1h32.8V14.6h-5.9v-4.2h-3.4V7.7h-14.2l-.1 2.7h-3.4v4.2h-5.9z"/><path fill="#5C686E" d="M130.6 11.7h18.6v.4h-18.6z"/><path fill="#040000" d="M130.6 12.1h18.6V22h-18.6zM125.2 27.1h29.4V35h-29.4z"/><path fill="#F9F29E" d="M137.7 29.3h1.2v5.8h-1.2zM134.3 29.3h1.2v5.8h-1.2zM131 29.3h1.2v5.8H131zM127.7 29.3h1.2v5.8h-1.2zM151.1 29.3h1.2v5.8h-1.2zM147.7 29.3h1.2v5.8h-1.2zM144.4 29.3h1.2v5.8h-1.2zM141.1 29.3h1.2v5.8h-1.2z"/></g><g><path fill="#040000" d="M196 14.6h-7.2v-4.2h-3.4V7.7h-14.2v2.7h-3.4v4.2h-7.2v20.5H196z"/><path fill="#343E43" d="M162 35.1h32.7V14.6h-5.9v-4.2h-3.4V7.7h-14.1l-.1 2.7h-3.4v4.2h-5.9z"/><path fill="#5C686E" d="M169 11.7h18.6v.4H169z"/><path fill="#040000" d="M169 12.1h18.6V22H169zM163.6 27.1H193V35h-29.4z"/><path fill="#F9F29E" d="M176 29.3h1.2v5.8H176zM172.7 29.3h1.2v5.8h-1.2zM169.4 29.3h1.2v5.8h-1.2zM166.1 29.3h1.2v5.8h-1.2zM189.4 29.3h1.2v5.8h-1.2zM186 29.3h1.2v5.8H186zM182.7 29.3h1.2v5.8h-1.2zM179.4 29.3h1.2v5.8h-1.2z"/></g><g><path fill="#040000" d="M234.3 14.6H227v-4.2h-3.4V7.7h-14.1v2.7h-3.4v4.2h-7.3v20.5h35.5z"/><path fill="#343E43" d="M200.2 35.1h32.7V14.6H227v-4.2h-3.4l.1-2.7h-14.2v2.7h-3.4v4.2h-5.9z"/><path fill="#5C686E" d="M207.2 11.7h18.6v.4h-18.6z"/><path fill="#040000" d="M207.2 12.1h18.6V22h-18.6zM201.8 27.1h29.4V35h-29.4z"/><path fill="#F9F29E" d="M214.3 29.3h1.2v5.8h-1.2zM211 29.3h1.2v5.8H211zM207.6 29.3h1.2v5.8h-1.2zM204.3 29.3h1.2v5.8h-1.2zM227.6 29.3h1.2v5.8h-1.2zM224.3 29.3h1.2v5.8h-1.2zM220.9 29.3h1.2v5.8h-1.2zM217.6 29.3h1.2v5.8h-1.2z"/></g><g><path fill="#040000" d="M42.8 66.5h-7.2v4.1h-3.4v2.8H18v-2.8h-3.4v-4.1H7.3V45.9h35.5z"/><path fill="#343E43" d="M8.8 46h32.7v20.5h-5.9v4.1h-3.4v2.8H18.1l-.1-2.8h-3.4v-4.1H8.7z"/><path fill="#5C686E" d="M15.7 69h18.7v.4H15.7z"/><path fill="#040000" d="M15.7 59h18.7v9.9H15.7zM10.4 46h29.4v7.9H10.4z"/><path fill="#F9F29E" d="M22.8 46H24v5.8h-1.2zM19.5 46h1.2v5.8h-1.2zM16.2 46h1.2v5.8h-1.2zM12.9 46h1.2v5.8h-1.2zM36.2 46h1.2v5.8h-1.2zM32.8 46H34v5.8h-1.2zM29.5 46h1.2v5.8h-1.2zM26.2 46h1.2v5.8h-1.2z"/></g><g><path fill="#040000" d="M81.1 66.5h-7.2v4.1h-3.4v2.8H56.3v-2.8h-3.4v-4.1h-7.2V45.9h35.4z"/><path fill="#343E43" d="M47 46h32.7v20.5h-5.8v4.1h-3.4v2.8H56.3v-2.8h-3.4v-4.1H47z"/><path fill="#5C686E" d="M54 69h18.6v.4H54z"/><path fill="#040000" d="M54 59h18.6v9.9H54zM48.7 46h29.4v7.9H48.7z"/><path fill="#F9F29E" d="M61.1 46h1.2v5.8h-1.2zM57.8 46H59v5.8h-1.2zM54.4 46h1.2v5.8h-1.2zM51.1 46h1.2v5.8h-1.2zM74.4 46h1.2v5.8h-1.2zM71.1 46h1.2v5.8h-1.2zM67.8 46H69v5.8h-1.2zM64.4 46h1.2v5.8h-1.2z"/></g><g><path fill="#040000" d="M119.3 66.5h-7.2v4.1h-3.4v2.8H94.5v-2.8h-3.4v-4.1h-7.2V45.9h35.4z"/><path fill="#343E43" d="M85.2 46h32.7v20.5h-5.8v4.1h-3.4v2.8H94.5v-2.8h-3.4v-4.1h-5.9z"/><path fill="#5C686E" d="M92.2 69h18.6v.4H92.2z"/><path fill="#040000" d="M92.2 59h18.6v9.9H92.2zM86.9 46h29.4v7.9H86.9z"/><path fill="#F9F29E" d="M99.3 46h1.2v5.8h-1.2zM96 46h1.2v5.8H96zM92.7 46h1.2v5.8h-1.2zM89.3 46h1.2v5.8h-1.2zM112.6 46h1.2v5.8h-1.2zM109.3 46h1.2v5.8h-1.2zM106 46h1.2v5.8H106zM102.6 46h1.2v5.8h-1.2z"/></g><g><path fill="#040000" d="M157.8 66.5h-7.3v4.1h-3.4v2.8h-14.3v-2.8h-3.4v-4.1h-7.2V45.9h35.6z"/><path fill="#343E43" d="M123.6 46h32.8v20.5h-5.9v4.1h-3.4v2.8h-14.2l-.1-2.8h-3.4v-4.1h-5.9z"/><path fill="#5C686E" d="M130.6 69h18.6v.4h-18.6z"/><path fill="#040000" d="M130.6 59h18.6v9.9h-18.6zM125.2 46h29.4v7.9h-29.4z"/><path fill="#F9F29E" d="M137.7 46h1.2v5.8h-1.2zM134.3 46h1.2v5.8h-1.2zM131 46h1.2v5.8H131zM127.7 46h1.2v5.8h-1.2zM151.1 46h1.2v5.8h-1.2zM147.7 46h1.2v5.8h-1.2zM144.4 46h1.2v5.8h-1.2zM141.1 46h1.2v5.8h-1.2z"/></g><g><path fill="#040000" d="M196 66.5h-7.2v4.1h-3.4v2.8h-14.2v-2.8h-3.4v-4.1h-7.2V45.9H196z"/><path fill="#343E43" d="M162 46h32.7v20.5h-5.9v4.1h-3.4v2.8h-14.1l-.1-2.8h-3.4v-4.1h-5.9z"/><path fill="#5C686E" d="M169 69h18.6v.4H169z"/><path fill="#040000" d="M169 59h18.6v9.9H169zM163.6 46H193v7.9h-29.4z"/><path fill="#F9F29E" d="M176 46h1.2v5.8H176zM172.7 46h1.2v5.8h-1.2zM169.4 46h1.2v5.8h-1.2zM166.1 46h1.2v5.8h-1.2zM189.4 46h1.2v5.8h-1.2zM186 46h1.2v5.8H186zM182.7 46h1.2v5.8h-1.2zM179.4 46h1.2v5.8h-1.2z"/></g><g><path fill="#040000" d="M234.3 66.5H227v4.1h-3.4v2.8h-14.1v-2.8h-3.4v-4.1h-7.3V45.9h35.5z"/><path fill="#343E43" d="M200.2 46h32.7v20.5H227v4.1h-3.4l.1 2.8h-14.2v-2.8h-3.4v-4.1h-5.9z"/><path fill="#5C686E" d="M207.2 69h18.6v.4h-18.6z"/><path fill="#040000" d="M207.2 59h18.6v9.9h-18.6zM201.8 46h29.4v7.9h-29.4z"/><path fill="#F9F29E" d="M214.3 46h1.2v5.8h-1.2zM211 46h1.2v5.8H211zM207.6 46h1.2v5.8h-1.2zM204.3 46h1.2v5.8h-1.2zM227.6 46h1.2v5.8h-1.2zM224.3 46h1.2v5.8h-1.2zM220.9 46h1.2v5.8h-1.2zM217.6 46h1.2v5.8h-1.2z"/></g></g><g fill="#040000"><path d="M42.7 45.2H7.3v21.3h7.2v4.2h3.4v2.9h14.2v-2.9h3.4v-4.2h7.2zM42.8 14.6h-7.2v-4.3h-3.4V7.5H18v2.8h-3.4v4.3H7.3v21.2h35.5zM81.2 45.2H45.7v21.3h7.2v4.2h3.5v2.9h14.2v-2.9H74v-4.2h7.2zM81.2 14.6H74v-4.3h-3.4V7.5H56.4v2.8h-3.5v4.3h-7.2v21.2h35.5zM119.3 45.2H83.9v21.3h7.2v4.2h3.4v2.9h14.2v-2.9h3.4v-4.2h7.2zM119.3 14.6h-7.2v-4.3h-3.4V7.5H94.5v2.8h-3.4v4.3h-7.2v21.2h35.4zM157.6 45.2h-35.4v21.3h7.2v4.2h3.4v2.9H147v-2.9h3.4v-4.2h7.2zM157.6 14.6h-7.2v-4.3H147V7.5h-14.2v2.8h-3.4v4.3h-7.2v21.2h35.4zM196 45.2h-35.4v21.3h7.2v4.2h3.4v2.9h14.2v-2.9h3.4v-4.2h7.2zM196 14.6h-7.2v-4.3h-3.4V7.5h-14.2v2.8h-3.4v4.3h-7.2v21.2H196zM234.2 45.2h-35.4v21.3h7.2v4.2h3.4v2.9h14.2v-2.9h3.4v-4.2h7.2zM234.2 14.6H227v-4.3h-3.4V7.5h-14.2v2.8H206v4.3h-7.2v21.2h35.4z"/></g></svg>