<svg xmlns="http://www.w3.org/2000/svg" width="241.5" height="69.3">
    <style>
        .st1 {
            fill: #343e43
        }

        .st2 {
            fill: #5d696f
        }

        .st3 {
            fill: #fff89e
        }

        .st4 {
            fill: #f7f8f8
        }

    </style>
    <g id="XMLID_1_">
        <g id="XMLID_2_">
            <g id="XMLID_282_">
                <path id="XMLID_286_" fill="#dcdddd"
                    d="M240.5 68.3h-39.9v-1.5h-1.3v1.5h-5.7v-1.5h-1.4v1.5h-29.6v-1.5h-1.3v1.5h-5.6v-1.5h-1.5v1.5h-29.4v-1.5h-1.4v1.5h-5.7v-1.5h-1.4v1.5H86.8v-1.5h-1.4v1.5h-5.7v-1.5h-1.5v1.5H48.7v-1.5h-1.4v1.5h-5.6v-1.5h-1.5v1.5H1V55.6h1.4v-1.4H1v-5.4h1.4v-1.4H1V22h1.4v-1.4H1v-5.5h1.4v-1.5H1V1h39.2v1.4h1.5V1h5.6v1.4h1.4V1h29.5v1.4h1.5V1h5.7v1.4h1.4V1h29.5v1.4h1.4V1h5.7v1.4h1.4V1h29.4v1.4h1.5V1h5.6v1.4h1.3V1h29.6v1.4h1.4V1h5.7v1.4h1.3V1h39.9v12.6H239v1.5h1.5v5.4H239v1.4h1.5v25.2H239v1.4h1.5v5.7H239v1.4h1.5z" />
                <path id="XMLID_283_"
                    d="M241.5 69.3H0V0h241.5v69.3zm-39.9-2h37.9V56.6H238v-3.4h1.5v-3.7H238v-3.4h1.5V22.9H238v-3.4h1.5v-3.4H238v-3.5h1.5V2h-37.9v1.4h-3.3V2h-3.7v1.4h-3.4V2h-27.6v1.4h-3.3V2h-3.6v1.4h-3.5V2h-27.4v1.4h-3.4V2h-3.7v1.4h-3.4V2H87.8v1.4h-3.4V2h-3.7v1.4h-3.5V2H49.7v1.4h-3.4V2h-3.6v1.4h-3.5V2H2v10.6h1.4v3.5H2v3.5h1.4V23H2v23.4h1.4v3.4H2v3.4h1.4v3.4H2v10.7h37.2v-1.5h3.5v1.5h3.6v-1.5h3.4v1.5h27.5v-1.5h3.5v1.5h3.7v-1.5h3.4v1.5h27.5v-1.5h3.4v1.5h3.7v-1.5h3.4v1.5h27.4v-1.5h3.5v1.5h3.6v-1.5h3.3v1.5h27.6v-1.5h3.4v1.5h3.7v-1.5h3.3v1.5z" />
            </g>
            <g id="XMLID_125_">
                <g id="interface_2_up_1_">
                    <path id="XMLID_281_" d="M43.5 8.1h-7.2V3.9H33V1.1H18.9v2.8h-3.4v4.2H8.4v21h35.1z" />
                    <path id="XMLID_280_" class="st1" d="M9.6 29.1h32.5v-21h-5.8V3.9H33V1.1H18.9v2.8h-3.4v4.2H9.6z" />
                    <path id="XMLID_279_" class="st2" d="M16.6 5.1h18.5v.3H16.6z" />
                    <path id="XMLID_278_" d="M16.6 5.5h18.5v10.2H16.6z" />
                    <path id="XMLID_277_" d="M11.4 20.8h29.2v8.1H11.4z" />
                    <path id="XMLID_276_" class="st3" d="M23.6 23.1h1.2v6h-1.2z" />
                    <path id="XMLID_275_" class="st3" d="M20.4 23.1h1.2v6h-1.2z" />
                    <path id="XMLID_274_" class="st3" d="M16.9 23.1h1.2v6h-1.2z" />
                    <path id="XMLID_273_" class="st3" d="M13.7 23.1h1.2v6h-1.2z" />
                    <path id="XMLID_272_" class="st3" d="M36.8 23.1H38v6h-1.2z" />
                    <path id="XMLID_271_" class="st3" d="M33.5 23.1h1.2v6h-1.2z" />
                    <path id="XMLID_270_" class="st3" d="M30.3 23.1h1.2v6h-1.2z" />
                    <path id="XMLID_269_" class="st3" d="M26.8 23.1H28v6h-1.2z" />
                </g>
                <g id="interface_4_up_1_">
                    <path id="XMLID_268_" d="M81.5 8.1h-7.3V3.9h-3.4V1.1H56.9v2.8h-3.4v4.2h-7.3v21h35.3z" />
                    <path id="XMLID_267_" class="st1"
                        d="M47.6 29.1h32.5v-21h-5.9V3.9h-3.4l.2-2.8H56.9v2.8h-3.4v4.2h-6z" />
                    <path id="XMLID_266_" class="st2" d="M54.6 5.1h18.6v.3H54.6z" />
                    <path id="XMLID_265_" d="M54.6 5.5h18.6v10.2H54.6z" />
                    <path id="XMLID_264_" d="M49.2 20.8h29.2v8.1H49.2z" />
                    <path id="XMLID_263_" class="st3" d="M61.6 23.1h1.2v6h-1.2z" />
                    <path id="XMLID_262_" class="st3" d="M58.2 23.1h1.2v6h-1.2z" />
                    <path id="XMLID_261_" class="st3" d="M55 23.1h1.2v6H55z" />
                    <path id="XMLID_260_" class="st3" d="M51.7 23.1h1.2v6h-1.2z" />
                    <path id="XMLID_259_" class="st3" d="M74.8 23.1H76v6h-1.2z" />
                    <path id="XMLID_258_" class="st3" d="M71.5 23.1h1.2v6h-1.2z" />
                    <path id="XMLID_257_" class="st3" d="M68.2 23.1h1.2v6h-1.2z" />
                    <path id="XMLID_256_" class="st3" d="M64.8 23.1H66v6h-1.2z" />
                </g>
                <g id="interface_6_up_1_">
                    <path id="XMLID_255_" d="M119.3 8.1h-7.2V3.9h-3.4V1.1h-14v2.8h-3.3v4.2h-7.3v21h35.2z" />
                    <path id="XMLID_254_" class="st1"
                        d="M85.5 29.1H118v-21h-5.9V3.9h-3.4l.1-2.8H94.7v2.8h-3.3v4.2h-6z" />
                    <path id="XMLID_253_" class="st2" d="M92.4 5.1h18.5v.3H92.4z" />
                    <path id="XMLID_252_" d="M92.4 5.5h18.5v10.2H92.4z" />
                    <path id="XMLID_251_" d="M87.1 20.8h29.2v8.1H87.1z" />
                    <path id="XMLID_250_" class="st3" d="M99.5 23.1h1.2v6h-1.2z" />
                    <path id="XMLID_249_" class="st3" d="M96.1 23.1h1.2v6h-1.2z" />
                    <path id="XMLID_248_" class="st3" d="M92.9 23.1h1.2v6h-1.2z" />
                    <path id="XMLID_247_" class="st3" d="M89.5 23.1h1.2v6h-1.2z" />
                    <path id="XMLID_246_" class="st3" d="M112.8 23.1h1.2v6h-1.2z" />
                    <path id="XMLID_245_" class="st3" d="M109.4 23.1h1.2v6h-1.2z" />
                    <path id="XMLID_244_" class="st3" d="M106.1 23.1h1.2v6h-1.2z" />
                    <path id="XMLID_243_" class="st3" d="M102.8 23.1h1.2v6h-1.2z" />
                </g>
                <g id="interface_8_up_1_">
                    <path id="XMLID_242_" d="M157.3 8.1h-7.1V3.9h-3.4V1.1h-14.1v2.8h-3.3v4.2h-7.2v21h35.1z" />
                    <path id="XMLID_241_" class="st1"
                        d="M123.5 29.1h32.4v-21h-5.7V3.9h-3.4V1.1h-14.1v2.8h-3.3v4.2h-5.9z" />
                    <path id="XMLID_240_" class="st2" d="M130.4 5.1h18.5v.3h-18.5z" />
                    <path id="XMLID_239_" d="M130.4 5.5h18.5v10.2h-18.5z" />
                    <path id="XMLID_238_" d="M125.2 20.8h29.2v8.1h-29.2z" />
                    <path id="XMLID_237_" class="st3" d="M137.5 23.1h1.2v6h-1.2z" />
                    <path id="XMLID_236_" class="st3" d="M134.2 23.1h1.2v6h-1.2z" />
                    <path id="XMLID_235_" class="st3" d="M131 23.1h1.2v6H131z" />
                    <path id="XMLID_234_" class="st3" d="M127.7 23.1h1.2v6h-1.2z" />
                    <path id="XMLID_233_" class="st3" d="M150.8 23.1h1.2v6h-1.2z" />
                    <path id="XMLID_232_" class="st3" d="M147.4 23.1h1.2v6h-1.2z" />
                    <path id="XMLID_231_" class="st3" d="M144.2 23.1h1.2v6h-1.2z" />
                    <path id="XMLID_230_" class="st3" d="M140.9 23.1h1.2v6h-1.2z" />
                </g>
                <g id="interface_10_up_1_">
                    <path id="XMLID_229_" d="M195.3 8.1h-7V3.9h-3.5V1.1h-14.1v2.8h-3.3v4.2h-7.2v21h35.1z" />
                    <path id="XMLID_228_" class="st1"
                        d="M161.5 29.1h32.4v-21h-5.6V3.9h-3.5V1.1h-14.1v2.8h-3.3v4.2h-5.9z" />
                    <path id="XMLID_227_" class="st2" d="M168.5 5.1H187v.3h-18.5z" />
                    <path id="XMLID_226_" d="M168.5 5.5H187v10.2h-18.5z" />
                    <path id="XMLID_225_" d="M163.2 20.8h29.2v8.1h-29.2z" />
                    <path id="XMLID_224_" class="st3" d="M175.6 23.1h1.2v6h-1.2z" />
                    <path id="XMLID_223_" class="st3" d="M172.2 23.1h1.2v6h-1.2z" />
                    <path id="XMLID_222_" class="st3" d="M169 23.1h1.2v6H169z" />
                    <path id="XMLID_221_" class="st3" d="M165.7 23.1h1.2v6h-1.2z" />
                    <path id="XMLID_220_" class="st3" d="M188.7 23.1h1.2v6h-1.2z" />
                    <path id="XMLID_219_" class="st3" d="M185.4 23.1h1.2v6h-1.2z" />
                    <path id="XMLID_218_" class="st3" d="M182.2 23.1h1.2v6h-1.2z" />
                    <path id="XMLID_217_" class="st3" d="M178.8 23.1h1.2v6h-1.2z" />
                </g>
                <g id="interface_12_up_1_">
                    <path id="XMLID_216_" d="M233.3 8.1h-7.1V3.9h-3.4V1.1h-14.1v2.8h-3.4v4.2h-7.2v21h35.2z" />
                    <path id="XMLID_215_" class="st1"
                        d="M199.5 29.1h32.4v-21h-5.7V3.9h-3.4V1.1h-14.1v2.8h-3.4v4.2h-5.8z" />
                    <path id="XMLID_214_" class="st2" d="M206.5 5.1H225v.3h-18.5z" />
                    <path id="XMLID_213_" d="M206.5 5.5H225v10.2h-18.5z" />
                    <path id="XMLID_212_" d="M201.1 20.8h29.2v8.1h-29.2z" />
                    <path id="XMLID_211_" class="st3" d="M213.5 23.1h1.2v6h-1.2z" />
                    <path id="XMLID_210_" class="st3" d="M210.1 23.1h1.2v6h-1.2z" />
                    <path id="XMLID_209_" class="st3" d="M206.9 23.1h1.2v6h-1.2z" />
                    <path id="XMLID_208_" class="st3" d="M203.6 23.1h1.2v6h-1.2z" />
                    <path id="XMLID_207_" class="st3" d="M226.7 23.1h1.2v6h-1.2z" />
                    <path id="XMLID_206_" class="st3" d="M223.4 23.1h1.2v6h-1.2z" />
                    <path id="XMLID_205_" class="st3" d="M220 23.1h1.2v6H220z" />
                    <path id="XMLID_204_" class="st3" d="M216.8 23.1h1.2v6h-1.2z" />
                </g>
                <g id="interface_1_down_1_">
                    <path id="XMLID_203_" d="M43.5 61.2h-7.2v4.2H33v2.7H18.9v-2.7h-3.4v-4.2H8.4V40.1h35.1z" />
                    <path id="XMLID_202_" class="st1" d="M9.6 40.2h32.5v21h-5.8v4.2H33v2.7H18.9v-2.7h-3.4v-4.2H9.6z" />
                    <path id="XMLID_201_" class="st2" d="M16.6 63.8h18.5v.3H16.6z" />
                    <path id="XMLID_200_" d="M16.6 53.6h18.5v10.2H16.6z" />
                    <path id="XMLID_199_" d="M11.4 40.2h29.2v8.1H11.4z" />
                    <path id="XMLID_198_" class="st3" d="M23.6 40.2h1.2v6h-1.2z" />
                    <path id="XMLID_197_" class="st3" d="M20.4 40.2h1.2v6h-1.2z" />
                    <path id="XMLID_196_" class="st3" d="M16.9 40.2h1.2v6h-1.2z" />
                    <path id="XMLID_195_" class="st3" d="M13.7 40.2h1.2v6h-1.2z" />
                    <path id="XMLID_194_" class="st3" d="M36.8 40.2H38v6h-1.2z" />
                    <path id="XMLID_193_" class="st3" d="M33.5 40.2h1.2v6h-1.2z" />
                    <path id="XMLID_192_" class="st3" d="M30.3 40.2h1.2v6h-1.2z" />
                    <path id="XMLID_191_" class="st3" d="M26.8 40.2H28v6h-1.2z" />
                </g>
                <g id="interface_3_down_1_">
                    <path id="XMLID_190_" d="M81.5 61.2h-7.3v4.2h-3.4v2.7H56.9v-2.7h-3.4v-4.2h-7.3V40.1h35.3z" />
                    <path id="XMLID_189_" class="st1"
                        d="M47.6 40.2h32.5v21h-5.9v4.2h-3.4l.2 2.7H56.9v-2.7h-3.4v-4.2h-6z" />
                    <path id="XMLID_188_" class="st2" d="M54.6 63.8h18.6v.3H54.6z" />
                    <path id="XMLID_187_" d="M54.6 53.6h18.6v10.2H54.6z" />
                    <path id="XMLID_186_" d="M49.2 40.2h29.2v8.1H49.2z" />
                    <path id="XMLID_185_" class="st3" d="M61.6 40.2h1.2v6h-1.2z" />
                    <path id="XMLID_184_" class="st3" d="M58.2 40.2h1.2v6h-1.2z" />
                    <path id="XMLID_183_" class="st3" d="M55 40.2h1.2v6H55z" />
                    <path id="XMLID_182_" class="st3" d="M51.7 40.2h1.2v6h-1.2z" />
                    <path id="XMLID_181_" class="st3" d="M74.8 40.2H76v6h-1.2z" />
                    <path id="XMLID_180_" class="st3" d="M71.5 40.2h1.2v6h-1.2z" />
                    <path id="XMLID_179_" class="st3" d="M68.2 40.2h1.2v6h-1.2z" />
                    <path id="XMLID_178_" class="st3" d="M64.8 40.2H66v6h-1.2z" />
                </g>
                <g id="interface_5_down_1_">
                    <path id="XMLID_177_" d="M119.3 61.2h-7.2v4.2h-3.4v2.7h-14v-2.7h-3.3v-4.2h-7.3V40.1h35.2z" />
                    <path id="XMLID_176_" class="st1"
                        d="M85.5 40.2H118v21h-5.9v4.2h-3.4l.1 2.7H94.7v-2.7h-3.3v-4.2h-6z" />
                    <path id="XMLID_175_" class="st2" d="M92.4 63.8h18.5v.3H92.4z" />
                    <path id="XMLID_174_" d="M92.4 53.6h18.5v10.2H92.4z" />
                    <path id="XMLID_173_" d="M87.1 40.2h29.2v8.1H87.1z" />
                    <path id="XMLID_172_" class="st3" d="M99.5 40.2h1.2v6h-1.2z" />
                    <path id="XMLID_171_" class="st3" d="M96.1 40.2h1.2v6h-1.2z" />
                    <path id="XMLID_170_" class="st3" d="M92.9 40.2h1.2v6h-1.2z" />
                    <path id="XMLID_169_" class="st3" d="M89.5 40.2h1.2v6h-1.2z" />
                    <path id="XMLID_168_" class="st3" d="M112.8 40.2h1.2v6h-1.2z" />
                    <path id="XMLID_167_" class="st3" d="M109.4 40.2h1.2v6h-1.2z" />
                    <path id="XMLID_166_" class="st3" d="M106.1 40.2h1.2v6h-1.2z" />
                    <path id="XMLID_165_" class="st3" d="M102.8 40.2h1.2v6h-1.2z" />
                </g>
                <g id="interface_7_down_1_">
                    <path id="XMLID_164_" d="M157.3 61.2h-7.1v4.2h-3.4v2.7h-14.1v-2.7h-3.3v-4.2h-7.2V40.1h35.1z" />
                    <path id="XMLID_163_" class="st1"
                        d="M123.5 40.2h32.4v21h-5.7v4.2h-3.4v2.7h-14.1v-2.7h-3.3v-4.2h-5.9z" />
                    <path id="XMLID_162_" class="st2" d="M130.4 63.8h18.5v.3h-18.5z" />
                    <path id="XMLID_161_" d="M130.4 53.6h18.5v10.2h-18.5z" />
                    <path id="XMLID_160_" d="M125.2 40.2h29.2v8.1h-29.2z" />
                    <path id="XMLID_159_" class="st3" d="M137.5 40.2h1.2v6h-1.2z" />
                    <path id="XMLID_158_" class="st3" d="M134.2 40.2h1.2v6h-1.2z" />
                    <path id="XMLID_157_" class="st3" d="M131 40.2h1.2v6H131z" />
                    <path id="XMLID_156_" class="st3" d="M127.7 40.2h1.2v6h-1.2z" />
                    <path id="XMLID_155_" class="st3" d="M150.8 40.2h1.2v6h-1.2z" />
                    <path id="XMLID_154_" class="st3" d="M147.4 40.2h1.2v6h-1.2z" />
                    <path id="XMLID_153_" class="st3" d="M144.2 40.2h1.2v6h-1.2z" />
                    <path id="XMLID_152_" class="st3" d="M140.9 40.2h1.2v6h-1.2z" />
                </g>
                <g id="interface_9_down_1_">
                    <path id="XMLID_151_" d="M195.3 61.2h-7v4.2h-3.5v2.7h-14.1v-2.7h-3.3v-4.2h-7.2V40.1h35.1z" />
                    <path id="XMLID_150_" class="st1"
                        d="M161.5 40.2h32.4v21h-5.6v4.2h-3.5v2.7h-14.1v-2.7h-3.3v-4.2h-5.9z" />
                    <path id="XMLID_149_" class="st2" d="M168.5 63.8H187v.3h-18.5z" />
                    <path id="XMLID_148_" d="M168.5 53.6H187v10.2h-18.5z" />
                    <path id="XMLID_147_" d="M163.2 40.2h29.2v8.1h-29.2z" />
                    <path id="XMLID_146_" class="st3" d="M175.6 40.2h1.2v6h-1.2z" />
                    <path id="XMLID_145_" class="st3" d="M172.2 40.2h1.2v6h-1.2z" />
                    <path id="XMLID_144_" class="st3" d="M169 40.2h1.2v6H169z" />
                    <path id="XMLID_143_" class="st3" d="M165.7 40.2h1.2v6h-1.2z" />
                    <path id="XMLID_142_" class="st3" d="M188.7 40.2h1.2v6h-1.2z" />
                    <path id="XMLID_141_" class="st3" d="M185.4 40.2h1.2v6h-1.2z" />
                    <path id="XMLID_140_" class="st3" d="M182.2 40.2h1.2v6h-1.2z" />
                    <path id="XMLID_139_" class="st3" d="M178.8 40.2h1.2v6h-1.2z" />
                </g>
                <g id="interface_11_down_1_">
                    <path id="XMLID_138_" d="M233.3 61.2h-7.1v4.2h-3.4v2.7h-14.1v-2.7h-3.4v-4.2h-7.2V40.1h35.2z" />
                    <path id="XMLID_137_" class="st1"
                        d="M199.5 40.2h32.4v21h-5.7v4.2h-3.4v2.7h-14.1v-2.7h-3.4v-4.2h-5.8z" />
                    <path id="XMLID_136_" class="st2" d="M206.5 63.8H225v.3h-18.5z" />
                    <path id="XMLID_135_" d="M206.5 53.6H225v10.2h-18.5z" />
                    <path id="XMLID_134_" d="M201.1 40.2h29.2v8.1h-29.2z" />
                    <path id="XMLID_133_" class="st3" d="M213.5 40.2h1.2v6h-1.2z" />
                    <path id="XMLID_132_" class="st3" d="M210.1 40.2h1.2v6h-1.2z" />
                    <path id="XMLID_131_" class="st3" d="M206.9 40.2h1.2v6h-1.2z" />
                    <path id="XMLID_130_" class="st3" d="M203.6 40.2h1.2v6h-1.2z" />
                    <path id="XMLID_129_" class="st3" d="M226.7 40.2h1.2v6h-1.2z" />
                    <path id="XMLID_128_" class="st3" d="M223.4 40.2h1.2v6h-1.2z" />
                    <path id="XMLID_127_" class="st3" d="M220 40.2h1.2v6H220z" />
                    <path id="XMLID_126_" class="st3" d="M216.8 40.2h1.2v6h-1.2z" />
                </g>
            </g>
            <g id="XMLID_64_">
                <g id="XMLID_120_">
                    <path id="XMLID_124_" class="st4" d="M6.8 4.3h6.9V7H6.8z" />
                    <path id="XMLID_121_" d="M13.9 7.2H6.5V4h7.4v3.2zM7 6.7h6.4V4.5H7v2.2z" />
                </g>
                <g id="XMLID_115_">
                    <path id="XMLID_119_" class="st4" d="M37.7 4.3h6.9V7h-6.9z" />
                    <path id="XMLID_116_" d="M44.7 7.2h-7.4V4h7.4v3.2zm-6.8-.5h6.4V4.5h-6.4v2.2z" />
                </g>
                <g id="XMLID_110_">
                    <path id="XMLID_114_" class="st4" d="M45.5 4.3h6.9V7h-6.9z" />
                    <path id="XMLID_111_" d="M52.7 7.2h-7.4V4h7.4v3.2zm-6.9-.5h6.4V4.5h-6.4v2.2z" />
                </g>
                <g id="XMLID_105_">
                    <path id="XMLID_109_" class="st4" d="M75.6 4.3h6.9V7h-6.9z" />
                    <path id="XMLID_106_" d="M82.7 7.2h-7.4V4h7.4v3.2zm-6.9-.5h6.4V4.5h-6.4v2.2z" />
                </g>
                <g id="XMLID_100_">
                    <path id="XMLID_104_" class="st4" d="M83.5 4.3h6.9V7h-6.9z" />
                    <path id="XMLID_101_" d="M90.5 7.2h-7.4V4h7.4v3.2zm-6.8-.5h6.4V4.5h-6.4v2.2z" />
                </g>
                <g id="XMLID_95_">
                    <path id="XMLID_99_" class="st4" d="M113.4 4.3h6.9V7h-6.9z" />
                    <path id="XMLID_96_" d="M120.5 7.2h-7.4V4h7.4v3.2zm-6.9-.5h6.4V4.5h-6.4v2.2z" />
                </g>
                <g id="XMLID_90_">
                    <path id="XMLID_94_" class="st4" d="M121.2 4.3h6.9V7h-6.9z" />
                    <path id="XMLID_91_" d="M128.4 7.2H121V4h7.4v3.2zm-6.9-.5h6.4V4.5h-6.4v2.2z" />
                </g>
                <g id="XMLID_85_">
                    <path id="XMLID_89_" class="st4" d="M151.3 4.3h6.9V7h-6.9z" />
                    <path id="XMLID_86_" d="M158.3 7.2h-7.4V4h7.4v3.2zm-6.8-.5h6.4V4.5h-6.4v2.2z" />
                </g>
                <g id="XMLID_80_">
                    <path id="XMLID_84_" class="st4" d="M159.2 4.3h6.9V7h-6.9z" />
                    <path id="XMLID_81_" d="M166.3 7.2h-7.4V4h7.4v3.2zm-7-.5h6.4V4.5h-6.4v2.2z" />
                </g>
                <g id="XMLID_75_">
                    <path id="XMLID_79_" class="st4" d="M189.4 4.3h6.9V7h-6.9z" />
                    <path id="XMLID_76_" d="M196.5 7.2h-7.4V4h7.4v3.2zm-6.9-.5h6.4V4.5h-6.4v2.2z" />
                </g>
                <g id="XMLID_70_">
                    <path id="XMLID_74_" class="st4" d="M197.2 4.3h6.9V7h-6.9z" />
                    <path id="XMLID_71_" d="M204.4 7.2H197V4h7.4v3.2zm-6.9-.5h6.4V4.5h-6.4v2.2z" />
                </g>
                <g id="XMLID_65_">
                    <path id="XMLID_69_" class="st4" d="M228.5 4.3h6.9V7h-6.9z" />
                    <path id="XMLID_66_" d="M235.5 7.2h-7.4V4h7.4v3.2zm-6.8-.5h6.4V4.5h-6.4v2.2z" />
                </g>
            </g>
            <g id="XMLID_3_">
                <g id="XMLID_59_">
                    <path id="XMLID_63_" class="st4" d="M6.1 62.5H13v2.7H6.1z" />
                    <path id="XMLID_60_" d="M13.2 65.4H5.8v-3.2h7.4v3.2zm-6.9-.5h6.4v-2.2H6.3v2.2z" />
                </g>
                <g id="XMLID_54_">
                    <path id="XMLID_58_" class="st4" d="M37.6 62.5h6.9v2.7h-6.9z" />
                    <path id="XMLID_55_" d="M44.7 65.4h-7.4v-3.2h7.4v3.2zm-6.8-.5h6.4v-2.2h-6.4v2.2z" />
                </g>
                <g id="XMLID_49_">
                    <path id="XMLID_53_" class="st4" d="M45.5 62.5h6.9v2.7h-6.9z" />
                    <path id="XMLID_50_" d="M52.6 65.4h-7.4v-3.2h7.4v3.2zm-6.8-.5h6.4v-2.2h-6.4v2.2z" />
                </g>
                <g id="XMLID_44_">
                    <path id="XMLID_48_" class="st4" d="M75.2 62.5h6.9v2.7h-6.9z" />
                    <path id="XMLID_45_" d="M82.3 65.4h-7.4v-3.2h7.4v3.2zm-6.9-.5h6.4v-2.2h-6.4v2.2z" />
                </g>
                <g id="XMLID_39_">
                    <path id="XMLID_43_" class="st4" d="M83.1 62.5H90v2.7h-6.9z" />
                    <path id="XMLID_40_" d="M90.1 65.4h-7.4v-3.2h7.4v3.2zm-6.8-.5h6.4v-2.2h-6.4v2.2z" />
                </g>
                <g id="XMLID_34_">
                    <path id="XMLID_38_" class="st4" d="M113.3 62.5h6.9v2.7h-6.9z" />
                    <path id="XMLID_35_" d="M120.4 65.4H113v-3.2h7.4v3.2zm-6.9-.5h6.4v-2.2h-6.4v2.2z" />
                </g>
                <g id="XMLID_29_">
                    <path id="XMLID_33_" class="st4" d="M121.1 62.5h6.9v2.7h-6.9z" />
                    <path id="XMLID_30_" d="M128.3 65.4h-7.4v-3.2h7.4v3.2zm-6.9-.5h6.4v-2.2h-6.4v2.2z" />
                </g>
                <g id="XMLID_24_">
                    <path id="XMLID_28_" class="st4" d="M151.3 62.5h6.9v2.7h-6.9z" />
                    <path id="XMLID_25_" d="M158.3 65.4h-7.4v-3.2h7.4v3.2zm-6.8-.5h6.4v-2.2h-6.4v2.2z" />
                </g>
                <g id="XMLID_19_">
                    <path id="XMLID_23_" class="st4" d="M159.2 62.5h6.9v2.7h-6.9z" />
                    <path id="XMLID_20_" d="M166.3 65.4h-7.4v-3.2h7.4v3.2zm-7-.5h6.4v-2.2h-6.4v2.2z" />
                </g>
                <g id="XMLID_14_">
                    <path id="XMLID_18_" class="st4" d="M189.5 62.5h6.9v2.7h-6.9z" />
                    <path id="XMLID_15_" d="M196.6 65.4h-7.4v-3.2h7.4v3.2zm-6.9-.5h6.4v-2.2h-6.4v2.2z" />
                </g>
                <g id="XMLID_9_">
                    <path id="XMLID_13_" class="st4" d="M197.3 62.5h6.9v2.7h-6.9z" />
                    <path id="XMLID_10_" d="M204.5 65.4h-7.4v-3.2h7.4v3.2zm-6.9-.5h6.4v-2.2h-6.4v2.2z" />
                </g>
                <g id="XMLID_4_">
                    <path id="XMLID_8_" class="st4" d="M227.8 62.5h6.9v2.7h-6.9z" />
                    <path id="XMLID_5_" d="M234.8 65.4h-7.4v-3.2h7.4v3.2zm-6.8-.5h6.4v-2.2H228v2.2z" />
                </g>
            </g>
        </g>
    </g>
    <path id="${ID}" d="M43.5 8.1h-7.2V3.7H33V.8H18.9v2.9h-3.4v4.4H8.4v21.7h35.1z" />
    <path id="${ID}" d="M43.5 39.8H8.4v21.5h7.1v4.2h3.4v3H33v-3h3.3v-4.2h7.2z" />
    <path id="${ID}" d="M81.5 8.1h-7.2V3.7h-3.4V.8H56.8v2.9h-3.4v4.4h-7.1v21.7h35.2z" />
    <path id="${ID}" d="M81.4 39.8H46.2v21.5h7.1v4.2h3.4v3h14.1v-3h3.4v-4.2h7.2z" />
    <path id="${ID}" d="M119.4 8.1h-7.3V3.7h-3.4V.8H94.8v2.9h-3.5v4.4h-7.2v21.7h35.3z" />
    <path id="${ID}" d="M119.4 39.8H84.1v21.5h7.2v4.2h3.5v3h13.9v-3h3.4v-4.2h7.3z" />
    <path id="${ID}" d="M157.4 8.1h-7.2V3.7h-3.3V.8h-14.1v2.9h-3.4v4.4h-7.1v21.7h35.1z" />
    <path id="${ID}" d="M157.3 39.8h-35.1v21.5h7.1v4.2h3.4v3h14.1v-3h3.3v-4.2h7.2z" />
    <path id="${ID}" d="M195.4 8.1h-7.2V3.7h-3.5V.8h-13.9v2.9h-3.4v4.4h-7.3v21.7h35.3z" />
    <path id="${ID}" d="M195.5 39.8h-35.3v21.5h7.3v4.2h3.4v3h13.9v-3h3.5v-4.2h7.2z" />
    <path id="${ID}" d="M233.4 8.1h-7.2V3.7h-3.4V.8h-14v2.9h-3.5v4.4h-7.2v21.7h35.3z" />
    <path id="${ID}" d="M233.4 39.8h-35.3v21.5h7.2v4.2h3.5v3h14v-3h3.4v-4.2h7.2z" />
</svg>
