<svg xmlns="http://www.w3.org/2000/svg" width="315.6" height="81"><path fill="#DDDDDE" d="M2 1.7h311.7v77.6H2z"/><path fill="#070001" d="M315.6 81H0V0h315.6v81zM3.9 77.6h307.8V3.4H3.9v74.2z"/><path fill="#FFF" d="M3 3.8h40.1v31.6H3z"/><path fill="#FFF" d="M41.4 3.8h40.1v31.6H41.4z"/><path fill="#FFF" d="M79.9 3.8H120v31.6H79.9z"/><path fill="#FFF" d="M118.3 3.8h40.1v31.6h-40.1z"/><path fill="#FFF" d="M156.8 3.8h40v31.6h-40z"/><path fill="#FFF" d="M195.2 3.8h40.1v31.6h-40.1zM3 77.6h40.1V45.9H3z"/><path fill="#FFF" d="M41.4 77.6h40.1V45.9H41.4z"/><path fill="#FFF" d="M79.9 77.6H120V45.9H79.9z"/><path fill="#FFF" d="M118.3 77.6h40.1V45.9h-40.1z"/><path fill="#FFF" d="M156.8 77.6h40V45.9h-40z"/><path fill="#FFF" d="M195.2 77.6h40.1V45.9h-40.1zM235.3 3.4h40v31.7h-40z"/><path fill="#FFF" d="M273.7 3.4h40.1v31.7h-40.1zM235.3 77.6h40v-32h-40z"/><path fill="#FFF" d="M273.7 77.6h40.1v-32h-40.1z"/><g><path fill="#040000" d="M41.5 14.1h-7.3V9.9h-3.4V7H16.7v2.9h-3.4v4.2H6v21.3h35.5z"/><path fill="#343E43" d="M7.4 35.2h32.7V14.1h-5.9V9.9h-3.4l.1-2.9H16.7v2.9h-3.4v4.2h-6z"/><path fill="#5C686E" d="M14.4 11.1h18.7v.4H14.4z"/><path fill="#040000" d="M14.4 11.6h18.7v10.2H14.4zM9 27.1h29.4v8.2H9z"/><path fill="#F9F29E" d="M21.5 29.2h1.2v6h-1.2zM18.1 29.2h1.2v6h-1.2zM14.8 29.2H16v6h-1.2zM11.5 29.2h1.2v6h-1.2zM34.8 29.2H36v6h-1.2zM31.5 29.2h1.2v6h-1.2zM28.1 29.2h1.2v6h-1.2zM24.8 29.2H26v6h-1.2z"/><path fill="#040000" d="M79.7 14.1h-7.2V9.9h-3.4V7H54.9v2.9h-3.4v4.2h-7.2v21.3h35.4z"/><path fill="#343E43" d="M45.6 35.2h32.8V14.1h-5.9V9.9h-3.4V7H55l-.1 2.9h-3.4v4.2h-5.9z"/><path fill="#5C686E" d="M52.6 11.1h18.6v.4H52.6z"/><path fill="#040000" d="M52.6 11.6h18.6v10.2H52.6zM47.3 27.1h29.4v8.2H47.3z"/><path fill="#F9F29E" d="M59.7 29.2h1.2v6h-1.2zM56.4 29.2h1.2v6h-1.2zM53.1 29.2h1.2v6h-1.2zM49.7 29.2h1.2v6h-1.2zM73.1 29.2h1.2v6h-1.2zM69.7 29.2h1.2v6h-1.2zM66.4 29.2h1.2v6h-1.2zM63.1 29.2h1.2v6h-1.2z"/><g><path fill="#040000" d="M117.9 14.1h-7.2V9.9h-3.4V7H93.1v2.9h-3.4v4.2h-7.2v21.3h35.4z"/><path fill="#343E43" d="M83.8 35.2h32.8V14.1h-5.9V9.9h-3.4V7H93.2l-.1 2.9h-3.4v4.2h-5.9z"/><path fill="#5C686E" d="M90.8 11.1h18.6v.4H90.8z"/><path fill="#040000" d="M90.8 11.6h18.6v10.2H90.8zM85.5 27.1h29.4v8.2H85.5z"/><path fill="#F9F29E" d="M97.9 29.2h1.2v6h-1.2zM94.6 29.2h1.2v6h-1.2zM91.3 29.2h1.2v6h-1.2zM87.9 29.2h1.2v6h-1.2zM111.3 29.2h1.2v6h-1.2zM107.9 29.2h1.2v6h-1.2zM104.6 29.2h1.2v6h-1.2zM101.3 29.2h1.2v6h-1.2z"/></g><g><path fill="#040000" d="M156.3 14.1h-7.2V9.9h-3.5V7h-14.1v2.9h-3.4v4.2h-7.3v21.3h35.5z"/><path fill="#343E43" d="M122.2 35.2h32.7V14.1h-5.8V9.9h-3.5l.1-2.9h-14.2v2.9h-3.4v4.2h-5.9z"/><path fill="#5C686E" d="M129.2 11.1h18.6v.4h-18.6z"/><path fill="#040000" d="M129.2 11.6h18.6v10.2h-18.6zM123.8 27.1h29.4v8.2h-29.4z"/><path fill="#F9F29E" d="M136.3 29.2h1.2v6h-1.2zM133 29.2h1.2v6H133zM129.6 29.2h1.2v6h-1.2zM126.3 29.2h1.2v6h-1.2zM149.6 29.2h1.2v6h-1.2zM146.3 29.2h1.2v6h-1.2zM142.9 29.2h1.2v6h-1.2zM139.6 29.2h1.2v6h-1.2z"/></g><g><path fill="#040000" d="M194.6 14.1h-7.3V9.9h-3.4V7h-14.1v2.9h-3.4v4.2h-7.3v21.3h35.5z"/><path fill="#343E43" d="M160.5 35.2h32.7V14.1h-5.9V9.9h-3.4L184 7h-14.2v2.9h-3.4v4.2h-6z"/><path fill="#5C686E" d="M167.5 11.1h18.6v.4h-18.6z"/><path fill="#040000" d="M167.5 11.6h18.6v10.2h-18.6zM162.1 27.1h29.4v8.2h-29.4z"/><path fill="#F9F29E" d="M174.6 29.2h1.2v6h-1.2zM171.2 29.2h1.2v6h-1.2zM167.9 29.2h1.2v6h-1.2zM164.6 29.2h1.2v6h-1.2zM187.9 29.2h1.2v6h-1.2zM184.6 29.2h1.2v6h-1.2zM181.2 29.2h1.2v6h-1.2zM177.9 29.2h1.2v6h-1.2z"/></g><g><path fill="#040000" d="M232.8 14.1h-7.2V9.9h-3.4V7H208v2.9h-3.4v4.2h-7.2v21.3h35.4z"/><path fill="#343E43" d="M198.7 35.2h32.7V14.1h-5.8V9.9h-3.4V7H208v2.9h-3.4v4.2h-5.9z"/><path fill="#5C686E" d="M205.7 11.1h18.6v.4h-18.6z"/><path fill="#040000" d="M205.7 11.6h18.6v10.2h-18.6zM200.4 27.1h29.4v8.2h-29.4z"/><path fill="#F9F29E" d="M212.8 29.2h1.2v6h-1.2zM209.5 29.2h1.2v6h-1.2zM206.2 29.2h1.2v6h-1.2zM202.8 29.2h1.2v6h-1.2zM226.1 29.2h1.2v6h-1.2zM222.8 29.2h1.2v6h-1.2zM219.5 29.2h1.2v6h-1.2zM216.1 29.2h1.2v6h-1.2z"/></g><g><path fill="#040000" d="M270.3 14.1h-7.2V9.9h-3.4V7h-14.2v2.9h-3.4v4.2h-7.2v21.3h35.4z"/><path fill="#343E43" d="M236.2 35.2h32.7V14.1h-5.8V9.9h-3.4V7h-14.2v2.9h-3.4v4.2h-5.9z"/><path fill="#5C686E" d="M243.2 11.1h18.6v.4h-18.6z"/><path fill="#040000" d="M243.2 11.6h18.6v10.2h-18.6zM237.9 27.1h29.4v8.2h-29.4z"/><path fill="#F9F29E" d="M250.3 29.2h1.2v6h-1.2zM247 29.2h1.2v6H247zM243.7 29.2h1.2v6h-1.2zM240.3 29.2h1.2v6h-1.2zM263.6 29.2h1.2v6h-1.2zM260.3 29.2h1.2v6h-1.2zM257 29.2h1.2v6H257zM253.6 29.2h1.2v6h-1.2z"/></g><g><path fill="#040000" d="M308.5 14.1h-7.2V9.9h-3.4V7h-14.2v2.9h-3.4v4.2h-7.2v21.3h35.4z"/><path fill="#343E43" d="M274.5 35.2h32.7V14.1h-5.9V9.9h-3.4V7h-14.1l-.1 2.9h-3.4v4.2h-5.9z"/><path fill="#5C686E" d="M281.5 11.1h18.6v.4h-18.6z"/><path fill="#040000" d="M281.5 11.6h18.6v10.2h-18.6zM276.1 27.1h29.4v8.2h-29.4z"/><path fill="#F9F29E" d="M288.5 29.2h1.2v6h-1.2zM285.2 29.2h1.2v6h-1.2zM281.9 29.2h1.2v6h-1.2zM278.6 29.2h1.2v6h-1.2zM301.9 29.2h1.2v6h-1.2zM298.5 29.2h1.2v6h-1.2zM295.2 29.2h1.2v6h-1.2zM291.9 29.2h1.2v6h-1.2z"/></g><g><path fill="#040000" d="M270.3 67h-7.2v4.4h-3.4v2.8h-14.2v-2.8h-3.4V67h-7.2V45.9h35.4z"/><path fill="#343E43" d="M236.2 45.9h32.7V67h-5.8v4.4h-3.4v2.8h-14.2v-2.8h-3.4V67h-5.9z"/><path fill="#5C686E" d="M243.2 69.7h18.6v.4h-18.6z"/><path fill="#040000" d="M243.2 59.4h18.6v10.2h-18.6zM237.9 45.9h29.4v8.2h-29.4z"/><path fill="#F9F29E" d="M250.3 45.9h1.2v6h-1.2zM247 45.9h1.2v6H247zM243.7 45.9h1.2v6h-1.2zM240.3 45.9h1.2v6h-1.2zM263.6 45.9h1.2v6h-1.2zM260.3 45.9h1.2v6h-1.2zM257 45.9h1.2v6H257zM253.6 45.9h1.2v6h-1.2z"/></g><g><path fill="#040000" d="M308.5 67h-7.2v4.4h-3.4v2.8h-14.2v-2.8h-3.4V67h-7.2V45.9h35.4z"/><path fill="#343E43" d="M274.5 45.9h32.7V67h-5.9v4.4h-3.4v2.8h-14.1l-.1-2.8h-3.4V67h-5.9z"/><path fill="#5C686E" d="M281.5 69.7h18.6v.4h-18.6z"/><path fill="#040000" d="M281.5 59.4h18.6v10.2h-18.6zM276.1 45.9h29.4v8.2h-29.4z"/><path fill="#F9F29E" d="M288.5 45.9h1.2v6h-1.2zM285.2 45.9h1.2v6h-1.2zM281.9 45.9h1.2v6h-1.2zM278.6 45.9h1.2v6h-1.2zM301.9 45.9h1.2v6h-1.2zM298.5 45.9h1.2v6h-1.2zM295.2 45.9h1.2v6h-1.2zM291.9 45.9h1.2v6h-1.2z"/></g><g><path fill="#040000" d="M41.5 67.1h-7.3v4.4h-3.4v2.7H16.7v-2.7h-3.4v-4.4H6V45.9h35.5z"/><path fill="#343E43" d="M7.4 46h32.7v21.1h-5.9v4.4h-3.4l.1 2.7H16.7v-2.7h-3.4v-4.4h-6z"/><path fill="#5C686E" d="M14.4 69.7h18.7v.4H14.4z"/><path fill="#040000" d="M14.4 59.6h18.7v10.2H14.4zM9 46h29.4v8.2H9z"/><path fill="#F9F29E" d="M21.5 46h1.2v6h-1.2zM18.1 46h1.2v6h-1.2zM14.8 46H16v6h-1.2zM11.5 46h1.2v6h-1.2zM34.8 46H36v6h-1.2zM31.5 46h1.2v6h-1.2zM28.1 46h1.2v6h-1.2zM24.8 46H26v6h-1.2z"/></g><g><path fill="#040000" d="M79.7 67.1h-7.2v4.4h-3.4v2.7H54.9v-2.7h-3.4v-4.4h-7.2V45.9h35.4z"/><path fill="#343E43" d="M45.6 46h32.8v21.1h-5.9v4.4h-3.4v2.7H55l-.1-2.7h-3.4v-4.4h-5.9z"/><path fill="#5C686E" d="M52.6 69.7h18.6v.4H52.6z"/><path fill="#040000" d="M52.6 59.6h18.6v10.2H52.6zM47.3 46h29.4v8.2H47.3z"/><path fill="#F9F29E" d="M59.7 46h1.2v6h-1.2zM56.4 46h1.2v6h-1.2zM53.1 46h1.2v6h-1.2zM49.7 46h1.2v6h-1.2zM73.1 46h1.2v6h-1.2zM69.7 46h1.2v6h-1.2zM66.4 46h1.2v6h-1.2zM63.1 46h1.2v6h-1.2z"/></g><g><path fill="#040000" d="M117.9 67.1h-7.2v4.4h-3.4v2.7H93.1v-2.7h-3.4v-4.4h-7.2V45.9h35.4z"/><path fill="#343E43" d="M83.8 46h32.8v21.1h-5.9v4.4h-3.4v2.7H93.2l-.1-2.7h-3.4v-4.4h-5.9z"/><path fill="#5C686E" d="M90.8 69.7h18.6v.4H90.8z"/><path fill="#040000" d="M90.8 59.6h18.6v10.2H90.8zM85.5 46h29.4v8.2H85.5z"/><path fill="#F9F29E" d="M97.9 46h1.2v6h-1.2zM94.6 46h1.2v6h-1.2zM91.3 46h1.2v6h-1.2zM87.9 46h1.2v6h-1.2zM111.3 46h1.2v6h-1.2zM107.9 46h1.2v6h-1.2zM104.6 46h1.2v6h-1.2zM101.3 46h1.2v6h-1.2z"/></g><g><path fill="#040000" d="M156.3 67.1h-7.2v4.4h-3.5v2.7h-14.1v-2.7h-3.4v-4.4h-7.3V45.9h35.5z"/><path fill="#343E43" d="M122.2 46h32.7v21.1h-5.8v4.4h-3.5l.1 2.7h-14.2v-2.7h-3.4v-4.4h-5.9z"/><path fill="#5C686E" d="M129.2 69.7h18.6v.4h-18.6z"/><path fill="#040000" d="M129.2 59.6h18.6v10.2h-18.6zM123.8 46h29.4v8.2h-29.4z"/><path fill="#F9F29E" d="M136.3 46h1.2v6h-1.2zM133 46h1.2v6H133zM129.6 46h1.2v6h-1.2zM126.3 46h1.2v6h-1.2zM149.6 46h1.2v6h-1.2zM146.3 46h1.2v6h-1.2zM142.9 46h1.2v6h-1.2zM139.6 46h1.2v6h-1.2z"/></g><g><path fill="#040000" d="M194.6 67.1h-7.3v4.4h-3.4v2.7h-14.1v-2.7h-3.4v-4.4h-7.3V45.9h35.5z"/><path fill="#343E43" d="M160.5 46h32.7v21.1h-5.9v4.4h-3.4l.1 2.7h-14.2v-2.7h-3.4v-4.4h-6z"/><path fill="#5C686E" d="M167.5 69.7h18.6v.4h-18.6z"/><path fill="#040000" d="M167.5 59.6h18.6v10.2h-18.6zM162.1 46h29.4v8.2h-29.4z"/><path fill="#F9F29E" d="M174.6 46h1.2v6h-1.2zM171.2 46h1.2v6h-1.2zM167.9 46h1.2v6h-1.2zM164.6 46h1.2v6h-1.2zM187.9 46h1.2v6h-1.2zM184.6 46h1.2v6h-1.2zM181.2 46h1.2v6h-1.2zM177.9 46h1.2v6h-1.2z"/></g><g><path fill="#040000" d="M232.8 67.1h-7.2v4.4h-3.4v2.7H208v-2.7h-3.4v-4.4h-7.2V45.9h35.4z"/><path fill="#343E43" d="M198.7 46h32.7v21.1h-5.8v4.4h-3.4v2.7H208v-2.7h-3.4v-4.4h-5.9z"/><path fill="#5C686E" d="M205.7 69.7h18.6v.4h-18.6z"/><path fill="#040000" d="M205.7 59.6h18.6v10.2h-18.6zM200.4 46h29.4v8.2h-29.4z"/><path fill="#F9F29E" d="M212.8 46h1.2v6h-1.2zM209.5 46h1.2v6h-1.2zM206.2 46h1.2v6h-1.2zM202.8 46h1.2v6h-1.2zM226.1 46h1.2v6h-1.2zM222.8 46h1.2v6h-1.2zM219.5 46h1.2v6h-1.2zM216.1 46h1.2v6h-1.2z"/></g></g><g fill="#070001"><path d="M41.4 14h-7.2V9.9h-3.4V7H16.6v2.9h-3.4V14H6v21.4h35.4zM41.5 45.9H6v21.2h7.3v4.4h3.4v2.8h14.1v-2.8h3.4v-4.4h7.3zM79.7 14h-7.2V9.9h-3.4V7H54.9v2.9h-3.4V14h-7.2v21.4h35.4zM79.7 45.9H44.3v21.2h7.2v4.4h3.4v2.8h14.2v-2.8h3.4v-4.4h7.2zM118 14h-7.3V9.9h-3.4V7H93.1v2.9h-3.4V14h-7.2v21.4H118zM117.9 45.9H82.5v21.2h7.2v4.4h3.4v2.8h14.2v-2.8h3.4v-4.4h7.2zM156.3 14H149V9.9h-3.4V7h-14.1v2.9h-3.4V14h-7.3v21.4h35.5zM156.3 45.9h-35.5v21.2h7.2v4.4h3.4v2.8h14.2v-2.8h3.4v-4.4h7.3zM194.5 14h-7.2V9.9h-3.4V7h-14.2v2.9h-3.4V14h-7.2v21.4h35.4zM194.5 45.9h-35.4v21.2h7.2v4.4h3.4v2.8h14.2v-2.8h3.4v-4.4h7.2zM232.8 14h-7.2V9.9h-3.4V7H208v2.9h-3.4V14h-7.2v21.4h35.4zM232.8 45.9h-35.4v21.2h7.2v4.4h3.4v2.8h14.2v-2.8h3.4v-4.4h7.2zM270.3 14h-7.2V9.9h-3.4V7h-14.2v2.9h-3.4V14h-7.2v21.4h35.4zM270.3 45.9h-35.4v21.2h7.2v4.4h3.4v2.8h14.2v-2.8h3.4v-4.4h7.2zM308.6 14.1h-7.3V9.9h-3.4V7.1h-14.1v2.8h-3.4v4.2h-7.3v21.3h35.5zM308.6 45.9h-35.5V67h7.3v4.4h3.4v2.8h14.1v-2.8h3.4V67h7.3z"/></g></svg>