<svg xmlns="http://www.w3.org/2000/svg" width="50.3" height="30">
    <style>
        .st1 {
            fill: #fff
        }

        .st5 {
            fill: #fff89e
        }

    </style>
    <g id="XMLID_1_">
        <g id="XMLID_4_">
            <g id="XMLID_60_">
                <g id="XMLID_72_">
                    <path id="XMLID_76_" fill="#73737f" d="M.5.6h49.3v29H.5z" />
                    <path id="XMLID_73_" d="M50.3 30H0V0h50.3v30zM1 29h48.3V1H1v28z" />
                </g>
                <path id="XMLID_69_" class="st1" d="M1 1.2h48.3v27.3H1z" />
                <path id="XMLID_68_" fill="#282828" d="M16 27.6h18.5V30H16z" />
                <g id="XMLID_61_">
                    <path id="XMLID_67_" class="st1" d="M16 25.2h18.5v2H16z" />
                    <path id="XMLID_62_" d="M34.5 27.2H16v-2h18.5v2zM16 27.1h18.3v-1.8H16v1.8z" />
                </g>
            </g>
            <g id="interface_49_light_1_">
                <path id="XMLID_59_" fill="#130f0e" d="M3.1 2.6H47v23.9H3.1z" />
                <g id="XMLID_52_">
                    <path id="XMLID_58_" fill="#3e3a39" d="M11.8 16.2h26.6v6.1H11.8z" />
                    <path id="XMLID_53_" d="M38.5 22.4H11.7v-6.3h26.8v6.3zM12 22.2h26.3v-5.8H12v5.8z" />
                </g>
                <g id="XMLID_29_">
                    <path id="XMLID_51_" class="st5" d="M18.3 17.7h.5v3.1h-.5z" />
                    <path id="XMLID_50_" class="st5" d="M16.9 17.7h.5v3.1h-.5z" />
                    <path id="XMLID_49_" class="st5" d="M15.4 17.7h.5v3.1h-.5z" />
                    <path id="XMLID_48_" class="st5" d="M13.9 17.7h.5v3.1h-.5z" />
                    <path id="XMLID_47_" class="st5" d="M24.1 17.7h.5v3.1h-.5z" />
                    <path id="XMLID_46_" class="st5" d="M22.6 17.7h.5v3.1h-.5z" />
                    <path id="XMLID_45_" class="st5" d="M21.3 17.7h.5v3.1h-.5z" />
                    <path id="XMLID_44_" class="st5" d="M19.8 17.7h.5v3.1h-.5z" />
                    <path id="XMLID_43_" class="st5" d="M30 17.7h.5v3.1H30z" />
                    <path id="XMLID_42_" class="st5" d="M28.5 17.7h.5v3.1h-.5z" />
                    <path id="XMLID_41_" class="st5" d="M27 17.7h.5v3.1H27z" />
                    <path id="XMLID_40_" class="st5" d="M25.5 17.7h.5v3.1h-.5z" />
                    <path id="XMLID_39_" class="st5" d="M35.9 17.7h.5v3.1h-.5z" />
                    <path id="XMLID_37_" class="st5" d="M34.4 17.7h.5v3.1h-.5z" />
                    <path id="XMLID_36_" class="st5" d="M32.9 17.7h.5v3.1h-.5z" />
                    <path id="XMLID_30_" class="st5" d="M31.5 17.7h.5v3.1h-.5z" />
                </g>
            </g>
        </g>
        <path id="light-1_1_" d="M3.3 2.6h43.9v23.9H3.3z" />
    </g>
</svg>
