<svg xmlns="http://www.w3.org/2000/svg" width="80.3" height="30.9"><path fill="#DCDDDD" stroke="#000" stroke-miterlimit="10" d="M.5.6h79.3v29.8H.5z"/><path fill="#0B1616" d="M12.9 2.4h15.4V0H12.9zM51.7 2.4h15.4V0H51.7z"/><path fill="#130F0E" d="M2.2 27.4H39v-24H2.2z"/><path fill="#3E3A39" d="M9.5 7.6h22.3v6.1H9.5z"/><path d="M31.9 13.9H9.4V7.6h22.5v6.3zm-22.3-.3h22V7.8h-22v5.8z"/><g fill="#FFF89E"><path d="M14.9 9.1h.4v3.1h-.4zM13.7 9.1h.4v3.1h-.4zM12.4 9.1h.4v3.1h-.4zM11.2 9.1h.5v3.1h-.5zM19.8 9.1h.4v3.1h-.4zM18.6 9.1h.4v3.1h-.4zM17.3 9.1h.4v3.1h-.4zM16.1 9.1h.5v3.1h-.5zM24.7 9.1h.4v3.1h-.4zM23.4 9.1h.4v3.1h-.4zM22.2 9.1h.4v3.1h-.4zM21 9.1h.4v3.1H21zM29.6 9.1h.4v3.1h-.4zM28.4 9.1h.4v3.1h-.4zM27.1 9.1h.4v3.1h-.4zM25.9 9.1h.4v3.1h-.4z"/></g><g><path fill="#130F0E" d="M41 27.4h36.8v-24H41z"/><path fill="#3E3A39" d="M48.2 7.6h22.3v6.1H48.2z"/><path d="M70.7 13.9H48.2V7.6h22.5v6.3zm-22.3-.3h22V7.8h-22v5.8z"/><g fill="#FFF89E"><path d="M53.7 9.1h.4v3.1h-.4zM52.4 9.1h.4v3.1h-.4zM51.2 9.1h.4v3.1h-.4zM50 9.1h.4v3.1H50zM58.6 9.1h.4v3.1h-.4zM57.3 9.1h.4v3.1h-.4zM56.1 9.1h.4v3.1h-.4zM54.9 9.1h.4v3.1h-.4zM63.4 9.1h.4v3.1h-.4zM62.2 9.1h.4v3.1h-.4zM61 9.1h.5v3.1H61zM59.8 9.1h.4v3.1h-.4zM68.4 9.1h.4v3.1h-.4zM67.1 9.1h.4v3.1h-.4zM65.9 9.1h.4v3.1h-.4zM64.7 9.1h.4v3.1h-.4z"/></g></g><g><path d="M2.2 27.4h36.7v-24H2.2zM41 27.4h36.7v-24H41z"/></g></svg>