<svg xmlns="http://www.w3.org/2000/svg" width="235.2" height="30.9"><path fill="#DCDDDD" stroke="#000" stroke-miterlimit="10" d="M.5.6H312v29.8H.5z"/><path fill="#0B1616" d="M12.9 2.4h15.4V0H12.9zM51.7 2.4h15.4V0H51.7zM91.4 2.4h15.4V0H91.4zM130.2 2.4h15.4V0h-15.4z"/><path fill="#130F0E" d="M2.2 27.4H39v-24H2.2z"/><path fill="#3E3A39" d="M9.5 7.6h22.3v6.1H9.5z"/><path d="M31.9 13.9H9.4V7.6h22.5v6.3zm-22.3-.3h22V7.8h-22v5.8z"/><g fill="#FFF89E"><path d="M14.9 9.1h.4v3.1h-.4zM13.7 9.1h.4v3.1h-.4zM12.4 9.1h.4v3.1h-.4zM11.2 9.1h.5v3.1h-.5zM19.8 9.1h.4v3.1h-.4zM18.6 9.1h.4v3.1h-.4zM17.3 9.1h.4v3.1h-.4zM16.1 9.1h.5v3.1h-.5zM24.7 9.1h.4v3.1h-.4zM23.4 9.1h.4v3.1h-.4zM22.2 9.1h.4v3.1h-.4zM21 9.1h.4v3.1H21zM29.6 9.1h.4v3.1h-.4zM28.4 9.1h.4v3.1h-.4zM27.1 9.1h.4v3.1h-.4zM25.9 9.1h.4v3.1h-.4z"/></g><path fill="#130F0E" d="M41 27.4h36.8v-24H41z"/><path fill="#3E3A39" d="M48.2 7.6h22.3v6.1H48.2z"/><path d="M70.7 13.9H48.2V7.6h22.5v6.3zm-22.3-.3h22V7.8h-22v5.8z"/><g fill="#FFF89E"><path d="M53.7 9.1h.4v3.1h-.4zM52.4 9.1h.4v3.1h-.4zM51.2 9.1h.4v3.1h-.4zM50 9.1h.4v3.1H50zM58.6 9.1h.4v3.1h-.4zM57.3 9.1h.4v3.1h-.4zM56.1 9.1h.4v3.1h-.4zM54.9 9.1h.4v3.1h-.4zM63.4 9.1h.4v3.1h-.4zM62.2 9.1h.4v3.1h-.4zM61 9.1h.5v3.1H61zM59.8 9.1h.4v3.1h-.4zM68.4 9.1h.4v3.1h-.4zM67.1 9.1h.4v3.1h-.4zM65.9 9.1h.4v3.1h-.4zM64.7 9.1h.4v3.1h-.4z"/></g><path fill="#130F0E" d="M79.7 27.5h36.8v-24H79.7z"/><path fill="#3E3A39" d="M87 7.7h22.3v6.1H87z"/><path d="M109.4 14H86.9V7.7h22.5V14zm-22.3-.3h22V7.9h-22v5.8z"/><g fill="#FFF89E"><path d="M92.4 9.2h.4v3.1h-.4zM91.2 9.2h.4v3.1h-.4zM89.9 9.2h.4v3.1h-.4zM88.7 9.2h.5v3.1h-.5zM97.3 9.2h.4v3.1h-.4zM96.1 9.2h.4v3.1h-.4zM94.8 9.2h.4v3.1h-.4zM93.6 9.2h.5v3.1h-.5zM102.2 9.2h.4v3.1h-.4zM100.9 9.2h.4v3.1h-.4zM99.7 9.2h.4v3.1h-.4zM98.5 9.2h.4v3.1h-.4zM107.1 9.2h.4v3.1h-.4zM105.9 9.2h.4v3.1h-.4zM104.6 9.2h.4v3.1h-.4zM103.4 9.2h.4v3.1h-.4z"/></g><g><path fill="#130F0E" d="M118.5 27.5h36.8v-24h-36.8z"/><path fill="#3E3A39" d="M125.7 7.7H148v6.1h-22.3z"/><path d="M148.2 14h-22.5V7.7h22.5V14zm-22.3-.3h22V7.9h-22v5.8z"/><g fill="#FFF89E"><path d="M131.2 9.2h.4v3.1h-.4zM129.9 9.2h.4v3.1h-.4zM128.7 9.2h.4v3.1h-.4zM127.5 9.2h.4v3.1h-.4zM136.1 9.2h.4v3.1h-.4zM134.8 9.2h.4v3.1h-.4zM133.6 9.2h.4v3.1h-.4zM132.4 9.2h.4v3.1h-.4zM140.9 9.2h.4v3.1h-.4zM139.7 9.2h.4v3.1h-.4zM138.5 9.2h.5v3.1h-.5zM137.3 9.2h.4v3.1h-.4zM145.9 9.2h.4v3.1h-.4zM144.6 9.2h.4v3.1h-.4zM143.4 9.2h.4v3.1h-.4zM142.2 9.2h.4v3.1h-.4z"/></g></g><g><path fill="#130F0E" d="M157.4 27.4h36.8V3.5h-36.8z"/><path fill="#3E3A39" d="M164.6 7.7h22.3v6.1h-22.3z"/><path d="M187.1 13.9h-22.5V7.7h22.5v6.2zm-22.3-.2h22V7.9h-22v5.8z"/><g fill="#FFF89E"><path d="M170.1 9.2h.4v3.1h-.4zM168.8 9.2h.4v3.1h-.4zM167.6 9.2h.4v3.1h-.4zM166.4 9.2h.4v3.1h-.4zM175 9.2h.4v3.1h-.4zM173.7 9.2h.4v3.1h-.4zM172.5 9.2h.4v3.1h-.4zM171.3 9.2h.4v3.1h-.4zM179.8 9.2h.4v3.1h-.4zM178.6 9.2h.4v3.1h-.4zM177.4 9.2h.5v3.1h-.5zM176.2 9.2h.4v3.1h-.4zM184.8 9.2h.4v3.1h-.4zM183.5 9.2h.4v3.1h-.4zM182.3 9.2h.4v3.1h-.4zM181.1 9.2h.4v3.1h-.4z"/></g></g><g><path fill="#130F0E" d="M196.1 27.5h36.8v-24h-36.8z"/><path fill="#3E3A39" d="M203.4 7.8h22.3v6.1h-22.3z"/><path d="M225.8 14h-22.5V7.8h22.5V14zm-22.3-.2h22V8h-22v5.8z"/><g fill="#FFF89E"><path d="M208.8 9.3h.4v3.1h-.4zM207.6 9.3h.4v3.1h-.4zM206.3 9.3h.4v3.1h-.4zM205.1 9.3h.5v3.1h-.5zM213.7 9.3h.4v3.1h-.4zM212.5 9.3h.4v3.1h-.4zM211.2 9.3h.4v3.1h-.4zM210 9.3h.5v3.1h-.5zM218.6 9.3h.4v3.1h-.4zM217.3 9.3h.4v3.1h-.4zM216.1 9.3h.4v3.1h-.4zM214.9 9.3h.4v3.1h-.4zM223.5 9.3h.4v3.1h-.4zM222.3 9.3h.4v3.1h-.4zM221 9.3h.4v3.1h-.4zM219.8 9.3h.4v3.1h-.4z"/></g></g><g><path fill="#130F0E" d="M235.1 27.4h36.8v-24h-36.8z"/><path fill="#3E3A39" d="M242.3 7.6h22.3v6.1h-22.3z"/><path d="M264.8 13.9h-22.5V7.6h22.5v6.3zm-22.3-.3h22V7.8h-22v5.8z"/><g fill="#FFF89E"><path d="M247.8 9.1h.4v3.1h-.4zM246.5 9.1h.4v3.1h-.4zM245.3 9.1h.4v3.1h-.4zM244.1 9.1h.4v3.1h-.4zM252.7 9.1h.4v3.1h-.4zM251.4 9.1h.4v3.1h-.4zM250.2 9.1h.4v3.1h-.4zM249 9.1h.4v3.1h-.4zM257.5 9.1h.4v3.1h-.4zM256.3 9.1h.4v3.1h-.4zM255.1 9.1h.5v3.1h-.5zM253.9 9.1h.4v3.1h-.4zM262.5 9.1h.4v3.1h-.4zM261.2 9.1h.4v3.1h-.4zM260 9.1h.4v3.1h-.4zM258.8 9.1h.4v3.1h-.4z"/></g></g><g><path fill="#130F0E" d="M273.8 27.5h36.8v-24h-36.8z"/><path fill="#3E3A39" d="M281.1 7.7h22.3v6.1h-22.3z"/><path d="M303.5 14H281V7.7h22.5V14zm-22.3-.3h22V7.9h-22v5.8z"/><g fill="#FFF89E"><path d="M286.5 9.2h.4v3.1h-.4zM285.3 9.2h.4v3.1h-.4zM284 9.2h.4v3.1h-.4zM282.8 9.2h.5v3.1h-.5zM291.4 9.2h.4v3.1h-.4zM290.2 9.2h.4v3.1h-.4zM288.9 9.2h.4v3.1h-.4zM287.7 9.2h.5v3.1h-.5zM296.3 9.2h.4v3.1h-.4zM295 9.2h.4v3.1h-.4zM293.8 9.2h.4v3.1h-.4zM292.6 9.2h.4v3.1h-.4zM301.2 9.2h.4v3.1h-.4zM300 9.2h.4v3.1h-.4zM298.7 9.2h.4v3.1h-.4zM297.5 9.2h.4v3.1h-.4z"/></g></g><path fill="#0B1616" d="M168 2.4h15.4V0H168zM206.8 2.4h15.4V0h-15.4zM245.7 2.4h15.4V0h-15.4zM284.5 2.4h15.4V0h-15.4z"/><g><path d="M2.2 27.4h36.7v-24H2.2zM41 27.4h36.7v-24H41zM79.7 27.5h36.7v-24H79.7zM118.5 27.5h36.7v-24h-36.7zM157.4 27.5h36.7v-24h-36.7zM196.2 27.5h36.7v-24h-36.7zM235 27.5h36.7v-24H235zM273.8 27.5h36.7v-24h-36.7z"/></g></svg>