<svg xmlns="http://www.w3.org/2000/svg" width="41.4" height="69"><path fill="#DCDDDD" stroke="#000" stroke-miterlimit="10" d="M.5.5h40.4v68H.5z"/><path fill="#0B1616" d="M12.9 28.2h15.4v2.4H12.9zM12.9 40.5h15.4v-2.4H12.9z"/><path fill="#130F0E" d="M2.2 3.5H39v23.8H2.2z"/><path fill="#3E3A39" d="M9.5 17.1h22.3v6.1H9.5z"/><path d="M31.9 23.2H9.4v-6.3h22.5v6.3zm-22.3-.1h22v-5.8h-22v5.8z"/><g fill="#FFF89E"><path d="M14.9 18.6h.4v3.1h-.4zM13.7 18.6h.4v3.1h-.4zM12.4 18.6h.4v3.1h-.4zM11.2 18.6h.5v3.1h-.5zM19.8 18.6h.4v3.1h-.4zM18.6 18.6h.4v3.1h-.4zM17.3 18.6h.4v3.1h-.4zM16.1 18.6h.5v3.1h-.5zM24.7 18.6h.4v3.1h-.4zM23.4 18.6h.4v3.1h-.4zM22.2 18.6h.4v3.1h-.4zM21 18.6h.4v3.1H21zM29.6 18.6h.4v3.1h-.4zM28.4 18.6h.4v3.1h-.4zM27.1 18.6h.4v3.1h-.4zM25.9 18.6h.4v3.1h-.4z"/></g><g><path fill="#130F0E" d="M2.2 65.5H39v-24H2.2z"/><path fill="#3E3A39" d="M9.5 45.7h22.3v6.1H9.5z"/><path d="M31.9 52H9.4v-6.3h22.5V52zm-22.3-.3h22v-5.8h-22v5.8z"/><g fill="#FFF89E"><path d="M14.9 47.2h.4v3.1h-.4zM13.7 47.2h.4v3.1h-.4zM12.4 47.2h.4v3.1h-.4zM11.2 47.2h.5v3.1h-.5zM19.8 47.2h.4v3.1h-.4zM18.6 47.2h.4v3.1h-.4zM17.3 47.2h.4v3.1h-.4zM16.1 47.2h.5v3.1h-.5zM24.7 47.2h.4v3.1h-.4zM23.4 47.2h.4v3.1h-.4zM22.2 47.2h.4v3.1h-.4zM21 47.2h.4v3.1H21zM29.6 47.2h.4v3.1h-.4zM28.4 47.2h.4v3.1h-.4zM27.1 47.2h.4v3.1h-.4zM25.9 47.2h.4v3.1h-.4z"/></g></g><g><path d="M2.2 3.3H39v24H2.2zM2.2 65.5h36.7v-24H2.2z"/></g></svg>