<svg xmlns="http://www.w3.org/2000/svg" width="41.7" height="59.1">
    <style>
        .st1 {
            fill: #040000
        }

        .st2 {
            fill: #fff
        }

        .st3 {
            fill: #0b1616
        }

        .st4 {
            fill: #120f0e
        }

        .st5 {
            fill: #3e3a39
        }

        .st6 {
            fill: #f9f29e
        }

    </style>
    <g id="XMLID_1_">
        <g id="XMLID_3_">
            <g id="XMLID_85_">
                <path id="XMLID_89_" fill="#ddd" d="M.5.4h40.8v58.2H.5z" />
                <path id="XMLID_86_" class="st1" d="M41.7 59.1H0V0h41.7v59.1zM.9 58.2h40V.8H.9v57.4z" />
            </g>
            <g id="XMLID_55_">
                <path id="XMLID_84_" class="st2" d="M.9 34.6h39.9v23.1H.9z" />
                <path id="XMLID_83_" class="st3" d="M12.8 33.5h15.6v2H12.8z" />
                <path id="XMLID_82_" class="st2" d="M12.8 35.8h15.6v1.7H12.8z" />
                <path id="XMLID_79_" class="st1" d="M28.4 37.5H12.7v-1.7h15.7v1.7zm-15.6-.1h15.5v-1.5H12.8v1.5z" />
                <path id="XMLID_78_" class="st4" d="M2.3 36.3h37.3v20.2H2.3z" />
                <g id="XMLID_73_">
                    <path id="XMLID_77_" class="st5" d="M9.7 39.8h22.6V45H9.7z" />
                    <path id="XMLID_74_" class="st1" d="M32.3 45H9.6v-5.3h22.8V45zm-22.5-.2h22.3v-4.9H9.8v4.9z" />
                </g>
                <g id="XMLID_56_">
                    <path id="XMLID_72_" class="st6" d="M15.2 41.1h.4v2.6h-.4z" />
                    <path id="XMLID_71_" class="st6" d="M13.9 41.1h.4v2.6h-.4z" />
                    <path id="XMLID_70_" class="st6" d="M12.7 41.1h.4v2.6h-.4z" />
                    <path id="XMLID_69_" class="st6" d="M11.5 41.1h.4v2.6h-.4z" />
                    <path id="XMLID_68_" class="st6" d="M20.1 41.1h.4v2.6h-.4z" />
                    <path id="XMLID_67_" class="st6" d="M18.9 41.1h.4v2.6h-.4z" />
                    <path id="XMLID_66_" class="st6" d="M17.7 41.1h.4v2.6h-.4z" />
                    <path id="XMLID_65_" class="st6" d="M16.5 41.1h.4v2.6h-.4z" />
                    <path id="XMLID_64_" class="st6" d="M25.1 41.1h.4v2.6h-.4z" />
                    <path id="XMLID_63_" class="st6" d="M23.9 41.1h.4v2.6h-.4z" />
                    <path id="XMLID_62_" class="st6" d="M22.6 41.1h.4v2.6h-.4z" />
                    <path id="XMLID_61_" class="st6" d="M21.4 41.1h.4v2.6h-.4z" />
                    <path id="XMLID_60_" class="st6" d="M30.1 41.1h.4v2.6h-.4z" />
                    <path id="XMLID_59_" class="st6" d="M28.9 41.1h.4v2.6h-.4z" />
                    <path id="XMLID_58_" class="st6" d="M27.6 41.1h.4v2.6h-.4z" />
                    <path id="XMLID_57_" class="st6" d="M26.3 41.1h.4v2.6h-.4z" />
                </g>
            </g>
            <g id="XMLID_25_">
                <path id="XMLID_54_" class="st2" d="M.9.9h39.9v23H.9z" />
                <path id="XMLID_53_" class="st3" d="M12.8 23.2h15.6v2H12.8z" />
                <path id="XMLID_52_" class="st2" d="M12.8 21.2h15.6v1.6H12.8z" />
                <path id="XMLID_49_" class="st1" d="M28.4 22.8H12.7v-1.7h15.7v1.7zm-15.6 0h15.5v-1.5H12.8v1.5z" />
                <path id="XMLID_48_" class="st4" d="M2.3 2.3h37.3v20.2H2.3z" />
                <g id="XMLID_43_">
                    <path id="XMLID_47_" class="st5" d="M9.7 13.8h22.6V19H9.7z" />
                    <path id="XMLID_44_" class="st1" d="M32.3 19H9.6v-5.3h22.8V19zm-22.5-.2h22.3v-4.9H9.8v4.9z" />
                </g>
                <g id="XMLID_26_">
                    <path id="XMLID_42_" class="st6" d="M15.2 15h.4v2.6h-.4z" />
                    <path id="XMLID_41_" class="st6" d="M13.9 15h.4v2.6h-.4z" />
                    <path id="XMLID_40_" class="st6" d="M12.7 15h.4v2.6h-.4z" />
                    <path id="XMLID_39_" class="st6" d="M11.5 15h.4v2.6h-.4z" />
                    <path id="XMLID_38_" class="st6" d="M20.1 15h.4v2.6h-.4z" />
                    <path id="XMLID_37_" class="st6" d="M18.9 15h.4v2.6h-.4z" />
                    <path id="XMLID_36_" class="st6" d="M17.7 15h.4v2.6h-.4z" />
                    <path id="XMLID_35_" class="st6" d="M16.5 15h.4v2.6h-.4z" />
                    <path id="XMLID_34_" class="st6" d="M25.1 15h.4v2.6h-.4z" />
                    <path id="XMLID_33_" class="st6" d="M23.9 15h.4v2.6h-.4z" />
                    <path id="XMLID_32_" class="st6" d="M22.6 15h.4v2.6h-.4z" />
                    <path id="XMLID_31_" class="st6" d="M21.4 15h.4v2.6h-.4z" />
                    <path id="XMLID_30_" class="st6" d="M30.1 15h.4v2.6h-.4z" />
                    <path id="XMLID_29_" class="st6" d="M28.9 15h.4v2.6h-.4z" />
                    <path id="XMLID_28_" class="st6" d="M27.6 15h.4v2.6h-.4z" />
                    <path id="XMLID_27_" class="st6" d="M26.3 15h.4v2.6h-.4z" />
                </g>
            </g>
            <g id="XMLID_4_">
                <g id="XMLID_20_">
                    <path id="XMLID_24_" class="st1" d="M4.1 24.3H10v2.3H4.1z" />
                    <path id="XMLID_21_" class="st1" d="M10.1 26.8H3.8v-2.7h6.3v2.7zm-5.9-.4h5.4v-1.9H4.2v1.9z" />
                </g>
                <g id="XMLID_15_">
                    <path id="XMLID_19_" class="st1" d="M31.9 24.2h5.9v2.3h-5.9z" />
                    <path id="XMLID_16_" class="st1" d="M38 26.7h-6.3V24H38v2.7zm-5.9-.4h5.4v-1.9h-5.4v1.9z" />
                </g>
                <g id="XMLID_10_">
                    <path id="XMLID_14_" class="st1" d="M4.2 32.5h5.9v2.3H4.2z" />
                    <path id="XMLID_11_" class="st1" d="M10.2 35.1H3.9v-2.7h6.3v2.7zm-5.9-.5h5.4v-1.9H4.3v1.9z" />
                </g>
                <g id="XMLID_5_">
                    <path id="XMLID_9_" class="st1" d="M32 32.4h5.9v2.3H32z" />
                    <path id="XMLID_6_" class="st1" d="M38 35h-6.3v-2.7H38V35zm-5.8-.4h5.4v-1.9h-5.4v1.9z" />
                </g>
            </g>
        </g>
        <g id="XMLID_2_">
            <path id="light-1_1_" d="M2.3 2.4h37.2v20.1H2.3z" />
            <path id="light-2_2_" d="M2.3 36.3h37.3v20.1H2.3z" />
        </g>
    </g>
</svg>
