<svg xmlns="http://www.w3.org/2000/svg" width="157.2" height="69"><path fill="#DCDDDD" stroke="#000" stroke-miterlimit="10" d="M.5.5h156.2v68H.5z"/><path fill="#0B1616" d="M12.9 28.2h15.4v2.4H12.9zM51.7 28.2h15.4v2.4H51.7zM12.9 40.5h15.4v-2.4H12.9zM51.7 40.5h15.4v-2.4H51.7z"/><path fill="#130F0E" d="M2.2 3.5H39v23.8H2.2z"/><path fill="#3E3A39" d="M9.5 17.1h22.3v6.1H9.5z"/><path d="M31.9 23.2H9.4v-6.3h22.5v6.3zm-22.3-.1h22v-5.8h-22v5.8z"/><g fill="#FFF89E"><path d="M14.9 18.6h.4v3.1h-.4zM13.7 18.6h.4v3.1h-.4zM12.4 18.6h.4v3.1h-.4zM11.2 18.6h.5v3.1h-.5zM19.8 18.6h.4v3.1h-.4zM18.6 18.6h.4v3.1h-.4zM17.3 18.6h.4v3.1h-.4zM16.1 18.6h.5v3.1h-.5zM24.7 18.6h.4v3.1h-.4zM23.4 18.6h.4v3.1h-.4zM22.2 18.6h.4v3.1h-.4zM21 18.6h.4v3.1H21zM29.6 18.6h.4v3.1h-.4zM28.4 18.6h.4v3.1h-.4zM27.1 18.6h.4v3.1h-.4zM25.9 18.6h.4v3.1h-.4z"/></g><path fill="#130F0E" d="M41 3.5h36.8v23.8H41z"/><path fill="#3E3A39" d="M48.2 17.1h22.3v6.1H48.2z"/><path d="M70.7 23.2H48.2v-6.3h22.5v6.3zm-22.3-.1h22v-5.8h-22v5.8z"/><g fill="#FFF89E"><path d="M53.7 18.6h.4v3.1h-.4zM52.4 18.6h.4v3.1h-.4zM51.2 18.6h.4v3.1h-.4zM50 18.6h.4v3.1H50zM58.6 18.6h.4v3.1h-.4zM57.3 18.6h.4v3.1h-.4zM56.1 18.6h.4v3.1h-.4zM54.9 18.6h.4v3.1h-.4zM63.4 18.6h.4v3.1h-.4zM62.2 18.6h.4v3.1h-.4zM61 18.6h.5v3.1H61zM59.8 18.6h.4v3.1h-.4zM68.4 18.6h.4v3.1h-.4zM67.1 18.6h.4v3.1h-.4zM65.9 18.6h.4v3.1h-.4zM64.7 18.6h.4v3.1h-.4z"/></g><path fill="#130F0E" d="M2.2 65.5H39v-24H2.2z"/><path fill="#3E3A39" d="M9.5 45.7h22.3v6.1H9.5z"/><path d="M31.9 52H9.4v-6.3h22.5V52zm-22.3-.3h22v-5.8h-22v5.8z"/><g fill="#FFF89E"><path d="M14.9 47.2h.4v3.1h-.4zM13.7 47.2h.4v3.1h-.4zM12.4 47.2h.4v3.1h-.4zM11.2 47.2h.5v3.1h-.5zM19.8 47.2h.4v3.1h-.4zM18.6 47.2h.4v3.1h-.4zM17.3 47.2h.4v3.1h-.4zM16.1 47.2h.5v3.1h-.5zM24.7 47.2h.4v3.1h-.4zM23.4 47.2h.4v3.1h-.4zM22.2 47.2h.4v3.1h-.4zM21 47.2h.4v3.1H21zM29.6 47.2h.4v3.1h-.4zM28.4 47.2h.4v3.1h-.4zM27.1 47.2h.4v3.1h-.4zM25.9 47.2h.4v3.1h-.4z"/></g><g><path fill="#130F0E" d="M41 65.5h36.8v-24H41z"/><path fill="#3E3A39" d="M48.2 45.7h22.3v6.1H48.2z"/><path d="M70.7 52H48.2v-6.3h22.5V52zm-22.3-.3h22v-5.8h-22v5.8z"/><g fill="#FFF89E"><path d="M53.7 47.2h.4v3.1h-.4zM52.4 47.2h.4v3.1h-.4zM51.2 47.2h.4v3.1h-.4zM50 47.2h.4v3.1H50zM58.6 47.2h.4v3.1h-.4zM57.3 47.2h.4v3.1h-.4zM56.1 47.2h.4v3.1h-.4zM54.9 47.2h.4v3.1h-.4zM63.4 47.2h.4v3.1h-.4zM62.2 47.2h.4v3.1h-.4zM61 47.2h.5v3.1H61zM59.8 47.2h.4v3.1h-.4zM68.4 47.2h.4v3.1h-.4zM67.1 47.2h.4v3.1h-.4zM65.9 47.2h.4v3.1h-.4zM64.7 47.2h.4v3.1h-.4z"/></g></g><path fill="#0B1616" d="M90 28.2h15.4v2.4H90zM128.8 28.2h15.4v2.4h-15.4zM90 40.5h15.4v-2.4H90zM128.8 40.5h15.4v-2.4h-15.4z"/><g><path fill="#130F0E" d="M79.3 3.5h36.8v23.8H79.3z"/><path fill="#3E3A39" d="M86.6 17.1h22.3v6.1H86.6z"/><path d="M109 23.2H86.5v-6.3H109v6.3zm-22.3-.1h22v-5.8h-22v5.8z"/><g fill="#FFF89E"><path d="M92 18.6h.4v3.1H92zM90.8 18.6h.4v3.1h-.4zM89.5 18.6h.4v3.1h-.4zM88.3 18.6h.5v3.1h-.5zM96.9 18.6h.4v3.1h-.4zM95.7 18.6h.4v3.1h-.4zM94.4 18.6h.4v3.1h-.4zM93.2 18.6h.5v3.1h-.5zM101.8 18.6h.4v3.1h-.4zM100.5 18.6h.4v3.1h-.4zM99.3 18.6h.4v3.1h-.4zM98.1 18.6h.4v3.1h-.4zM106.7 18.6h.4v3.1h-.4zM105.5 18.6h.4v3.1h-.4zM104.2 18.6h.4v3.1h-.4zM103 18.6h.4v3.1h-.4z"/></g></g><g><path fill="#130F0E" d="M118.1 3.5h36.8v23.8h-36.8z"/><path fill="#3E3A39" d="M125.3 17.1h22.3v6.1h-22.3z"/><path d="M147.8 23.2h-22.5v-6.3h22.5v6.3zm-22.3-.1h22v-5.8h-22v5.8z"/><g fill="#FFF89E"><path d="M130.8 18.6h.4v3.1h-.4zM129.5 18.6h.4v3.1h-.4zM128.3 18.6h.4v3.1h-.4zM127.1 18.6h.4v3.1h-.4zM135.7 18.6h.4v3.1h-.4zM134.4 18.6h.4v3.1h-.4zM133.2 18.6h.4v3.1h-.4zM132 18.6h.4v3.1h-.4zM140.5 18.6h.4v3.1h-.4zM139.3 18.6h.4v3.1h-.4zM138.1 18.6h.5v3.1h-.5zM136.9 18.6h.4v3.1h-.4zM145.5 18.6h.4v3.1h-.4zM144.2 18.6h.4v3.1h-.4zM143 18.6h.4v3.1h-.4zM141.8 18.6h.4v3.1h-.4z"/></g></g><g><path fill="#130F0E" d="M79.3 65.5h36.8v-24H79.3z"/><path fill="#3E3A39" d="M86.6 45.7h22.3v6.1H86.6z"/><path d="M109 52H86.5v-6.3H109V52zm-22.3-.3h22v-5.8h-22v5.8z"/><g fill="#FFF89E"><path d="M92 47.2h.4v3.1H92zM90.8 47.2h.4v3.1h-.4zM89.5 47.2h.4v3.1h-.4zM88.3 47.2h.5v3.1h-.5zM96.9 47.2h.4v3.1h-.4zM95.7 47.2h.4v3.1h-.4zM94.4 47.2h.4v3.1h-.4zM93.2 47.2h.5v3.1h-.5zM101.8 47.2h.4v3.1h-.4zM100.5 47.2h.4v3.1h-.4zM99.3 47.2h.4v3.1h-.4zM98.1 47.2h.4v3.1h-.4zM106.7 47.2h.4v3.1h-.4zM105.5 47.2h.4v3.1h-.4zM104.2 47.2h.4v3.1h-.4zM103 47.2h.4v3.1h-.4z"/></g></g><g><path fill="#130F0E" d="M118.1 65.5h36.8v-24h-36.8z"/><path fill="#3E3A39" d="M125.3 45.7h22.3v6.1h-22.3z"/><path d="M147.8 52h-22.5v-6.3h22.5V52zm-22.3-.3h22v-5.8h-22v5.8z"/><g fill="#FFF89E"><path d="M130.8 47.2h.4v3.1h-.4zM129.5 47.2h.4v3.1h-.4zM128.3 47.2h.4v3.1h-.4zM127.1 47.2h.4v3.1h-.4zM135.7 47.2h.4v3.1h-.4zM134.4 47.2h.4v3.1h-.4zM133.2 47.2h.4v3.1h-.4zM132 47.2h.4v3.1h-.4zM140.5 47.2h.4v3.1h-.4zM139.3 47.2h.4v3.1h-.4zM138.1 47.2h.5v3.1h-.5zM136.9 47.2h.4v3.1h-.4zM145.5 47.2h.4v3.1h-.4zM144.2 47.2h.4v3.1h-.4zM143 47.2h.4v3.1h-.4zM141.8 47.2h.4v3.1h-.4z"/></g></g><g><path d="M79.3 3.4h36.8v24H79.3zM79.3 65.6H116v-24H79.3zM118.1 3.4H155v24h-36.9zM118.1 65.6h36.7v-24h-36.7zM2.2 3.3H39v24H2.2zM2.2 65.5h36.7v-24H2.2zM41 3.3h36.9v24H41zM41 65.5h36.7v-24H41z"/></g></svg>