<svg xmlns="http://www.w3.org/2000/svg" width="64.1" height="17.2"><g fill="#C48327"><path d="M9.6 4.7h3.1v12.2H9.6v-1.3c-.6.6-1.2 1-1.8 1.2-.6.3-1.3.4-2 .4-1.6 0-2.9-.6-4.1-1.8C.6 14.2 0 12.7 0 10.8 0 9 .6 7.4 1.7 6.2c1.1-1.2 2.4-1.8 4-1.8.7 0 1.4.1 2.1.4.6.3 1.2.7 1.8 1.3V4.7zM6.4 7.2c-.9 0-1.7.3-2.4 1s-.9 1.5-.9 2.6.3 1.9 1 2.6c.6.7 1.4 1 2.4 1s1.8-.3 2.4-1c.6-.7 1-1.5 1-2.6s-.3-1.9-1-2.6c-.8-.6-1.6-1-2.5-1zM15 4.7h2.6v1.5c.3-.6.7-1.1 1.1-1.4.5-.3 1-.5 1.5-.5.4 0 .8.1 1.2.3l-1 2.6c-.4-.2-.7-.3-.9-.3-.5 0-.9.3-1.2.9-.1.7-.3 1.9-.3 3.6v5.5h-3V4.7zM23.1 4.7h3.1v5.9c0 1.1.1 1.9.2 2.4.2.4.4.8.8 1 .3.2.8.4 1.3.4s.9-.1 1.3-.4c.4-.2.6-.6.8-1.1.1-.4.2-1.1.2-2.3v-6h3.1v5.2c0 2.1-.2 3.6-.5 4.4-.4 1-1 1.7-1.8 2.2-.8.5-1.8.8-3.1.8s-2.4-.3-3.2-.9c-.8-.6-1.4-1.4-1.7-2.5-.2-.7-.4-2.1-.4-4V4.7zM39.9 0v6.1c.6-.6 1.2-1 1.8-1.2.6-.3 1.3-.4 2.1-.4 1.6 0 2.9.6 4.1 1.8 1.1 1.2 1.7 2.7 1.7 4.6 0 1.8-.6 3.3-1.7 4.6-1.2 1.2-2.5 1.8-4.1 1.8-.7 0-1.4-.1-2-.4-.6-.3-1.2-.7-1.8-1.2V17h-3V0h2.9zm3.2 7.2c-1 0-1.8.3-2.4 1-.6.7-1 1.5-1 2.6s.3 2 1 2.6c.6.7 1.4 1 2.4 1 .9 0 1.7-.3 2.4-1 .6-.7 1-1.5 1-2.6 0-1-.3-1.9-.9-2.6s-1.5-1-2.5-1zM61.1 4.7h3.1v12.2h-3.1v-1.3c-.6.6-1.2 1-1.8 1.2-.6.3-1.3.4-2 .4-1.6 0-2.9-.6-4.1-1.8-1.2-1.2-1.7-2.7-1.7-4.6 0-1.9.6-3.4 1.7-4.6 1.1-1.2 2.5-1.8 4.1-1.8.7 0 1.4.1 2.1.4.6.3 1.2.7 1.8 1.2V4.7zm-3.3 2.5c-.9 0-1.7.3-2.4 1s-.9 1.5-.9 2.6.3 1.9 1 2.6c.6.7 1.4 1 2.4 1s1.8-.3 2.4-1c.6-.7 1-1.5 1-2.6s-.3-1.9-1-2.6c-.7-.6-1.5-1-2.5-1z"/></g></svg>