<svg xmlns="http://www.w3.org/2000/svg" width="76.7" height="27"><path fill="none" d="M25.2 4.8c0-1.4-.9-2.2-2.6-2.2h-1.7v4.6H23c.2 0 .3-.1.5-.1.4-.1.8-.3 1.1-.6.4-.4.6-1 .6-1.7zM69.2 4.2c-.1-.3-.2-.8-.2-1.4h-.1c0 .5-.1.9-.3 1.3l-1.8 5.5H71l-1.8-5.4zM53.3 2.6h-1.4v3.9h1.6c.8 0 1.4-.2 1.8-.6s.7-.9.7-1.5c0-1.2-.9-1.8-2.7-1.8zM8 4.2c-.1-.3-.2-.8-.2-1.4h-.1c0 .5-.1.9-.3 1.3L5.6 9.6h4.2L8 4.2z"/><path fill="#EA5514" d="M9.8.1h-4L.7 14.2c3.8-1.9 8-3.5 12.5-4.8L9.8.1zM7.4 4.2c.1-.4.2-.9.3-1.3h.1c0 .6.1 1 .2 1.4l1.8 5.5H5.6l1.8-5.6zM22.6 7.2h-1.7V2.7h1.7c1.7 0 2.6.7 2.6 2.2 0 .7-.2 1.3-.7 1.7-.3.3-.7.5-1.1.6 1.6-.3 3.2-.5 4.9-.6.3-.6.5-1.3.5-2.1 0-2.9-1.9-4.3-5.7-4.3h-5.6v8.2c1.8-.4 3.6-.7 5.4-1-.1-.2-.2-.2-.3-.2zM35.4.1H32v6.1c1.1-.1 2.3-.1 3.4-.2V.1zM45 .1h-3.4V6c1.1 0 2.3.1 3.4.2V.1zM56.5 7.4c.9-.3 1.6-.7 2.2-1.4.6-.6.9-1.4.9-2.3 0-1.2-.5-2.1-1.4-2.7s-2.3-1-4-1h-5.6v6.4c3.4.4 6.7.9 9.9 1.6-.7-.2-1.3-.5-2-.6zM55.3 6c-.4.4-1.1.6-1.8.6h-1.6v-4h1.4c1.8 0 2.7.6 2.7 1.8 0 .7-.2 1.2-.7 1.6zM70.9.1h-4l-3.4 9.3c4.5 1.3 8.6 2.9 12.4 4.7l-5-14zm-2.4 4.1c.1-.4.2-.9.3-1.3h.1c0 .6.1 1 .2 1.4l1.8 5.5h-4.2l1.8-5.6z"/><path d="M23.4 7.1c-.2 0-.3.1-.5.1.2 0 .3 0 .5-.1z"/><path fill="#F8B62D" d="M3.7 17.2l1.2-3.6h5.8l1.2 3.6h3.7l-2.4-6.6C8.7 11.9 4.5 13.5.7 15.4L0 17.2h3.7zM20.9 17.2V11h1c.4 0 .7.1 1 .4s.7.8 1.3 1.7l2.5 4.1h3.9l-3-4.7c-.9-1.4-1.7-2.2-2.4-2.4 1.1-.3 2-.9 2.6-1.6.2-.2.3-.4.4-.7-1.6.2-3.3.4-4.9.6-.1 0-.3.1-.5.1-1.8.3-3.6.6-5.4 1v7.7h3.5zM38.4 17.5c4.4 0 6.6-2.4 6.6-7.1V7.5c-1.1-.1-2.2-.1-3.4-.2v3.5c0 2.5-1 3.8-3.1 3.8s-3.1-1.3-3.1-4V7.3c-1.1 0-2.3.1-3.4.2v3.1c0 4.6 2.2 6.9 6.4 6.9zM54.4 17.2c1.8 0 3.2-.4 4.2-1.3s1.5-2 1.5-3.4c0-1-.3-1.9-1-2.6-.2-.2-.5-.4-.8-.6-3.2-.7-6.5-1.2-9.9-1.6v9.5h6zm-.5-6.8c.9 0 1.6.2 2 .6s.7.9.7 1.6-.2 1.3-.7 1.7c-.5.4-1.2.6-2 .6h-2v-4.4l2-.1zM64.8 17.2l1.2-3.6h5.8l1.2 3.6h3.7l-.7-1.8c-3.8-1.9-8-3.5-12.4-4.7l-2.4 6.6h3.6v-.1z"/><g fill="#F7F8F8"><path d="M3.9 26.7v-5.2h.9v.7c.4-.6 1-.9 1.8-.9.3 0 .7.1.9.2.3.1.5.3.6.4s.2.4.3.6c0 .2.1.4.1.9v3.2h-1v-3c0-.4 0-.6-.1-.8s-.2-.3-.4-.4c-.2-.1-.4-.2-.7-.2-.4 0-.8.1-1.1.4-.3.2-.4.7-.4 1.4v2.8l-.9-.1zM17.2 25l1 .1c-.2.5-.4.9-.9 1.2-.4.3-1 .4-1.6.4-.8 0-1.5-.2-2-.7s-.7-1.1-.7-2 .2-1.5.7-2 1.1-.7 1.9-.7c.8 0 1.4.2 1.9.7s.7 1.1.7 2v.2h-4.3c0 .6.2 1 .5 1.3s.7.5 1.2.5c.4 0 .7-.1.9-.3.2-.2.5-.3.7-.7zM14 23.6h3.2c0-.4-.2-.8-.4-1-.3-.3-.7-.5-1.2-.5-.4 0-.8.1-1.1.4-.3.3-.5.7-.5 1.1zM24.8 25.9l.1.8c-.3.1-.5.1-.7.1-.4 0-.6 0-.8-.2-.2-.1-.3-.2-.4-.4-.1-.2-.1-.5-.1-1v-3h-.7v-.7h.7v-1.3l1-.5v1.8h1v.7h-1v3c0 .3 0 .4.1.5 0 .1.1.1.2.2.1 0 .2.1.3.1 0 0 .1 0 .3-.1zM30.1 26.7l-1.7-5.2h1l.9 3 .3 1.1c0-.1.1-.4.3-1.1l.9-3h1l.9 3 .3 1 .3-1 1-3h.9l-1.8 5.2h-1l-.9-3.1-.2-.9-1.2 4h-1zM39.9 24.1c0-1 .3-1.7.9-2.1.5-.4 1.1-.6 1.8-.6.8 0 1.4.2 1.9.7.5.5.7 1.1.7 1.9 0 .7-.1 1.2-.3 1.6-.2.4-.5.7-1 .9-.4.2-.9.3-1.4.3-.8 0-1.4-.2-1.9-.7-.4-.4-.7-1.1-.7-2zm1 0c0 .7.2 1.2.5 1.5s.7.5 1.2.5.9-.2 1.2-.5.5-.8.5-1.5c0-.6-.2-1.1-.5-1.5-.3-.3-.7-.5-1.2-.5s-.9.2-1.2.5c-.3.4-.5.9-.5 1.5zM49.7 26.7v-5.2h.9v.8c.2-.4.4-.6.6-.7.2-.1.4-.2.6-.2.3 0 .7.1 1 .3l-.3.8c-.2-.1-.5-.2-.7-.2s-.4.1-.6.2c-.2.1-.3.3-.4.5-.1.3-.2.7-.2 1v2.7h-.9zM56.7 26.7v-7.1h1v4l2.3-2.1h1.3l-2.2 1.9 2.4 3.3h-1.2L58.4 24l-.7.6v2.1h-1zM65.1 25.2l1-.1c.1.3.2.6.4.8s.6.3 1 .3.8-.1 1-.2c.2-.2.3-.4.3-.6 0-.2-.1-.4-.3-.5-.1-.1-.5-.2-1-.3-.7-.2-1.2-.3-1.5-.4s-.5-.3-.6-.5-.2-.4-.2-.7c0-.2.1-.4.2-.6.1-.2.3-.4.5-.5.1-.1.4-.2.6-.3.3-.1.5-.1.8-.1.4 0 .8.1 1.2.2.3.1.6.3.8.5s.3.5.3.8l-.9.1c0-.3-.2-.5-.4-.6-.2-.2-.5-.2-.9-.2s-.8.1-1 .2-.3.3-.3.5c0 .1 0 .2.1.3s.2.2.4.2c.1 0 .4.1.9.2.7.2 1.2.3 1.4.4.3.1.5.3.6.5s.2.5.2.8-.1.6-.3.8-.5.5-.8.6c-.4.1-.8.2-1.2.2-.7 0-1.3-.1-1.7-.4-.3-.5-.5-.9-.6-1.4z"/></g></svg>