<svg xmlns="http://www.w3.org/2000/svg" width="107.5" height="63.4"><path fill="#FFF" stroke="#040000" stroke-miterlimit="10" d="M95 62.9H12.5c-6.6 0-12-5.4-12-12V12.5c0-6.6 5.4-12 12-12H95c6.6 0 12 5.4 12 12v38.4c0 6.5-5.4 12-12 12z"/><g fill="#070001"><path d="M29.8 20.9h1.1v-7.4h-1.1zM35.3 15.9h1V15l-.2-.5-.5-.6-.5-.2h-.5l-.6.2-.4.5-.2.5V16l.2.9.7.5.6.6.4.8v.2l-.2.4-.2.1-.3-.1-.2-.2v-.8h-1.1v1l.1.6.5.4.7.4h.5l.5-.4.5-.5.2-.5V18l-.3-.6-.7-1-.4-.1-.3-.6V14.9h.4l.3.6zM40.5 15.5v.5h1.1v-.7l-.1-.8-.5-.3-.4-.5-.6-.2-.7.4-.5.6-.3 1v3.4l.3.9.5.6.6.4h.6l.6-.4.5-.6V18h-1.1v.9l-.2.5-.3.1v-.1l-.2-.4v-3.6l.1-.5h.4zM58.6 13.5H60l.6 2.5.5-2.5h1.4L61.3 18v2.9H60v-2.7zM66.1 15.9h1V15l-.1-.5-.6-.6-.4-.2h-.5l-.6.2-.4.5-.2.5V16l.3.9.5.5.5.6.5.8v.2l-.2.4-.3.1-.1-.1-.2-.2v-.8h-1.2v1l.2.6.5.4.7.4h.5l.6-.4.4-.5.1-.5V18l-.2-.6-.8-1-.5-.1-.1-.6V14.9h.4l.2.6zM55.9 14.2h1.6v-1.3l-.5-1-.5-.7-.7-.3h-.9l-.8.3-.5.7-.1 1v1.4l.3 1.1.7.9.9.6.5 1v.5l-.3.5-.2.1-.3-.1-.3-.5v-1h-1.7v1.4l.4 1 .6.6.8.4h.9l.8-.4.4-.6.3-1v-1.6l-.2-.9-.3-.8-.9-.6-.5-.5-.5-.7v-.8l.2-.4h.5l.3.4v.5z"/></g><path fill="#070001" d="M70.1 15h-1v-1.5h3.2V15h-.9v5.9h-1.3z"/><path fill="none" d="M70.1 15h-1v-1.5h3.2V15h-.9v5.9h-1.3V15"/><g fill="#070001"><path d="M75.6 14.9v1.5h1.5v1.3h-1.5v1.7h1.7v1.5h-2.8v-7.4h2.6v1.4zM80.8 20.8v-4.1l.7 4.2h1l.5-4.1v4.1h1.1v-7.4h-1.5l-.7 3.9-.6-3.9h-1.5v7.4zM88.5 15.9h1V15l-.2-.5-.5-.6-.4-.2h-.6l-.7.2-.1.5-.4.5V16l.4.9.5.5.6.6.4.8v.2l-.1.4-.3.1-.3-.1v-.2l-.2-.3v-.5h-1.1v1l.3.6.3.4.7.4h.6l.5-.4.4-.5.2-.5V18l-.4-.6-.6-1-.4-.1-.3-.6V15l.1-.1h.2l.4.6zM45.6 15.7v.3h1.3v-.6l-.3-.9-.5-.6-.5-.2h-.5l-.6.2-.5.6-.2 1v3.4l.2.9.4.6.6.4h.6l.8-.4.4-.6.1-.9V18h-1.3v1.4l-.2.1-.3-.1-.1-.5v-3.4l.1-.6h.5v.4z"/><path d="M45.6 18h1.3v-2h-1.3zM26.3 13.2v.7h1.1v-.7l-.3-1-.5-.9-.6-.3-.7-.1-.7.1-.6.8-.4.7-.1.9v5.5l.4.9.2.5.9.2.6.3.7-.4.5-.4.5-1 .1-1v-1.1h-1.1V18l-.4 1-.3.2-.5-.2-.1-.1-.1-.9v-4.6l.1-.9.3-.2h.3l.3.1.2.4zM81.9 48.8v-2.9h.7v2.9h1.7v-1.9h1v1.9h1.5v-1.5h.8v1.5h1.7V23.7H23.6v25.1h1.7v-1.5h1v1.5h1.5v-2.1h.8v2.1h1.8v-2.9h.7v2.9h1.5v-4.6h1v4.6h1.7v-7.1h.8v7.1h1.5V37.5h.9v11.3H40V32.3h.9v16.5h1.7V37.5h.8v11.3H45v-7.1h.8v7.1h1.7v-4.6h.8v4.6h1.6v-2.9h1v2.9h1.5v-1.9h.7v1.9h1.7v-1.5h1v1.5h1.5v-1.5h.8v1.5h1.7v-1.9h.8v1.9h1.5v-2.9h1v2.9h1.7v-4.6h.7v4.6H67v-7.1h1v7.1h1.5V37.5h.9v11.3h1.5V32.3h1v16.5h1.6V37.5h.8v11.3H77v-7.1h.8v7.1h1.6v-4.6h1v4.6z"/></g><g fill="#FFF"><path d="M26.3 48.3v-1.6h-.9v1.6z"/><path d="M25 46.3h1.7v2.4H25zM28.6 48.3h-.8v-2h.8z"/><path d="M27.4 45.9h1.7v2.9h-1.7zM31.1 48.3v-2.8h-.7v2.8z"/><path d="M29.9 45.2h1.7v3.7h-1.7zM33.6 48.3v-4.8h-1v4.8z"/><path d="M34.1 48.7h-1.8v-5.5h1.8v5.5zm-1-.8v-3.8 3.8zM36.1 48.3V41h-.8v7.3z"/><path d="M34.6 40.7h1.7v8h-1.7zM38.5 48.3V36.9h-.9v11.4z"/><path d="M39.1 48.7h-1.8V36.6h1.8v12.1zm-1-.8V37.6v10.3zM40.9 48.3V31.7H40v16.6z"/><path d="M39.6 31.3h1.7v17.4h-1.7zM43.4 48.3V36.9h-.8v11.4z"/><path d="M42.1 36.5h1.7v12.1h-1.7zM45.8 48.3V41H45v7.3z"/><path d="M44.5 40.7h1.7v8h-1.7zM48.3 48.3v-4.5h-.8v4.5z"/><path d="M47.1 43.4h1.7v5.5h-1.7zM53.1 48.3v-1.9h-.7v1.9z"/><path d="M52 45.9h1.7v2.8H52zM55.8 48.3v-1.6h-1v1.6z"/><path d="M54.4 46.3h1.8v2.4h-1.8zM58.1 48.3v-1.6h-.8v1.6z"/><path d="M56.9 46.3h1.7v2.4h-1.7z"/><g><path d="M60.6 48.3v-1.9h-.8v1.9z"/><path d="M59.3 45.9H61v2.8h-1.7z"/></g><g><path d="M63.1 48.3v-2.8h-1v2.8z"/><path d="M61.6 45.2h1.7v3.7h-1.7z"/></g><g><path d="M65.5 48.3v-4.5h-.7v4.5z"/><path d="M64.1 43.4h1.7v5.5h-1.7z"/></g><g><path d="M68 48.3V41h-1v7.3z"/><path d="M68.4 48.7h-1.8v-8h1.8v8zm-.8-.8v-6.3 6.3z"/></g><g><path d="M70.4 48.3V36.9h-.9v11.4z"/><path d="M69.1 36.5h1.7v12.1h-1.7z"/></g><g><path d="M72.9 48.3V31.7h-1v16.6z"/><path d="M73.3 48.7h-1.8V31.3h1.8v17.4zm-.8-.8V32.2v15.7z"/></g><g><path d="M75.3 48.3V36.9h-.8v11.4z"/><path d="M74 36.5h1.7v12.1H74z"/></g><g><path d="M77.8 48.3V41H77v7.3z"/><path d="M76.6 40.7h1.7v8h-1.7z"/></g><g><path d="M80.4 48.3v-4.5h-1v4.5z"/><path d="M80.8 48.7h-1.9v-5.5h1.8l.1 5.5zm-1-.8v-3.7 3.7z"/></g><g><path d="M82.6 48.3v-2.8h-.7v2.8z"/><path d="M81.5 45.2h1.7v3.7h-1.7z"/></g><g><path d="M85.3 48.3v-1.9h-1v1.9z"/><path d="M85.6 48.7h-1.8v-2.8h1.8v2.8zm-1-.8v-1 1z"/></g><g><path d="M87.6 48.3v-1.6h-.8v1.6z"/><path d="M86.4 46.3h1.7v2.4h-1.7z"/></g><g><path d="M50.9 48.3h-1v-2.8h1z"/><path d="M51.3 48.7h-1.8V45h1.8v3.7zm-1-.8v-1.8 1.8z"/></g></g></svg>