<svg xmlns="http://www.w3.org/2000/svg" width="61.1" height="32.9"><path fill="#005568" d="M1.4 15.5c-.8 0-1.4-.6-1.4-1.4v-3.5c0-.8.6-1.4 1.4-1.4s1.4.6 1.4 1.4v3.5c.1.7-.6 1.4-1.4 1.4zM30.5 15.5c-.8 0-1.4-.6-1.4-1.4v-3.5c0-.8.6-1.4 1.4-1.4.8 0 1.4.6 1.4 1.4v3.5c.1.7-.6 1.4-1.4 1.4zM8.4 15.5c-.8 0-1.4-.6-1.4-1.4V6.2c0-.8.6-1.4 1.4-1.4.8 0 1.4.6 1.4 1.4V14c.1.8-.6 1.5-1.4 1.5zM23.4 15.5c-.8 0-1.4-.6-1.4-1.4V6.2c0-.8.6-1.4 1.4-1.4s1.4.6 1.4 1.4V14c0 .8-.6 1.5-1.4 1.5zM15.9 18.4c-.8 0-1.4-.6-1.4-1.4V1.4c0-.8.6-1.4 1.4-1.4s1.4.6 1.4 1.4V17c.1.7-.6 1.4-1.4 1.4zM59.7 15.5c-.8 0-1.4-.6-1.4-1.4v-3.5c0-.8.6-1.4 1.4-1.4s1.4.6 1.4 1.4v3.5c0 .7-.6 1.4-1.4 1.4zM37.7 15.5c-.8 0-1.4-.6-1.4-1.4V6.2c0-.8.6-1.4 1.4-1.4s1.4.6 1.4 1.4V14c0 .8-.6 1.5-1.4 1.5zM52.6 15.5c-.8 0-1.4-.6-1.4-1.4V6.2c0-.8.6-1.4 1.4-1.4.8 0 1.4.6 1.4 1.4V14c0 .8-.7 1.5-1.4 1.5zM45.2 18.4c-.8 0-1.4-.6-1.4-1.4V1.4c0-.8.6-1.4 1.4-1.4s1.4.6 1.4 1.4V17c0 .7-.6 1.4-1.4 1.4z"/><g fill="#C7203C"><path d="M14.3 29.3c0 .4-.1.7-.3 1.1-.1.4-.4.8-.8 1.1-.4.4-.9.7-1.4.9s-1.2.4-1.9.4c-.6 0-1.1-.1-1.6-.1-.4-.1-.9-.3-1.3-.5s-.7-.5-1.1-.9c-.3-.4-.5-.7-.7-1.1-.2-.4-.4-.9-.4-1.4-.1-.5-.1-1-.1-1.5 0-.9.1-1.6.4-2.4.3-.7.6-1.3 1.1-1.8s1-.9 1.6-1.1c.6-.3 1.3-.4 2-.4.9 0 1.6.1 2.4.5.7.4 1.2.8 1.6 1.3.4.5.6 1 .6 1.4 0 .2-.1.5-.3.6s-.4.3-.6.3-.5-.1-.6-.2c-.1-.1-.3-.4-.5-.7-.3-.5-.6-.9-1-1.2s-.9-.4-1.4-.4c-.9 0-1.6.4-2.1 1-.6.6-.8 1.6-.8 2.9 0 .9.1 1.5.4 2.1.2.6.6 1 1 1.2s.9.4 1.5.4 1.1-.1 1.6-.5c.4-.3.8-.8 1-1.4.1-.3.2-.5.4-.7.1-.1.4-.3.6-.3.3 0 .5.1.6.3-.1.3.1.8.1 1.1zM17.1 31.5v-8.4c0-.4.1-.8.3-1s.4-.4.8-.4.6.1.8.4c.2.2.3.6.3 1v8.4c0 .4-.1.8-.3 1s-.5.4-.8.4-.6-.1-.8-.4c-.2-.2-.3-.6-.3-1zM30.6 29.4c0 .6-.1 1.2-.5 1.8s-.9.9-1.5 1.2-1.4.4-2.3.4c-1.1 0-1.9-.2-2.6-.6-.5-.3-.9-.6-1.2-1.1s-.4-.9-.4-1.4c0-.3.1-.5.3-.6.2-.2.4-.3.7-.3.2 0 .4.1.6.2.1.1.3.4.4.6.1.4.3.6.4.9s.4.4.6.6.6.2 1.1.2c.6 0 1.1-.1 1.6-.4.4-.3.6-.6.6-1.1 0-.4-.1-.6-.4-.9s-.5-.4-.9-.5-.8-.2-1.4-.4c-.8-.2-1.4-.4-1.9-.6-.5-.2-.9-.6-1.2-1s-.4-.9-.4-1.6c0-.6.1-1.1.5-1.6s.8-.8 1.4-1.1c.6-.2 1.4-.4 2.1-.4.6 0 1.2.1 1.7.2s.9.4 1.2.6c.3.3.6.6.7.9.1.3.2.6.2.9 0 .3-.1.5-.3.7s-.4.3-.7.3c-.2 0-.4-.1-.6-.2-.1-.1-.3-.4-.4-.6-.2-.4-.4-.7-.7-.9s-.7-.4-1.3-.4-1 .1-1.4.4-.5.6-.5.9c0 .2.1.4.1.6.1.1.3.3.5.4l.6.3c.2.1.6.1 1.1.3.6.1 1.1.3 1.6.5s.9.4 1.3.6c.4.3.6.6.8.9.4.3.5.8.5 1.3zM42.3 29.3c0 .4-.1.7-.3 1.1-.1.4-.4.8-.8 1.1-.4.4-.9.7-1.4.9s-1.2.4-1.9.4c-.6 0-1.1-.1-1.6-.1-.5-.1-.9-.3-1.3-.5s-.7-.5-1.1-.9c-.3-.4-.5-.7-.7-1.1-.2-.4-.4-.9-.4-1.4-.1-.5-.1-1-.1-1.5 0-.9.1-1.6.4-2.4.2-.7.6-1.3 1.1-1.8s1-.9 1.6-1.1c.6-.3 1.3-.4 2-.4.9 0 1.6.1 2.4.5.6.4 1.2.8 1.6 1.3.4.5.6 1 .6 1.4 0 .2-.1.5-.3.6s-.4.3-.6.3-.5-.1-.6-.2c-.1-.1-.3-.4-.5-.7-.3-.5-.6-.9-1-1.2s-.9-.4-1.4-.4c-.9 0-1.6.4-2.1 1-.5.7-.8 1.6-.8 2.9 0 .9.1 1.5.4 2.1.2.6.6 1 1 1.2s.9.4 1.5.4 1.1-.1 1.6-.5.8-.8 1-1.4c.1-.3.2-.5.4-.7.1-.1.4-.3.6-.3s.5.1.6.3.1.8.1 1.1zM49.8 21.7c1.1 0 2.1.2 2.9.6.8.4 1.4 1.1 1.8 1.9.4.9.6 1.8.6 2.9 0 .9-.1 1.6-.4 2.3-.2.7-.6 1.3-1 1.8s-1 .9-1.6 1.1c-.6.3-1.4.4-2.2.4-.9 0-1.6-.1-2.3-.4-.6-.3-1.2-.6-1.6-1.1s-.8-1.1-1-1.8-.4-1.4-.4-2.2c0-.9.1-1.6.4-2.3s.6-1.3 1-1.8 1-.9 1.6-1.1c.7-.1 1.4-.3 2.2-.3zm3.1 5.5c0-.8-.1-1.5-.4-2.1s-.6-1-1.1-1.3c-.4-.3-1-.4-1.6-.4-.4 0-.9.1-1.2.2-.4.1-.7.4-.9.7s-.5.7-.6 1.2-.2 1-.2 1.6.1 1.1.2 1.6.4.9.6 1.2c.3.4.6.6 1 .7.4.1.8.2 1.2.2.6 0 1.1-.1 1.5-.4.4-.3.9-.7 1.1-1.3.3-.4.4-1 .4-1.9z"/></g></svg>