<svg xmlns="http://www.w3.org/2000/svg" width="109.5" height="20.5"><g fill="#FFF"><path d="M0 .4h15.1c3.4 0 6 .1 7.8.4 2.4.3 4.5 1 6.2 1.8 1.7.9 3 1.9 3.9 3.2.9 1.3 1.3 2.8 1.3 4.7 0 1.6-.4 3-1.3 4.2-1 1.4-2.5 2.6-4.4 3.5-1.4.7-3.4 1.2-5.8 1.6-1.8.3-4.3.4-7.3.4H0V.4zm15.4 3.3v13.1s2.9-.1 3.9-.2c1.3-.2 2.5-.4 3.3-.8.9-.4 1.6-1 2.2-1.9s.8-2.1.8-3.6-.3-2.7-.8-3.5c-.6-.8-1.3-1.5-2.3-1.9s-2.3-.8-3.8-.9c-1.2-.2-3.3-.3-3.3-.3zM64.6 12.9l8 1.2c-1.2 2.2-3.3 3.8-6.1 4.8-2.9 1.1-6.5 1.6-10.9 1.6-5.4 0-9.9-.9-13.4-2.7-3.5-1.8-5.3-4.3-5.3-7.4 0-3.3 1.8-5.9 5.3-7.7S50.3 0 56.1 0c5 0 9.1.7 12.2 2.2 1.9.8 3.3 2.1 4.2 3.7l-8.2.9c-.5-1-1.5-1.8-3-2.4s-3.4-.9-5.6-.9c-3 0-4.2.5-6.1 1.6s-2.8 2.8-2.8 5.1c0 2.5.9 4.3 2.8 5.4s2.9 1.6 5.9 1.6c2.2 0 4.1-.3 5.7-1 1.6-.8 2.7-1.9 3.4-3.3zM77 20.2V.4h8.9l13.9 13.2V.4h9.7v19.8H99.2L85.5 7.3v12.9H77z"/></g></svg>