<svg xmlns="http://www.w3.org/2000/svg" width="58.9" height="18.8"><path fill="#FFF" d="M0 18.8V1.6h5.9c1.3 0 2.4.1 3.1.2 1 .2 1.8.6 2.5 1.2.9.8 1.6 1.7 2 2.9.5 1.2.7 2.6.7 4.1 0 1.3-.2 2.5-.5 3.5s-.7 1.8-1.2 2.5-1 1.2-1.6 1.6c-.6.4-1.3.7-2.1.9s-1.7.3-2.8.3H0zm2.3-2H6c1.1 0 2-.1 2.7-.3.6-.2 1.2-.5 1.5-.9.5-.5 1-1.3 1.3-2.2.3-.9.5-2 .5-3.3 0-1.8-.3-3.2-.9-4.2S9.8 4.3 8.9 4c-.6-.2-1.6-.4-2.9-.4H2.4l-.1 13.2zM24 18.7L14.3 7.3 22.9 0 24 1.3l-7.1 6 3 3.5 6.6-5.6 1.1 1.3-6.6 5.6 3.3 3.9 7.3-6.2 1.1 1.4-8.7 7.5zM35.1 17.9V.7h2.3v15.2h8.5v2H35.1zM48.1 17.9V.7h2.3v15.2h8.5v2H48.1z"/></svg>