<svg xmlns="http://www.w3.org/2000/svg" width="92.2" height="24.2"><g fill="#DCDCDC"><path d="M30.1 23.7h-7.5V14H7.5v9.8H0V.2h7.5v9.5h15.1V.2h7.5v23.5zM37.9 18.6c2.4 1.1 5.1 1.8 8.2 1.8 2 0 3.5-.2 4.7-.9 1.1-.7 1.8-1.3 1.8-2.4s-.7-2-2-2.4c-1.3-.7-3.3-.9-5.8-.9h-3.1V10h2.9c4.7 0 7.1-1.1 7.1-3.1s-1.8-3.1-5.3-3.1c-2.4 0-4.7.4-6.9 1.6v-4C41.9.4 44.8 0 48.1 0s6 .4 8.2 1.6c2 1.1 3.1 2.4 3.1 4.2 0 3.1-2.4 5.1-7.1 5.8 2.4.2 4.4.9 6 1.8 1.6 1.1 2.2 2.2 2.2 3.8 0 2.2-1.3 4-3.8 5.3-2.4 1.3-5.8 1.8-9.8 1.8-3.5 0-6.6-.4-8.6-1.1l-.4-4.6zM92 22.8c-2.7.9-6 1.3-10 1.3-5.3 0-9.5-1.1-12.6-3.1-3.1-2.2-4.7-4.9-4.7-8.4 0-3.8 1.8-6.6 5.3-9.1S78 0 83.6 0c3.5 0 6.4.2 8.6.9v4.9c-2.4-.9-5.1-1.3-8.2-1.3-3.5 0-6.2.7-8.2 2.2-2 1.6-3.1 3.3-3.1 5.8 0 2.2.9 4.2 2.9 5.5 2 1.3 4.7 2.2 8 2.2 3.1 0 6-.4 8.6-1.6l-.2 4.2z"/></g></svg>