<svg xmlns="http://www.w3.org/2000/svg" width="37" height="32.1"><ellipse fill="#252525" cx="18.5" cy="16.1" rx="18.5" ry="16.1"/><g fill="#A09F9F" stroke="#A5A5A5" stroke-miterlimit="10"><path d="M7.9 19.5c1.4.2 1.7-.2 2.1-1.9l3-13.1c.4-1.8.3-1.9-1.1-2.6l.1-.3c1 0 2.3-.2 2.9-.3l-2.2 9.5c1.2-1 2.6-1.7 3.9-1.4 1.7.4 2.6 2.1 1.9 5.3l-1.1 4.7c-.4 1.8-.3 2.2 1.1 2.6l-.1.4-4.3-1 .1-.4c1.5.2 1.8-.1 2.2-2l.9-3.8c.6-2.6.3-4.2-1.8-4.6-1.1-.2-2.2.2-3 1l-1.4 6.2c-.4 1.9-.3 2.4 1.2 2.8l-.1.4-4.4-1 .1-.5zM17.8 28.9c1.3.2 1.8-.1 2.2-1.9l2.9-12.6c.4-1.9.4-2-1-2.6l.1-.4c.7 0 2-.2 2.9-.5l-.5 2 3-.8c.3-.1.6-.1.9-.1 2.5.6 3.4 3.3 2.9 5.7-1 4.2-4.3 6.2-7.7 6-.6-.2-1.1-.6-1.3-.9l-.9 4.1c-.5 2.2-.3 2.6 1.6 3.2l-.1.3-4.9-1.1-.1-.4zm4.7-8c.3.8 1.1 1.6 2.2 1.8 1.9.4 4.1-.8 4.9-4.3.6-2.6-.1-5-2.5-5.5-.8-.2-2.2.2-3 .7l-1.6 7.3z"/></g></svg>