<svg xmlns="http://www.w3.org/2000/svg" width="120.7" height="20.9"><g fill="#999899"><path d="M109.9 6.6h4.7v2H109c-1.5 0-2 1-2.4 2.3h8.1v2h-8.2c.3 1.3.9 2.8 2.6 2.8h5.6v2h-5.6c-.8 0-1.4-.1-2-.4-2.1-.9-3.7-2.9-3.7-5.2 0-2 1.1-3.8 2.6-4.8 1.1-.7 2.5-.7 3.9-.7zM40.3 17.8V6.5h2.9V11H49V6.5h2.9v11.3H49v-4.9h-5.8v4.9h-2.9zM55.2 6.5h2.9v6.1c0 1 0 1.6.2 1.9.2.4.5.9.9 1.2.5.3 1.1.4 2 .4.9 0 1.5-.1 1.8-.4.5-.3.6-.6.8-1 .2-.4.2-1 .2-1.9V6.5h3.7v5.9c0 1.3-.2 2.3-.3 2.9s-1.2 1-1.7 1.4c-.5.4-1.1.7-1.7.9-.8.3-1.7.3-2.9.3-1.4 0-2.4-.1-3.2-.4-.8-.3-1.2-.6-1.7-1s-.8-.9-.8-1.3c-.2-.6-.3-1.6-.3-2.9l.1-5.8zm27.7 11.3h-3.2l-1.2-2.6h-5.8l-1.2 2.6h-3.2l5.8-11.3h3.2l5.6 11.3zm-5.5-4.5l-2-4.2-2 4.2h4zm8.3 4.5L82.2 6.5h3l2.3 7.8 2.7-7.8h3.5l2.6 7.8 2.3-7.8h3l-3.5 11.3h-3.2l-3.2-8.4-2.9 8.4h-3.1zm32.1 0V6.5h2.9v11.3h-2.9zM11.4 15.3c0-.1.4-8.5.1-10.4-.3-2.1-1.1-4.6-1.2-4.9 0 0-2-.1-3.2 1.8C6 3.7 6.9 6.5 7.4 8s3.7 7.3 3.8 7.4l.2-.1zm-1.1.8c.1-.3-1.7-4-3.2-6.7-1.4-2.7-3.3-5.7-3.5-5.7-.3 0-1.8 1.9-2 3.7-.1 1.8.5 3 2.4 4.5 1.9 1.6 6.3 4.5 6.3 4.2zm-.5 1c0-.1-4.1-3-5.4-3.7S.3 10.7.2 10.9c-.1 0-.5 2.4.4 4s2.5 2.2 3.3 2.4c.8.1 5.9 0 5.9-.2zm-.1.8l-7.5.3s.7 1.8 2.1 2.5c1.3.7 3.4-.9 3.9-1.3.6-.7 1.5-1.5 1.5-1.5zm2.9-2.6c0-.1-.4-8.5-.1-10.4.3-2.1 1.1-4.6 1.2-4.9 0 0 2-.1 3.2 1.8 1.1 1.9.1 4.7-.4 6.2s-3.7 7.3-3.8 7.4l-.1-.1zm1 .8c-.1-.3 1.7-4 3.2-6.7 1.4-2.7 3.4-5.7 3.6-5.7.3 0 1.8 1.9 2 3.7.1 1.8-.5 3-2.4 4.5-1.9 1.6-6.2 4.5-6.4 4.2zm.7 1c0-.1 4.1-3 5.4-3.7 1.3-.7 4.1-2.7 4.2-2.5.1 0 .5 2.4-.4 4s-2.5 2.2-3.3 2.4c-.9.1-6.1 0-5.9-.2zm0 .8l7.5.3s-.7 1.8-2.1 2.5c-1.3.7-3.4-.9-3.9-1.3-.5-.7-1.5-1.5-1.5-1.5z"/></g></svg>