<svg xmlns="http://www.w3.org/2000/svg" width="56.8" height="22.3"><path fill="#FFF" d="M46.7 3h10.1v1.6H46.1l.6-1.6zm-2.5 7.3l-.5-1.4h-9v1.5h4.9V9.1l.5 1.4h8.3l.4-1.4.1 1.4h4.9V8.9h-9.1l-.5 1.4zM29.7 3H12.6v1.6h17.5c-.1-.6-.2-1.1-.4-1.6zM12.6 19.3h16.9c.3-.4.5-1 .7-1.5H12.7l-.1 1.5zM28.4 1.6c-.4-.4-1-.8-1.6-1-1-.4-2.1-.6-3.2-.6h-11v1.6h15.8zm-1.5 19.9c.4-.2.8-.4 1.2-.8H12.6v1.5h10.7c1.2.1 2.5-.2 3.6-.7zm2.3-8.1c-.2-.3-.4-.6-.7-.9-.2-.2-.4-.4-.7-.6H15.7v1.5h13.5zM15.7 8.9v1.5h12c.3-.2.5-.4.8-.8.2-.2.4-.5.6-.8H15.7v.1zM11 22.3v-1.5H0v1.5h11zm0-4.5H0v1.5h11v-1.5zm0-16.2V0H0v1.6h11zM0 3v1.6h11V3H0zm41.7 0H31.6v1.6h10.7L41.7 3zm-1-3h-9.1v1.6h9.6L40.7 0zm6.5 1.6h9.6V0h-9.1l-.5 1.6zm-4.5 4.3h-8v1.6h8.5l-.5-1.6zm3 0l-.5 1.6h8.6V5.9h-8.1zm3.2 11.9v1.5h7.9v-1.5h-7.9zm-17.3 0v1.5h8v-1.5h-8zm25.2 4.5v-1.5h-7.9v1.5h7.9zm-17.2 0v-1.5h-8v1.5h8zm.9-10.4l.5 1.5h6.3l.6-1.5h-7.4zm1.1 3l.6 1.5h4.2l.5-1.5h-5.3zm-16.4 0v1.5h5c0-.5-.1-1.1-.3-1.5h-4.7zm5-9h-5v1.6h4.7c.2-.5.3-1.6.3-1.6zM3.1 16.4H8v-1.5H3.1v1.5zm31.6-4.5v1.5h4.9v-1.5h-4.9zM8 13.4v-1.5H3.1v1.5H8zm40.9-1.5v1.5h4.9v-1.5h-4.9zM8 7.5V5.9H3.1v1.6H8zm40.9 7.4v1.5h4.9v-1.5h-4.9zm-14.2 0v1.5h4.9v-1.5h-4.9zM3.1 10.5H8V8.9H3.1v1.6zm12.6 4.4v1.5h4.9v-1.5h-4.9zm0-7.4h4.9V5.9h-4.9v1.6zm26.9 10.3l.5 1.5h2.1l.6-1.5h-3.2zm1.6 4.5l.5-1.5h-1.1l.6 1.5z"/></svg>