<svg xmlns="http://www.w3.org/2000/svg" width="66.7" height="16.8"><g fill="#FFF"><path d="M8.4.8H4.2c-.5 0-.5-.7 0-.7h4.4c.2 0 .3.2.3.3V8c0 3.2-4.1 5.4-7.1 3.5C.7 10.9 0 9.7 0 8.4c0-.3.7-.5.7 0 0 1 .7 2 1.5 2.7 2.5 1.5 6.2-.3 6.2-3V.8zM12.8 8c0 2.4 2.2 3.9 4.4 3.4 1.9-.5 3.2-2.4 3.2-4.2V2.8c0-.2.2-.3.3-.3.2 0 .3.2.3.3v8.9c0 .2-.2.3-.3.3-.2 0-.3 0-.3-.3V9c-.5 1.5-1.7 2.7-3 3-2.4.5-5.2-.8-5.2-4.1V2.8c0-.2.2-.3.3-.3.2 0 .3.2.3.3V8zM32.3 6.5c0-2.4-2.2-3.9-4.4-3.4-1.9.5-3.2 2.4-3.2 4.2v4.4c0 .2-.2.3-.3.3s-.4-.1-.4-.3V3c0-.2.2-.3.3-.3s.3.2.3.3v2.5c.5-1.5 1.7-2.5 3-2.9 2.5-.7 5.2.8 5.2 4.1v5.2c0 .2-.2.3-.3.3s-.3-.2-.3-.3l.1-5.4zM36.5 1.3c0 .3-.7.3-.7 0v-1c0-.3.7-.3.7 0v1zM36 3c0-.5.7-.5.7 0v9.1c0 .5-.7.5-.7 0V3zM43.7 12.1c-1.5 0-3-.8-3.5-2.2v5.4c0 .2-.2.3-.3.3-.2 0-.3-.2-.3-.3V3c0-.2.2-.3.3-.3.2 0 .3.2.3.3v1.9c.3-.7.7-1.2 1.4-1.7 1.2-.7 2.7-.8 4.1-.3 2 .8 3 2.7 2.9 4.9 0 1.9-1 3.5-2.9 4.2-.6.1-1.3.1-2 .1zM40 6.5v1.7c.2 1.9 1.5 3.4 3.5 3.4 1.5 0 3.2-.8 3.9-2.4.2-.5.3-1 .3-1.7 0-1.4-.5-2.7-1.7-3.7-.6-.5-1.4-.8-2.3-.8-.7 0-1.2.2-1.9.3-.9.8-1.6 1.8-1.8 3.2zM59.8 7.3c0 .3 0 .7-.5.7h-8.4c.2.8.3 1.5 1 2.2.8.8 2 1.4 3.2 1.4 1 0 2-.3 2.9-1 .3-.3.8.2.5.5-.8.8-2 1.2-3.2 1.2-1.5 0-2.9-.5-3.7-1.7-.8-1-1.2-2.2-1.2-3.5.2-2 1.4-3.9 3.4-4.4.8-.2 1.9-.2 2.9 0 1.7.4 3.1 2.3 3.1 4.6zm-8.8 0h8.3c0-2-1.2-3.5-3-4.1-.7-.2-1.7-.2-2.4 0-1.7.6-2.9 2.3-2.9 4.1zM63 5c.3-1.4 1.9-2.4 3.4-2.4.2 0 .3.2.3.3 0 .2-.2.3-.3.3-2.4 0-3.4 2-3.4 4.2v4.2c0 .2-.2.3-.3.3s-.3-.2-.3-.3V3c0-.2.2-.3.3-.3s.3.1.3.3v2z"/><g><path d="M3.9 15.1c0-.7-1-1-2-.8-.8.2-1.4.7-1.5 1.2v1.2s0 .2-.2.2-.2-.1-.2-.3v-2.5s0-.2.2-.2.2 0 .2.2v.7c.2-.5.8-.7 1.4-.8 1.1-.2 2.3.1 2.1 1.1l.2 1.4s0 .2-.2.2-.2 0-.2-.2l.2-1.4zM9.6 15.3s0 .2-.3.2H5.6c0 .2.2.5.5.7.3.3.8.3 1.4.3s.8 0 1.4-.3c.2 0 .3 0 .2.2-.3.2-.8.3-1.5.3s-1.4-.2-1.7-.5c-.3-.3-.5-.5-.5-1s.7-1 1.5-1.2h1.2c.8.1 1.5.6 1.5 1.3zm-4 0h3.7c0-.5-.5-1-1.4-1.2h-1c-.8.2-1.3.7-1.3 1.2zM12.5 13.9c.3 0 .3.2 0 0l-1.2.2v1.5c0 .3.2.7.8.7h.5c.2 0 .3 0 .2.2-.2 0-.3.2-.7.2-1 0-1.2-.5-1.2-.8v-1.5h-.8c-.2 0-.2-.2 0-.2h.9v-.8c0-.2.3-.2.3 0v.7l1.2-.2zM13.8 13.9l1.7 2.4 1.5-2h.3l1.7 2 1.7-2.2c0-.2.3 0 .3 0l-1.7 2.5H19l-1.5-2-1.7 2h-.3c-.6-1-1-1.5-1.7-2.7-.5 0-.1 0 0 0zM21.6 16.1c-.3-.3-.5-.5-.5-1s.7-1 1.5-1.2h1.2c.8.2 1.5.7 1.5 1.2 0 .3-.2.7-.5 1-.3.3-1 .5-1.7.5-.6 0-1.1-.1-1.5-.5zm1.2-2c-1.4.2-1.7 1.2-.8 1.9.3.2.8.3 1.4.3s1-.2 1.5-.3c.8-.7.3-1.7-.8-1.9h-1.3zM26.8 14.6c.2-.3.8-.7 1.5-.7.2 0 .2 0 .2.2s0 .2-.2.2c-1 0-1.5.5-1.5 1.2v1.2s0 .2-.2.2-.2 0-.2-.2v-2.4s0-.2.2-.2c0 0 .2 0 .2.2v.3zM32.1 13.9c.2-.1.3 0 0 0l-1.7 1.2 2 1.4c.2.2-.2.2-.2.2l-2-1.4-.7.3v.8c0 .2-.3.2-.3 0v-3.2c0-.2.3-.2.3 0v2l2.6-1.3zM33.3 16c.2.3.8.5 1.7.5.5 0 1.5-.2 1.5-.5 0-.8-3.4 0-3.4-1.2 0-.5 1-.7 1.7-.7s1.5 0 1.9.5c0 .2-.2.2-.3 0-.2-.3-1-.3-1.5-.3-.7 0-1.5.2-1.5.5 0 .8 3.4 0 3.4 1.2 0 .7-1.2.7-1.9.7s-1.7-.2-1.9-.7c-.1-.2.3-.2.3 0z"/></g></g></svg>