<svg xmlns="http://www.w3.org/2000/svg" width="75.4" height="26.8"><g fill="#C9C9C9"><path d="M10.9 0v15.7c0 .9-.2 1.7-.6 2.3-.4.6-.9 1-1.5 1H2.1c-.6 0-1.1-.3-1.5-.9S0 16.8 0 16v-2.1h1.2V16c0 .3.1.6.3.9.2.2.4.4.7.4h6.5c.3 0 .5-.1.7-.4s.3-.6.3-1V1.6H7.5V0h3.4zM12.4 6.1h1.2v9.6c0 .4.1.8.3 1 .2.3.4.4.7.4h6.7c.3 0 .5-.1.7-.4s.3-.6.3-1V6.1h1.2v9.6c0 .9-.2 1.7-.6 2.3-.4.6-.9 1-1.5 1h-6.7c-.6 0-1.1-.3-1.5-1-.4-.6-.6-1.4-.6-2.3V6.1h-.2zM35.7 18.8h-1.2V9.2c0-.4-.1-.8-.3-1-.2-.3-.4-.4-.7-.4h-6.7c-.3 0-.5.1-.7.4-.2.3-.3.6-.3 1v9.6h-1.2V9.2c0-.9.2-1.7.6-2.3s.9-.9 1.5-.9h6.7c.6 0 1.1.3 1.5.9.4.6.6 1.4.6 2.3v9.6h.2zM37.1 0h1.2v3h-1.2V0zm0 6.1h1.2v12.8h-1.2V6.1zM48.4 6.2c.6 0 1.1.3 1.5 1s.6 1.4.6 2.3v6.4c0 .9-.2 1.7-.6 2.3-.4.6-.9 1-1.5 1h-6.7c-.3 0-.7-.1-1-.3v7.9h-1.2V9.3c0-.9.2-1.7.6-2.3s.9-1 1.5-1l6.8.2zm1 3.1c0-.4-.1-.8-.3-1-.2-.3-.4-.4-.7-.4h-6.7c-.3 0-.5.1-.7.4-.2.3-.3.6-.3 1v6.4c0 .4.1.7.3 1s.4.4.7.4h6.7c.3 0 .5-.1.7-.4s.3-.6.3-1V9.3zM53.2 13.3v2.4c0 .4.1.8.3 1 .2.3.4.4.7.4h7.5v1.8h-7.5c-.6 0-1.1-.3-1.5-1-.4-.6-.6-1.4-.6-2.3V9.2c0-.9.2-1.7.6-2.3.4-.6.9-1 1.5-1h6.7c.6 0 1.1.3 1.5 1 .4.6.6 1.4.6 2.3v4h-9.8v.1zm.9-5.4c-.3 0-.5.1-.7.4-.2.3-.3.6-.3 1v2.3h8.6V9.2c0-.4-.1-.7-.3-1s-.4-.4-.7-.4l-6.6.1zM73.3 6.1c.6 0 1.1.3 1.5.9.4.6.6 1.2.6 2v2h-1.2V9c0-.3-.1-.6-.3-.8s-.4-.3-.7-.3h-7.7V19h-1.2V6.1h9z"/><g><path d="M41.6 24.4h-.4v-2.8c0-.2.1-.3.2-.3s.3 0 .4.2l2.4 2.6v-2.8h.4v2.8c0 .2-.1.3-.2.3s-.3 0-.4-.2l-2.4-2.6v2.8zM48.6 21.3v.3h-3.3v1.6h2.9v.3h-2.9v.7h3.3v.3H45v-3.2h3.6zM52.8 21.3v.3H51v2.9h-.4v-2.9h-1.8v-.3h4zM59.7 21.3l-1.5 2.9c-.1.2-.2.2-.3.2-.2 0-.3-.1-.3-.2l-1.2-2.3-1.2 2.3c-.1.2-.2.2-.3.2-.1 0-.3-.1-.3-.2l-1.5-3h.4L55 24l1.5-3 1.6 3 1.4-2.8.2.1c0-.1 0 0 0 0zM60.6 24.4c-.2 0-.3-.1-.5-.2-.1-.1-.2-.2-.2-.4v-2c0-.1.1-.3.2-.4s.3-.2.5-.2h2.1c.2 0 .3.1.5.2.1.1.2.2.2.4v2.1c0 .1-.1.3-.2.4s-.3.2-.5.2l-2.1-.1zm0-2.8c-.1 0-.2 0-.2.1-.1 0-.1.1-.1.2V24c0 .1 0 .1.1.2.1 0 .1.1.2.1h2.1c.1 0 .2 0 .2-.1.1 0 .1-.1.1-.2v-2.1c0-.1 0-.1-.1-.2-.1 0-.1-.1-.2-.1h-2.1zM67.1 24.4h-.5l-1.3-1H64v1h-.4v-3.2h2.7c.2 0 .3.1.5.2.1.1.2.2.2.4v1.1c0 .1-.1.3-.2.4-.1.1-.3.2-.5.2h-.6l1.4.9zm-.7-1.2c.1 0 .2 0 .2-.1.1 0 .1-.1.1-.2v-1c0-.1 0-.1-.1-.2-.1 0-.1-.1-.2-.1H64v1.6h2.4zM70.6 21.3L69 22.9l1.6 1.6h-.5l-1.5-1.4h-.8v1.4h-.4v-3.2h.4v1.4h.9l1.5-1.4h.4zM71.6 24.4c-.2 0-.3 0-.5-.1-.1-.1-.2-.2-.2-.3v-.3h.4v.3c0 .1 0 .1.1.1s.1.1.2.1h2.1c.1 0 .2 0 .2-.1.1 0 .1-.1.1-.2v-.1c0-.1 0-.2-.1-.2l-.2-.2-2.1-.7c-.2-.1-.3-.1-.4-.3-.1-.1-.2-.3-.2-.4v-.2c0-.1.1-.3.2-.4.1-.1.3-.2.5-.2h2.1c.2 0 .3 0 .5.1.1.1.2.2.2.3v.3h-.6v-.3c0-.1 0-.1-.1-.1s-.1-.1-.2-.1h-2.1c-.1 0-.2 0-.2.1-.1 0-.1.1-.1.2v.1c0 .1 0 .2.1.2l.2.2 2.1.7c.2.1.3.1.4.3.1.1.2.3.2.4v.1c0 .1-.1.3-.2.4-.1.1-.3.2-.5.2l-1.9.1z"/></g></g></svg>