<svg xmlns="http://www.w3.org/2000/svg" width="145.5" height="32.8"><g fill="#FFF"><path d="M0 0h33.8v3.1H0zM0 4.1h33.8v3.1H0zM0 8.5h33.8v3.1H0zM0 12.5h33.8v3.1H0zM0 17.1h33.8v3.1H0zM0 21.5h33.8v3.1H0zM0 25.9h33.8V29H0zM0 29.7h33.8v3.1H0z"/></g><path fill="#3B64E5" d="M8.3 29.4h17.4c3.6-2.6 5.8-6.9 5.8-11.7 0-8-6.5-14.5-14.5-14.5-8.1 0-14.6 6.5-14.6 14.6.1 4.7 2.4 9 5.9 11.6z"/><g fill="#FFF"><path d="M36.5 31.6v-5.8h.9l3.6 4.5v-4.5h.9v5.8H41l-3.6-4.5v4.5h-.9z"/><path d="M42.1 31.9h-1.2l-3.3-4.1v4.1h-1.3v-6.2h1.2l3.3 4.1v-4.1H42l.1 6.2zm-1-.4h.6v-5.4h-.5V31l-3.9-4.9h-.6v5.4h.5v-4.9l3.9 4.9zM43.5 31.6v-5.8h5v.7h-4.1v1.8h3.8v.7h-3.8v2h4.2v.6h-5.1z"/><path d="M48.8 31.9h-5.5v-6.2h5.4v1.1h-4.1v1.4h3.8v1.1h-3.8v1.6h4.2v1zm-5.1-.4h4.8v-.2h-4.2V29h3.8v-.3h-3.8v-2.2h4.1v-.3h-4.6l-.1 5.3zM51.6 31.6v-5.1h-2.3v-.7h5.5v.7h-2.3v5.1h-.9z"/><path d="M52.7 31.9h-1.3v-5.1h-2.3v-1.1h5.8v1.1h-2.3v5.1zm-.9-.4h.5v-5.1h2.3v-.3h-5.1v.3h2.3v5.1zM56.9 31.6l-1.8-5.8h.9l1 3.7.3 1.2c.2-.6.3-.9.3-1.1l1.3-3.9H60l1 2.9c.2.7.4 1.4.5 2l.3-1.2 1.1-3.7H64l-2 5.8h-.9l-1.5-4.4c-.2-.4-.2-.6-.2-.7-.1.2-.2.5-.2.7l-1.5 4.4h-.8v.1z"/><path d="M62.2 31.9H61l-1.6-4.5c0-.1 0-.1-.1-.2l-.1.2-1.6 4.5h-1.1l-1.9-6.2H56l1.1 3.9c0 .2.1.3.2.5V30c.1-.2.1-.2.1-.3v-.1l1.4-4.1h1.4l1.1 3c.2.5.2.9.4 1.3.1-.2.1-.3.1-.5l1.2-3.8h1.3l-2.1 6.4zm-.4-.4h.2l1.9-5.5h-.5l-1 3.5c-.1.2-.1.5-.2.7-.1.2-.1.3-.2.5l-.2.8zm-.5 0h.4l-.2-1.1c-.2-.5-.2-1.1-.5-1.6l-.9-2.8h-.8L58 29.8c0 .1-.1.2-.1.4-.1.2-.2.4-.2.7l-.2.6h.2l1.8-5.2.2.2c.1.1.1.2.2.3 0 .1.1.2.2.5l1.2 4.2zm-4.2 0h.2l-.2-.6c0-.2-.1-.4-.2-.5-.1-.2-.2-.4-.2-.6l-.9-3.6h-.5l1.8 5.3z"/><g><path d="M64.5 28.8c0-.9.3-1.7.9-2.3.6-.5 1.4-.8 2.3-.8.6 0 1.2.2 1.7.4s.9.6 1.2 1.1c.2.5.4.9.4 1.6 0 .5-.2 1.1-.4 1.6-.3.5-.7.8-1.2 1-.5.2-1.1.4-1.6.4-.6 0-1.2-.2-1.7-.4s-.9-.6-1.2-1.1c-.3-.5-.4-1-.4-1.5zm.9 0c0 .7.2 1.2.7 1.6s1 .6 1.6.6c.7 0 1.2-.2 1.7-.6s.6-1 .6-1.7c0-.5-.1-.9-.3-1.2-.2-.3-.5-.6-.9-.8-.4-.2-.8-.3-1.2-.3-.6 0-1.2.2-1.6.5-.4.4-.6 1.1-.6 1.9z"/><path d="M67.8 32c-.6 0-1.2-.2-1.8-.4-.6-.2-.9-.7-1.2-1.2-.5-.6-.5-1.2-.5-1.6 0-1 .3-1.9 1-2.4.6-.5 1.5-.9 2.5-.9.5 0 1.2.2 1.8.4.6.2.9.7 1.2 1.2.2.4.4.9.4 1.6 0 .7-.2 1.2-.4 1.6-.3.5-.7.9-1.2 1.1-.7.5-1.3.6-1.8.6zm-.1-6c-.9 0-1.6.2-2.2.7-.5.5-.9 1.2-.9 2.1 0 .4.1.9.5 1.4.3.5.6.9 1.1 1 .5.2 1.1.4 1.6.4s.9-.2 1.6-.4c.5-.2.8-.5 1.1-.9.2-.3.4-.9.4-1.5 0-.5-.1-.9-.4-1.5-.3-.5-.6-.8-1.1-1-.7-.2-1.2-.3-1.7-.3zm0 5.3c-.6 0-1.2-.2-1.8-.7-.5-.4-.8-1-.8-1.8 0-.9.2-1.6.7-2 .5-.4 1.1-.6 1.8-.6.5 0 .9.2 1.3.3.4.2.8.5.9.9.2.4.3.8.3 1.3 0 .9-.2 1.5-.7 1.9-.4.5-1 .7-1.7.7zm-.1-4.7c-.6 0-1.1.2-1.5.5-.4.4-.5.9-.5 1.7 0 .6.2 1.2.6 1.5.5.4.9.5 1.5.5s1.1-.2 1.6-.5c.4-.3.5-.9.5-1.6 0-.5-.1-.8-.3-1.2-.2-.3-.5-.5-.8-.7-.3 0-.6-.2-1.1-.2z"/></g><g><path d="M72.1 31.6v-5.8h3c.6 0 1.1.1 1.4.2s.5.3.8.5c.2.2.3.5.3.9s-.2.8-.5 1c-.3.3-.8.5-1.5.5.2.1.4.2.5.3l.8.8 1.2 1.6H77l-.9-1.2c-.2-.3-.5-.6-.6-.8-.2-.2-.3-.3-.5-.4-.2-.1-.3-.2-.4-.2H73v2.5l-.9.1zm1-3.2H75c.4 0 .7 0 .9-.1.2-.1.4-.2.5-.3.2-.2.2-.3.2-.5s-.2-.5-.4-.7c-.2-.2-.6-.2-1.1-.2H73l.1 1.8z"/><path d="M78.6 31.9H77l-1-1.2c-.2-.3-.5-.6-.6-.8l-.4-.4c-.1-.1-.2-.2-.3-.2h-1.3v2.5H72v-6.2h3.2c.7 0 1.2.1 1.5.2.4.1.6.3.9.6.2.4.4.7.4 1 0 .5-.2.9-.5 1.2-.2.2-.5.4-1 .5l.1.1.2.2.5.5 1.3 2zm-1.5-.4h.7l-.9-1.2c-.2-.2-.3-.4-.5-.5l-.2-.2c-.2-.2-.2-.2-.5-.2l-.9-.3.9-.1c.7-.1 1.1-.2 1.4-.5.2-.2.4-.5.4-.9 0-.2-.1-.5-.3-.8-.2-.2-.4-.4-.7-.5-.3-.1-.7-.2-1.3-.2h-2.8v5.4h.5V29h1.8c.1 0 .2.1.5.2.2.1.4.2.5.4.2.2.4.5.6.8l.8 1.1zM75 28.6h-2.1l-.1-2.3h2.4c.4 0 .9.1 1.2.2.3.3.5.6.5.9s0 .5-.2.7c-.2.2-.4.3-.6.4-.4.1-.7.1-1.1.1zm-1.8-.4H75c.4 0 .7 0 .9-.1.2-.1.3-.2.5-.2.1-.1.1-.2.1-.4s-.1-.3-.3-.5c-.2-.1-.5-.2-.9-.2h-1.9v1.4z"/></g><g><path d="M79 31.6v-5.8h.9v2.9l3.4-2.9h1.2l-2.9 2.3 3 3.4h-1.2L81 28.6l-1.1.9v1.9H79z"/><path d="M85.2 31.9h-1.7l-2.3-2.8-.9.8v2h-1.5v-6.2h1.3v2.6l3.2-2.6h1.9l-3.1 2.6 3.1 3.6zm-1.5-.4h.6l-2.9-3.3 2.6-2.1h-.6l-3.7 3.1v-3.1h-.5v5.4h.7v-1.9l1.3-1.1 2.5 3z"/></g><g><path d="M85.1 29.8l.9-.1c.1.3.2.5.3.7.2.2.4.3.7.5.3.1.6.2 1 .2.3 0 .6-.1.9-.2.2-.1.5-.2.6-.4.2-.2.2-.3.2-.5s-.1-.3-.2-.5c-.2-.2-.3-.2-.6-.3-.2-.1-.6-.2-1.2-.3-.6-.2-1.1-.2-1.3-.4-.3-.2-.5-.3-.7-.5-.2-.2-.2-.5-.2-.7 0-.3.1-.5.3-.8.2-.2.5-.5.9-.5.4-.2.8-.2 1.2-.2.5 0 .9.1 1.3.2s.7.3.9.6c.2.2.3.5.3.9l-.9.1c-.1-.4-.2-.6-.5-.9-.2-.2-.7-.3-1.2-.3s-.9.1-1.2.2c-.2.2-.4.4-.4.6 0 .2.1.4.2.5.2.2.6.2 1.4.4.7.2 1.2.2 1.5.4.4.2.7.3.9.6.2.2.3.5.3.9s-.1.6-.3.9c-.2.2-.5.5-.9.6-.4.2-.9.2-1.3.2-.6 0-1.2-.1-1.6-.2s-.8-.4-1-.7c-.2-.3-.3-.7-.3-1z"/><path d="M87.9 32c-.6 0-1.2-.1-1.6-.2-.3-.2-.8-.4-1.1-.8v-.1c-.2-.4-.2-.7-.3-1.1l-.1-.2 1.2-.1.1.2c.1.3.2.5.2.6.2.2.4.3.6.5.2.1.5.2.9.2.3 0 .5-.1.9-.2.2-.1.4-.2.5-.3.1-.1.1-.2.1-.3 0-.1-.1-.2-.2-.4-.2-.1-.2-.2-.5-.2-.1-.1-.3-.1-.6-.2-.2-.1-.4-.1-.6-.2-.2 0-.3-.1-.4-.1-.5-.1-.8-.2-.9-.3-.2-.2-.5-.3-.8-.6-.2-.2-.2-.5-.2-.8 0-.4.1-.6.4-.9.2-.2.5-.5.9-.6.4-.2.8-.2 1.2-.2.5 0 .9.1 1.4.2.4.2.8.3.9.7.2.2.3.6.3 1v.2H89v-.2c-.1-.4-.2-.5-.4-.8-.2-.1-.6-.2-1-.2-.5 0-.9.1-1.1.2-.2.2-.3.3-.3.5s.1.3.2.4c.1.1.5.2 1.1.3l.2.1c.2 0 .3.1.5.1.5.1.9.2 1.1.3.3.2.7.3.9.7.2.3.3.6.3.9 0 .4-.2.8-.4 1-.3.3-.6.5-1 .7-.2.1-.7.2-1.2.2zm-2.4-1.2c.2.2.5.5.9.6s.9.2 1.5.2c.5 0 .9-.1 1.2-.2.3-.2.6-.3.9-.5.2-.2.2-.4.2-.7 0-.2-.1-.5-.3-.8-.2-.2-.4-.4-.8-.5-.2-.1-.5-.2-.9-.3-.2 0-.3-.1-.5-.1l-.2-.1c-.7-.2-1.1-.2-1.2-.4-.2-.2-.3-.4-.3-.7 0-.3.2-.6.5-.8.2-.2.7-.2 1.2-.2s1 .2 1.2.3c.3.2.4.5.5.8l.5-.1c0-.3-.1-.5-.2-.6v-.1c-.2-.2-.4-.4-.8-.5-.4-.2-.8-.2-1.2-.2s-.8.1-1.2.2c-.4.1-.5.3-.8.5-.2.2-.2.4-.2.6s.1.4.2.6c.2.2.3.3.6.5.2.1.5.2.9.3.2 0 .2.1.4.1.2.1.5.1.6.2.3.1.5.2.6.2.3.1.5.2.7.3v.1c.1.2.2.4.2.5 0 .2 0 .4-.2.6-.2.2-.5.4-.7.5-.3.1-.6.2-1 .2s-.8-.1-1.1-.2c-.4-.2-.6-.3-.8-.5-.2-.2-.2-.4-.3-.6l-.5.1c.3.1.4.4.4.7z"/></g></g><g fill="#FFF"><path d="M37.5 17.1l2.6-.3c.1 1.5.4 2.5.9 3s1.3.9 2.3.9c.7 0 1.3-.2 1.8-.5s.9-.7 1.1-1.2c.2-.5.3-1.3.3-2.4V3.2h2.8v13.2c0 1.6-.2 2.9-.6 3.8-.5.9-1.1 1.6-2 2-.9.5-2 .7-3.3.7-1.9 0-3.3-.5-4.3-1.5-.9-.9-1.4-2.3-1.4-4.1v-.2h-.2z"/><path d="M43.4 23.7c-2.1 0-3.7-.5-4.8-1.7-1.1-1.1-1.6-2.6-1.6-4.7v-.2h.5l-.1-.8 3.4-.4.1.9c.1 1.6.5 2.3.7 2.5.4.4 1 .6 1.7.6.5 0 1-.1 1.3-.3.4-.2.6-.5.8-.9.2-.6.2-1.3.2-2.2V2.3H50v14c0 1.6-.2 3-.7 4.1v.1c-.6 1.1-1.3 1.9-2.3 2.3-1 .6-2.3.9-3.6.9zm-4.9-5.9c.1 1.4.5 2.4 1.2 3.1.9.9 2 1.2 3.7 1.2 1.1 0 2.1-.2 3-.6.7-.4 1.2-.9 1.6-1.6.4-.9.5-2 .5-3.5V4h-1.2v12.6c0 .9-.1 1.8-.3 2.6v.1c-.2.6-.7 1.2-1.4 1.6-.6.4-1.3.6-2.3.6-1.1 0-2.1-.4-2.8-1.1-.5-.5-.9-1.5-1.1-2.7l-.9.1zM63.6 22.6v-2.1c-1.2 1.6-2.8 2.4-4.9 2.4-.9 0-1.8-.2-2.6-.5s-1.4-.7-1.8-1.2c-.4-.5-.6-1.1-.8-1.8-.1-.5-.2-1.2-.2-2.3V8.5H56v7.8c0 1.2.1 2.1.2 2.5.2.6.5 1.1 1 1.5.5.4 1.2.5 1.9.5s1.5-.2 2.2-.5 1.2-.9 1.5-1.5.4-1.6.4-2.7V8.5h2.6v14.1h-2.2z"/><path d="M58.7 23.7c-1 0-2-.2-2.9-.5-.9-.4-1.6-.9-2.1-1.4s-.7-1.2-.9-2.1c-.1-.4-.2-1.2-.2-2.4V7.7h4.2v8.6c0 1.2.1 2 .2 2.3.1.3.3.7.8 1 .3.2.8.4 1.5.4s1.2-.2 1.8-.5c.5-.3.9-.7 1.2-1.2.2-.5.3-1.6.3-2.4V7.7h4.2v15.7h-3.9v-1c-1.3.9-2.7 1.3-4.2 1.3zM54.1 9.3v7.9c0 1.2.1 1.9.2 2.1.2.6.3 1.1.6 1.4.3.3.8.7 1.5.9.7.3 1.5.4 2.3.4 1.8 0 3.3-.7 4.3-2.1l1.4-1.9v3.7h.6V9.3h-1v6.8c0 1.1-.1 2.3-.5 3-.4.8-.9 1.3-1.8 1.8-.8.5-1.6.6-2.6.6s-1.9-.2-2.4-.7c-.7-.5-1.1-1.2-1.2-1.9-.1-.5-.2-1.6-.2-2.6v-7h-1.2zM69.9 22.6V8.5h2.3v2c1.2-1.6 2.7-2.3 4.9-2.3.9 0 1.8.2 2.6.5s1.3.6 1.7 1.1c.4.5.6 1.1.8 1.8.1.5.2 1.2.2 2.3v8.6h-2.5V14c0-.9-.1-1.7-.3-2.2-.2-.5-.5-.9-1.1-1.2-.5-.3-1.1-.5-1.8-.5-1.1 0-2.1.3-2.9.9-.8.6-1.2 1.9-1.2 3.7v7.7l-2.7.2z"/><path d="M83.1 23.4H79V14c0-1.2-.2-1.6-.2-1.9-.2-.4-.4-.6-.8-.9-.5-.2-.9-.4-1.4-.4-.9 0-1.8.2-2.4.8-.6.5-.9 1.6-.9 3v8.5h-3.4v-.7h-.8V7.7H73v.9c1.1-.9 2.5-1.2 4.1-1.2 1 0 2 .2 2.9.5.9.3 1.6.8 2 1.4.5.5.7 1.2.9 2.1.1.4.2 1.2.2 2.5v9.5zm-2.5-1.6h.9v-7.9c0-1.2-.1-1.9-.2-2.2-.2-.6-.3-1.1-.6-1.4-.2-.3-.7-.6-1.3-.9-.7-.3-1.5-.4-2.3-.4-1.9 0-3.2.6-4.2 1.9.1-.2.2-.2.4-.3.9-.7 2.1-1.1 3.3-1.1.8 0 1.5.2 2.2.5.6.4 1.1.9 1.4 1.5.3.5.4 1.3.4 2.5v7.8zm-9.9-.1h1.1v-6.9c0-1.4.3-2.6.8-3.4l-1.1 1.5V9.3h-.8v12.4zM86.5 6.1V3.3h2.6V6h-2.6zm0 16.5V8.5h2.6v14.1h-2.6z"/><path d="M89.8 23.4h-4.2V7.7h4.2v15.7zm-2.6-1.6h1.1V9.3h-1.1v12.5zm2.6-14.9h-4.2V2.6h4.2v4.3zm-2.6-1.6h1.1V4.1h-1.1v1.2z"/><g><path d="M92.9 28V8.5h2.4v1.9c.5-.7 1.2-1.2 1.9-1.6.7-.4 1.6-.5 2.6-.5 1.3 0 2.5.3 3.5.9 1 .6 1.8 1.5 2.3 2.6.5 1.1.8 2.3.8 3.7 0 1.5-.3 2.7-.9 3.9s-1.4 2-2.5 2.6c-1.1.6-2.2.9-3.4.9-.9 0-1.6-.2-2.3-.5-.7-.3-1.2-.8-1.7-1.2v6.9H93l-.1-.1zm2.4-12.3c0 1.8.4 3.1 1.2 4.1.8.9 1.8 1.3 2.9 1.3 1.2 0 2.2-.5 3-1.3.9-.9 1.2-2.3 1.2-4.2 0-1.8-.4-3.1-1.2-4.1-.8-.9-1.8-1.3-2.9-1.3-1.1 0-2.1.5-3 1.4-.8.9-1.2 2.3-1.2 4.1z"/><path d="M96.3 28.9h-4.1V7.7h4v.8c.2-.2.5-.3.7-.5.8-.5 1.7-.6 3-.6 1.5 0 2.8.4 3.9 1 1.2.7 2.1 1.8 2.6 3 .5 1.1.9 2.4.9 4.1 0 1.5-.3 2.9-.9 4.2-.6 1.2-1.6 2.3-2.8 3-1.2.7-2.4 1-3.8 1-.9 0-1.9-.2-2.6-.5l-.6-.3v6zm-2.6-1.6h1v-7.9l1.3 1.3c.4.4.9.8 1.5 1.1.6.2 1.2.4 2 .4 1.1 0 2-.2 3-.9 1-.5 1.7-1.3 2.2-2.3.5-1.2.8-2.3.8-3.6s-.2-2.4-.7-3.4c-.4-1-1-1.8-1.9-2.3-.9-.5-1.9-.9-3.1-.9-.9 0-1.6.2-2.2.5-.6.3-1.2.9-1.6 1.4l-1.4 1.8V9.1h-.9v18.2zm5.6-5.5c-1.3 0-2.6-.5-3.4-1.6-.9-1.1-1.4-2.6-1.4-4.6 0-1.9.5-3.4 1.3-4.6 1-1.2 2.3-1.7 3.6-1.7 1.3 0 2.6.5 3.4 1.6 1 1.1 1.5 2.6 1.5 4.6 0 2.2-.5 3.7-1.5 4.8-.9 1-2.1 1.5-3.5 1.5zm.1-10.8c-.9 0-1.7.4-2.4 1.2-.6.8-1 2.1-1 3.5 0 1.6.3 2.7 1 3.6.6.7 1.4 1 2.3 1 .9 0 1.7-.4 2.4-1.1.7-.8 1-1.9 1-3.7 0-1.6-.3-2.7-1-3.5-.7-.6-1.4-1-2.3-1z"/></g><g><path d="M119.9 18.2l2.7.3c-.4 1.5-1.2 2.6-2.3 3.3s-2.6 1.2-4.4 1.2c-2.3 0-4.1-.6-5.4-1.9-1.3-1.2-1.9-3-1.9-5.4s.7-4.2 2-5.5c1.3-1.3 3-1.9 5.2-1.9 2 0 3.7.6 5.1 1.9 1.3 1.2 1.9 3.1 1.9 5.5v.6h-11.5c.1 1.6.5 2.7 1.4 3.6.9.9 1.9 1.2 3.2 1.2.9 0 1.8-.2 2.4-.7.7-.5 1.2-1.2 1.6-2.2zm-8.5-3.9h8.6c-.1-1.2-.5-2.1-1-2.6-.9-.9-1.9-1.4-3.3-1.4-1.2 0-2.2.4-3 1.1-.8.7-1.2 1.6-1.3 2.9z"/><path d="M115.9 23.7c-2.4 0-4.4-.7-5.9-2.1s-2.2-3.3-2.2-5.9.8-4.6 2.3-6.1c1.5-1.5 3.3-2.2 5.8-2.2 2.3 0 4.2.7 5.6 2.2 1.4 1.3 2.2 3.3 2.2 6V17h-11.4c.2.9.5 1.7 1.1 2.3.7.7 1.6 1 2.6 1 .8 0 1.5-.2 1.9-.5.5-.4.9-1.1 1.3-1.9l.2-.5 4.2.5-.2.9c-.4 1.6-1.3 2.8-2.6 3.8-1.3.7-2.9 1.1-4.9 1.1zm-.1-14.6c-1.9 0-3.5.5-4.7 1.7-1.2 1.2-1.8 2.9-1.8 5 0 2.2.5 3.7 1.7 4.8 1.2 1.1 2.8 1.6 4.8 1.6 1.6 0 3-.4 4-1 .8-.5 1.3-1.2 1.7-2l-1.2-.2c-.4.9-.9 1.6-1.6 2-.8.5-1.7.9-2.9.9-1.5 0-2.8-.5-3.7-1.5-1-1-1.6-2.3-1.6-4.1l-.1-.8H122c0-2.1-.6-3.7-1.7-4.8-1.2-1-2.6-1.6-4.5-1.6zm4.9 5.9h-10.2l.1-.9c.2-1.4.6-2.5 1.4-3.3l.1-.1c1-.9 2.2-1.2 3.5-1.2 1.6 0 2.8.5 3.8 1.6.7.7 1.1 1.8 1.2 3.1l.1.8zm-8.4-1.5h6.7c-.2-.5-.4-1-.6-1.3-.7-.8-1.6-1.2-2.7-1.2-.9 0-1.8.3-2.5.9-.4.5-.7 1-.9 1.6z"/></g><g><path d="M125.9 22.6V8.5h2.3v2.1c.6-1 1.2-1.6 1.6-1.9.5-.3 1.1-.5 1.6-.5.9 0 1.8.2 2.6.8l-.9 2.2c-.6-.3-1.2-.5-1.9-.5-.5 0-1.1.2-1.6.5s-.8.8-.9 1.3c-.3.9-.5 1.8-.5 2.8v7.4h-2.3z"/><path d="M129.1 23.4h-4V7.7h3.9v.6c.2-.2.3-.2.4-.3.7-.4 1.4-.6 2.1-.6 1.1 0 2.1.3 3 .9l.5.4-1.6 3.6-.7-.4c-.6-.3-1.1-.5-1.6-.5-.4 0-.8.1-1.1.3-.4.2-.5.6-.6.9-.3.9-.5 1.6-.5 2.6l.2 8.2zm-2.4-1.6h.9v-6.6c0-.9.1-1.7.3-2.5l-.4.7V9.3h-.8v12.5zm4.8-12.7c-.4 0-.9.2-1.2.4-.2.2-.5.4-1 1.1.6-.4 1.2-.6 2-.6.5 0 1.1.2 1.6.3l.3-.8c-.7-.3-1.3-.4-1.7-.4z"/></g></g><path fill="#FFF" d="M141.4 16.1c-2.3 0-4.1-1.9-4.1-4.1 0-2.3 1.9-4.1 4.1-4.1s4.1 1.9 4.1 4.1c0 2.3-1.9 4.1-4.1 4.1zm0-7.4c-1.9 0-3.3 1.5-3.3 3.3 0 1.9 1.5 3.3 3.3 3.3s3.3-1.5 3.3-3.3c0-1.9-1.4-3.3-3.3-3.3z"/><g fill="#FFF"><path d="M139.7 14.3V9.7h2c.4 0 .7.1.9.2.2.1.4.2.5.5.2.2.2.5.2.7 0 .3-.1.6-.3.8-.2.2-.5.4-1 .4.2.1.3.2.4.2.2.2.3.4.5.6l.8 1.2h-.8l-.6-.9c-.2-.3-.3-.5-.5-.6-.1-.2-.2-.2-.3-.3-.1-.1-.2-.1-.3-.2h-1v2h-.5zm.6-2.6h1.3c.3 0 .5 0 .6-.1.2-.1.3-.2.4-.3.1-.2.2-.2.2-.4s-.1-.4-.2-.5c-.2-.2-.4-.2-.8-.2h-1.5v1.5z"/><path d="M140.6 14.8l-1.3-.2V9.4h2.4c.4 0 .7.1 1.1.2.4.2.6.4.8.6.2.3.2.6.2.9 0 .5-.2.9-.5 1.1-.1.1-.2.2-.4.2v.1l.3.3.1.1 1.2 1.9h-1.7l-.7-1.1c-.2-.3-.3-.4-.4-.5l-.1-.1-.1-.1c-.1 0-.1-.1-.2-.1s-.1 0-.2-.1h-.5v2zm.1-3.5h1.4c.1-.1.2-.1.2-.2s.1-.1.1-.2l.1-.1c0-.2 0-.2-.2-.3 0 0-.2-.2-.5-.2h-1.1v1zM70.7 23.3h-1.6v-1h1.6zM37.9 16.4l-1 .1v1.3h.8zM24.4 29.1h.2l.5-.3.2-.2h.2l.2-.3.3-.3.3-.4.3-.5v-.4h.4v-.2h.2v-.2h.2v-.2l.2-.4h-.3s-.2.2-.3 0v-.3s-.2-.2-.2-.3-.1.2 0-.2c.1-.2-.2 0 .1-.2l.2-.2.2-.2.2-.2.2-.2.4-.2h.2v-.2h.4l.2-.5s-.2.2-.2 0l-.2-.2h-.3l-.2-.4s0-.3.2-.4l.2-.1h.2l.4-.3.2-.2v-.8l.2-.4.3-.2.2-.2v-.4s-.1-.3 0-.5l.1-.2s.2.1 0 0 0-.2-.2-.1l-.6.3-.5.1-.5.2-.8.5-.2.2-.1.1-.4-.2-.1-.2v-.2l.2-.4s-.1.3 0 0l.1-.3.1-.2-.2-.2h-.3l-.3.2-.1.2-.2.2-.4-.1-.2-.2c0-.3.2-.5.2-.5l.4-.2.2-.2s0 .1.1-.2c.1-.3.2-.5.2-.5s.1-.1.1-.2-.1.2 0-.2l.1-.2.3-.3.2-.2-.1-.2v-1h-.5l-1 .3-.2.2-.2.2-.2.1-.5.1-.2-.5.2-.5h.4l.1-.2.2-.2-.1-.6-.9.2V12.9c.1-.2-.1-.1.1-.2l.2-.2s.1.1.2-.3-.1-.1.1-.4c.2-.2.2-.5.2-.5 0-.3-.2-.5-.2-.5s-.1-.1-.1-.5v-.5l-.9.9-.2.4-.8.5s-.5.1-.5.2c-.1.2-.2.5-.2.5v.2s.2.2 0 .4-.4.5-.4.5l-.3.4v.4l-.5.1h-.4l-.2-.2v-1.6l-.5-.3-.2-.2-.5-.3v-.8l-.2-.2-.2-.5-.2-.3v.1s-.2.1-.2.2.1-.2 0 .2c-.1.2.2.4 0 .5-.9.1-1.2.2-1.2.2l-.5-.2-.2-.3V10l-.3-.4v-.5h-.4l-.3-.5v-.7l-.3-.3h-.2l-.2-.5-.3-.3-.3-.2v1.1l-.2.2-.3-.2-.1-.4-.1-.4-.6-.4c-.2-.2-.2-.5-.2-.5l-.2-.3-.3-.3-.2-.4h-.2v3l.2.2v.2l-.5-.1-.3-.1v.5s.1 0 0 .2l-.1.2v.5l.2.3.2.2s.2.1.2.2-.1-.2.1.2c.2.3.2.5.2.5l-.5-.2H11v-.2l-.2-.2v-.2l-.2-.5V11s.2.2 0 .4 0 .6 0 .6l.4.3s.2.8.2.9c0 .2-.1.2 0 .4s.1.7.1.7l-.3.2-.5-.1-.5-.2.4.6v.5l.2.3.2.6.1.4s.2.1.3.2c.2.2.3.4.4.4s.2.2.2.2l-.4.2-.2-.1-.2-.4.2.8.1.4.2.4v.3l.1.2-.1.5-.4.1-.2-.2-.3-.3-.6-.6v.4l-1 .1h-.4l-.4-.5s.2-.1 0-.2c-.2-.2-.4-.5-.4-.5l-.4-.5-.3-.2-.2-.3-.3.5s.4.3 0 .2l-.4-.1-.4-.2-.7-.7v1.1s-.1.4 0 .5-.1.4-.1.4l-.5-.2h-.2v.3l.3.4.2.3.1.2.1.3s-.2.1.2.5.3.5.3.5l.2.2.3.1-.2.2h-.5l-.2-.2-.1.5.2.5.2.3.2.2s.2.2.3.2c.2.1.5.2.5.2s.2.2.2.3l-.1.2-.5-.2-.2-.2.3.9-.1.5.2.2.2.2s.1.2.4.2c.3.2.8.4.8.4l.2.2.5.5-.2.2-.2.1h-.1l-.2-.2.2.9.3.6s0 .2.2.5l.6.6.4.4s.2-.2.3 0c.2.2 4.7 1 4.7 1s.4-.4 2.9 0 4 .2 5.1 0c1.1-.3 2.1-1.4 2.1-1.4z"/></g></svg>