<svg xmlns="http://www.w3.org/2000/svg" width="99.8" height="33.1"><path fill="#FFF" d="M0 0h33.1v33.1H0z"/><path d="M24.8 21.8c.1-.8.1-1.5.2-2.2l.6-6.9c.1-.8.1-1.6.2-2.5 0-.1.1-.2.2-.3 1-.4 2-.7 3.1-.4.2.1.3.2.3.4-.3 2.9-.5 5.7-.7 8.6-.1.8-.1 1.6-.2 2.3 0 .1-.1.2-.2.2-1.2.2-2.4.4-3.5.8zM18.5 24.9c.1-.7.1-1.5.2-2.2.2-2.3.4-4.5.6-6.8 0-.5.1-1 .1-1.5 0-.1.1-.2.1-.3 1.2-.8 2.3-1.5 3.5-2.3h.1c0 .8-.1 1.5-.1 2.2-.2 2-.3 4-.5 6-.1 1-.2 2.1-.3 3.1 0 .1-.1.2-.1.2-1.2.6-2.3 1.1-3.6 1.6.1.1.1 0 0 0zM12.3 27.7c.1-1.7.3-3.4.4-5 .1-1.1.2-2.3.3-3.4 0-.1.1-.2.2-.3 1.1-.8 2.3-1.5 3.5-2.2h.1v.3c-.2 2.2-.4 4.5-.6 6.7-.1.9-.2 1.9-.2 2.8 0 .1-.1.3-.2.4-1.2.3-2.3.5-3.5.7zM1.2 17c.4.3.8.5 1.1.7.7.4 1.4.8 2 1.3.1.1.2.2.2.3-.2 2.6-.4 5.2-.7 7.9-1.1-.7-2.1-1.3-3.4-1.5.3-2.9.5-5.8.8-8.7zM6.9 19.8c1.1.4 2.2.8 3.4.8-.2 2.6-.4 5.2-.7 7.8-1.1 0-2.2-.1-3.3-.4-.2-.1-.2-.2-.2-.3.1-.8.1-1.5.2-2.3.2-1.8.3-3.6.5-5.3.1-.2.1-.2.1-.3zM32.7 21.8c-.6-.2-1.1-.4-1.6-.6-.2-.1-.2-.1-.2-.3.1-.9.2-1.8.2-2.7.2-2.1.4-4.1.5-6.2 0-.1 0-.2.1-.4.1.2.2.3.2.4.7 1.4 1.1 2.9 1.3 4.5.1.6-.1 1.2-.1 1.8l-.3 3.3s-.1.1-.1.2z"/><g fill="#FFF"><path d="M39.3 32.3V14.4h1.4v1.7c.3-.7.7-1.2 1.1-1.5.4-.3.9-.5 1.5-.5.8 0 1.5.3 2.1.9.6.6 1.1 1.4 1.4 2.4s.5 2.2.5 3.4c0 1.3-.2 2.5-.5 3.6s-.8 1.9-1.5 2.4c-.6.6-1.3.8-2 .8-.5 0-1-.2-1.4-.5-.4-.3-.8-.7-1-1.2v6.3l-1.6.1zm1.4-11.4c0 1.7.2 2.9.7 3.7.5.8 1.1 1.2 1.7 1.2.7 0 1.3-.4 1.8-1.2.5-.8.7-2.1.7-3.8 0-1.7-.2-2.9-.7-3.7-.5-.8-1.1-1.2-1.7-1.2-.7 0-1.3.4-1.8 1.3-.4.8-.7 2.1-.7 3.7zM55.2 25.7c-.6.7-1.1 1.2-1.7 1.5-.5.3-1.1.4-1.7.4-1 0-1.8-.3-2.3-1-.5-.7-.8-1.6-.8-2.7 0-.6.1-1.2.3-1.7.2-.5.5-.9.8-1.3s.7-.6 1.1-.7c.3-.1.8-.2 1.4-.3 1.3-.2 2.2-.5 2.8-.8v-.6c0-.9-.1-1.5-.4-1.9-.4-.5-1-.7-1.8-.7-.7 0-1.3.2-1.6.5-.4.4-.6 1-.8 1.9L49 18c.1-.9.4-1.7.7-2.2.3-.6.8-1 1.4-1.3.6-.3 1.3-.5 2.1-.5s1.4.1 1.9.4c.5.3.9.6 1.1 1 .2.4.4.9.5 1.5.1.4.1 1.1.1 2v2.9c0 2 0 3.3.1 3.9.1.5.2 1.1.4 1.6h-1.6c-.3-.4-.4-1-.5-1.6zm-.1-4.9c-.6.3-1.4.6-2.6.8-.6.1-1.1.3-1.4.4-.3.2-.5.4-.6.7-.1.3-.2.7-.2 1 0 .6.2 1.1.5 1.5.3.4.8.6 1.4.6.6 0 1.1-.2 1.6-.6.5-.4.8-.9 1-1.5.2-.5.3-1.2.3-2.2v-.7zM59.1 27.3V9.4h1.6v17.9h-1.6zM62.5 20.9c0-2.4.5-4.2 1.4-5.3.8-1 1.8-1.4 2.9-1.4 1.3 0 2.3.6 3.1 1.8.8 1.2 1.2 2.8 1.2 4.8 0 1.7-.2 3-.5 3.9-.4 1-.9 1.7-1.6 2.2-.7.5-1.4.8-2.2.8-1.3 0-2.3-.6-3.1-1.7-.8-1.3-1.2-3-1.2-5.1zm1.6 0c0 1.7.3 2.9.8 3.7.5.8 1.2 1.2 1.9 1.2.8 0 1.4-.4 1.9-1.2.5-.8.8-2.1.8-3.8 0-1.6-.3-2.8-.8-3.6-.5-.8-1.2-1.2-1.9-1.2-.8 0-1.4.4-1.9 1.2-.6.7-.8 2-.8 3.7zM79 25.7c-.6.7-1.1 1.2-1.7 1.5-.5.3-1.1.4-1.7.4-1 0-1.8-.3-2.3-1-.5-.7-.8-1.6-.8-2.7 0-.6.1-1.2.3-1.7.2-.5.5-.9.8-1.3.3-.3.7-.6 1.1-.7.3-.1.8-.2 1.4-.3 1.3-.2 2.2-.5 2.8-.8v-.6c0-.9-.1-1.5-.4-1.9-.4-.5-1-.7-1.8-.7-.7 0-1.3.2-1.6.5-.4.4-.6 1-.8 1.9l-1.5-.3c.1-.9.4-1.7.7-2.2.3-.6.8-1 1.4-1.3.6-.3 1.3-.5 2.1-.5s1.4.1 1.9.4c.5.3.9.6 1.1 1 .2.4.4.9.5 1.5.1.4.1 1.1.1 2v2.9c0 2 0 3.3.1 3.9.1.5.2 1.1.4 1.6h-1.6c-.4-.4-.5-1-.5-1.6zm-.2-4.9c-.6.3-1.4.6-2.6.8-.6.1-1.1.3-1.4.4-.3.2-.5.4-.6.7-.1.3-.2.7-.2 1 0 .6.2 1.1.5 1.5.3.4.8.6 1.4.6.6 0 1.1-.2 1.6-.6.5-.4.8-.9 1-1.5.2-.5.3-1.2.3-2.2v-.7zM82.8 27.3V9.4h1.6v17.9h-1.6zM90.2 25.4l.2 1.9c-.4.1-.8.2-1.2.2-.6 0-1-.1-1.3-.4-.3-.3-.5-.6-.7-1-.1-.4-.2-1.3-.2-2.6V16h-1.1v-1.7H87v-3.2l1.6-1.3v4.5h1.6V16h-1.6v7.6c0 .6 0 1 .1 1.2.1.2.1.3.3.4.1.1.3.2.5.2.2.1.4 0 .7 0zM91.2 20.9c0-2.4.5-4.2 1.4-5.3.8-1 1.8-1.4 2.9-1.4 1.3 0 2.3.6 3.1 1.8.8 1.2 1.2 2.8 1.2 4.8 0 1.7-.2 3-.5 3.9-.4 1-.9 1.7-1.6 2.2-.7.5-1.4.8-2.2.8-1.3 0-2.3-.6-3.1-1.7-.8-1.3-1.2-3-1.2-5.1zm1.6 0c0 1.7.3 2.9.8 3.7.5.8 1.2 1.2 1.9 1.2.8 0 1.4-.4 1.9-1.2.5-.8.8-2.1.8-3.8 0-1.6-.3-2.8-.8-3.6-.5-.8-1.2-1.2-1.9-1.2-.8 0-1.4.4-1.9 1.2-.6.7-.8 2-.8 3.7z"/></g></svg>