<svg xmlns="http://www.w3.org/2000/svg" width="68.1" height="21.6"><g fill="#FFF"><path d="M2.6 1.3H9.4c2 0 3.4.3 4.5.8 1 .5 1.4 1.4 1.4 2.5 0 2.1-1.4 3.4-4.5 4.3.1.1.3.4.4.7.1.3.3.4.3.7.1.1.1.4.3.5.1.1.1.4.3.5.1.4.4.8.5 1 .1.4.4.8.5 1 .1.3.3.7.5.9.1.3.4.5.5.7.3.1.5.4.8.4.3.1.7.3 1 .3l-.1.5c-.7 0-1.4.1-2.1.1-.5 0-1 0-1.6-.1-.5-.1-.7 0-1-.1s-.7-.4-.8-.7c-.3-.3-.5-.7-.7-1-.1-.3-.3-.7-.4-.9s-.3-.7-.4-1-.4-.8-.5-1.3c-.1-.4-.4-.9-.5-1.3 0-.1-.1-.3-.1-.3-.1-.1-.3-.1-.4-.1h-.5L6 12.9c-.1.4-.1.8-.3 1.2-.1.4-.1.7-.1.9s0 .4.3.4l1.4.4-.1.5H0v-.5l1.7-.4c.3 0 .4-.1.4-.4s.1-.7.3-.9c.1-.4.1-.8.3-1.2l1.8-8.4c.1-.4.1-.7.3-.9 0-.3.1-.5.1-.8 0-.1 0-.3-.3-.4L3 2l-.4-.7zm4.2 7.1h.5c2.8 0 4.1-1.2 4.1-3.5 0-.8-.3-1.4-.7-2-.4-.4-1-.7-2-.7H8L6.8 8.4zM17.4 7.1l.1-.5c1.4-.3 2.6-.5 3.5-.5.5 0 .9.1 1.3.3.3.1.4.4.4.8v.4l-1.2 4.8c-.1.3-.1.7-.1.9 0 .5.1.9.4 1.2.3.3.5.4 1 .4.8 0 1.6-.4 2.6-1.2l1.7-7.2 3.4-.1-1.8 7.9c0 .3-.1.4-.1.5s0 .3.1.4c0 .1.1.1.3.1s.4.1.5.1h.9l-.1.5c-1.4.3-2.5.4-3.1.4s-1-.1-1.4-.4c-.4-.3-.5-.7-.5-1v-.3c-1.3 1.2-2.8 1.7-4.1 1.7-.9 0-1.7-.3-2.4-.8-.5-.5-.9-1.2-.9-2.1v-.7c0-.3.1-.4.1-.7l1-4.2c0-.3.1-.5.1-.5 0-.1-.1-.3-.3-.4.1-.1-.5.2-1.4.2zM33.1 6.7c1.4-.3 2.6-.5 3.5-.5.5 0 .9.1 1.3.3.3.1.5.4.5.8v.4l-1.6 6.7v.4c0 .3.1.5.4.5.3.1.8.1 1.4.1l-.1.5c-1.4.3-2.5.4-3.4.4-.7 0-1-.1-1.4-.3-.4-.3-.5-.5-.5-.9 0-.3 0-.4.1-.8l1.4-6.2c0-.3.1-.5.1-.5 0-.1-.1-.3-.3-.4-.1-.1-.7-.1-1.6-.1v-.4h.2zM41.3 7.1l.1-.5c1.4-.3 2.6-.5 3.5-.5.5 0 .9.1 1.3.3.3.1.5.4.5.8v.4l-2 7.3c-.3 1.3-.9 2.5-1.8 3.4s-2.6 2.1-5 3.3l-.5-.5c1.7-1.3 2.8-2.5 3.1-3.1.4-.8.7-1.7.9-2.8l1.4-6.8c0-.3.1-.5.1-.5 0-.1-.1-.3-.3-.4s-.6-.4-1.3-.4zM49.1 6.7c1.4-.3 2.6-.5 3.5-.5.5 0 .9.1 1.3.3.3.1.5.4.5.8v.4l-1.6 6.7v.4c0 .3.1.5.4.5s.8.1 1.4.1l-.1.5c-1.4.3-2.5.4-3.4.4-.7 0-1-.1-1.4-.3-.4-.3-.5-.5-.5-.9 0-.3 0-.4.1-.8l1.4-6.2c0-.3.1-.5.1-.5 0-.1-.1-.3-.3-.4s-.7-.1-1.6-.1v-.4h.2zM66.4 14.1l.4.5c-1.6 1.2-3.3 1.8-5.2 1.8-1.4 0-2.6-.4-3.5-1-.9-.7-1.3-1.7-1.3-2.9 0-1.8.8-3.3 2.2-4.6 1.4-1.2 3.3-1.8 5.4-1.8 1.2 0 2.1.1 2.8.5.7.4.9.9.9 1.6 0 .9-.7 1.6-2 2.2-1.3.7-3.3.9-5.8 1v.5c0 .9.3 1.7.7 2.2.4.5 1.2.8 2 .8 1.1 0 2.2-.2 3.4-.8zm-6-3.4c2.9-.3 4.2-1 4.2-2.4 0-.4-.1-.7-.3-.8-.3-.1-.4-.3-.8-.3-.7 0-1.3.3-2 .9-.5.8-.9 1.6-1.1 2.6zM35.2 1.3h.4c.3 0 .5-.1.9-.1.8-.1 1.8-.3 3.1-.4 2.6-.3 6-.5 9.6-.7 3.4-.1 6.9-.1 9.4-.1h4.3s-1.7.3-4.3.5c-2.5.4-5.9.9-9.3 1.4-3.4.7-6.7 1.3-9.2 2-1.2.3-2.2.5-2.9.8s-1 .4-1 .4c-1 .3-2.1-.3-2.5-1.3-.2-1.1.4-2.1 1.5-2.5-.2 0-.1 0 0 0z"/></g></svg>