<svg xmlns="http://www.w3.org/2000/svg" width="63.1" height="13.5"><g fill="#F7F7F7"><path d="M0 7.2l2-.1c.1.5.4.9.7 1.2.4.3.9.6 1.6.8s1.6.3 2.5.3c.8 0 1.5-.1 2.2-.2.6-.2 1.1-.4 1.4-.6s.5-.6.5-.9c0-.3-.1-.6-.4-.8s-.9-.5-1.5-.7c-.5-.1-1.4-.2-2.9-.5-1.5-.2-2.6-.4-3.2-.6-.8-.3-1.4-.6-1.7-1-.4-.4-.6-.8-.6-1.3s.2-1 .7-1.5c.5-.5 1.1-.8 2-1 1-.2 2-.3 3-.3 1.2 0 2.3.1 3.2.4s1.6.6 2.1 1.1c.5.5.8 1 .8 1.6l-2.1.1c0-.7-.4-1.2-1-1.5-.7-.3-1.6-.5-2.9-.5-1.3 0-2.3.2-2.8.5-.6.3-.9.6-.9 1.1 0 .4.2.7.6.9.4.2 1.5.5 3.2.7 1.7.3 2.9.5 3.6.7.9.3 1.6.6 2.1 1.1s.8.8.8 1.4c0 .5-.2 1.1-.7 1.6-.5.5-1.2.9-2.1 1.1s-2 .4-3.1.4c-1.5 0-2.7-.1-3.7-.4C2.2 10 1.5 9.6.9 9 .3 8.5 0 7.9 0 7.2zM23.4 10.5V9.4c-.9.8-2.2 1.3-3.7 1.3-.7 0-1.3-.1-1.9-.3-.6-.2-1.1-.4-1.3-.6-.3-.3-.5-.6-.6-.9-.1-.2-.1-.6-.1-1.2V3h2v4.1c0 .7 0 1.1.1 1.3.1.3.4.6.8.8.4.2.9.3 1.5.3s1.2-.1 1.7-.3.9-.5 1.1-.8c0-.2.2-.7.2-1.4V3h2v7.5h-1.8zM27.9 11.1l1.9.2c.1.4.3.7.7.8.5.2 1.2.4 2 .4.9 0 1.6-.1 2.1-.4.5-.2.8-.6 1-1 .1-.3.2-.8.1-1.6-.9.7-2 1-3.3 1-1.6 0-2.9-.4-3.8-1.1-.9-.7-1.3-1.6-1.3-2.7 0-.7.2-1.4.6-2 .4-.6 1-1.1 1.8-1.4.8-.3 1.7-.5 2.7-.5 1.4 0 2.5.4 3.4 1.1V3h1.8v6.5c0 1.2-.2 2-.6 2.5-.4.5-1 .9-1.8 1.2-.8.3-1.8.4-3 .4-1.4 0-2.5-.2-3.4-.6-.5-.5-.9-1.1-.9-1.9zm1.7-4.5c0 1 .3 1.7.9 2.1s1.4.7 2.3.7c.9 0 1.7-.2 2.3-.7.6-.4.9-1.1.9-2 0-.9-.3-1.6-1-2.1-.6-.5-1.4-.7-2.3-.7-.9 0-1.6.2-2.3.7-.5.4-.8 1.1-.8 2zM40.2 6.8c0-1.4.6-2.4 1.8-3.1 1-.6 2.2-.8 3.7-.8 1.6 0 2.9.3 4 1s1.5 1.6 1.5 2.8c0 1-.2 1.7-.7 2.3-.5.6-1.1 1-2 1.3-.9.3-1.8.5-2.8.5-1.6 0-3-.3-4-1-1-.8-1.5-1.8-1.5-3zm2 0c0 1 .3 1.7 1 2.2.7.5 1.5.7 2.5.7s1.8-.2 2.5-.7c.7-.5 1-1.2 1-2.2 0-.9-.3-1.6-1-2.1S46.7 4 45.7 4s-1.8.2-2.5.7c-.6.4-1 1.1-1 2.1zM53.6 10.5V3h1.8v1.1c.9-.8 2.1-1.2 3.8-1.2.7 0 1.4.1 2 .2.6.2 1 .4 1.3.6.2.3.4.6.5 1 .1.2.1.6.1 1.2v4.6h-2V5.9c0-.5-.1-.9-.2-1.2s-.4-.5-.8-.6c-.4-.2-.9-.2-1.4-.2-.9 0-1.6.2-2.2.5-.6.3-.9 1-.9 2v4.1h-2z"/></g></svg>