<svg xmlns="http://www.w3.org/2000/svg" width="84.8" height="21.3"><g fill="#F7F8F8" stroke="#FFF" stroke-width=".5" stroke-miterlimit="10"><path d="M3.6 6.4h1.7V3h1.6v.8h3.8V.5h1.6v3.3h1.8c-.4-.8-.8-1.9-1.1-3.3.8.5 1.6 1.2 2.2 1.9-.2.5-.5 1-.8 1.4h1.4v.8h-3.4v4.6c0 1.1.1 2.6.4 4.4.7-1.4 1-3.7.9-6.9h1.6c.1 3.6-.6 6.5-2 8.5.3.8.8 1.5 1.4 2.1l.7-3.9h.3l-.3 4.3.5.3v2.6c-1.7-.9-3-2.2-4-4-.4.5-1.3 1.4-2.9 2.7l-1.1 1.1h-.4c1.5-1.5 2.9-3.1 4.1-4.8-.6-1.4-.9-4-.8-7.8V4.6H6.9v3.2h1.3v-.9h1.6v8.7c0 .9-.6 1.5-1.7 2-.1.1-.1.1-.2.1-.1-.2-.3-.3-.6-.2l-.5.2-.1-.3c1-.3 1.5-.7 1.5-1.2V8.7H6.9v6.5c.1 1.5-.9 3.4-3 5.8h-.6c1.4-1.8 2.1-3.9 2.1-6.3-1.3 1.8-2.8 3-4.6 3.9.1-.7-.1-1.4-.4-2.2.6-.1 1.1-.2 1.6-.4V7.2H.3v-.8H2V.5h1.6v5.9h0zm1.7 7.7V7.2H3.6v8.2c.8-.4 1.3-.9 1.7-1.3zM23.2 4.2v-.9h7.4c-.1-.1-.2-.2-.3-.4-.6-1-1-1.9-1.2-2.5l.1-.1c1 .5 2 1 2.8 1.6-.1.4-.4.9-.7 1.3h7.4v.9h-6.9v3.3H35v-.6h1.9v9.7c-.1 1.1-.8 2-2.3 2.5-.1-.4-.3-.5-.6-.4l-1.4.2-.2-.4c1.9-.2 2.7-.8 2.6-1.8V8.4h-3.2v12.4h-1.9V8.4h-3.2v10.1h-1.9V6.8h1.9v.7h3.2V4.2h-6.7zM54.4 7.4V4.6h-1.3v-.8h1.3V.5h1.8v3.3H58v-1h1.8V10c-.1.9.2 1.7.7 2.5l.8-3.8h.3l-.3 4.2.5.2v2.3c-2.5-.7-3.8-2.4-3.8-5.2V4.6h-1.8v3.9l1.3 1c-.1 1-.2 1.6-.4 1.9-.1.1-.5-.4-1.3-1.2-.8 1.5-2.1 3-3.9 4.4h-.8c1.8-1.4 2.9-3.4 3.2-5.9-.1-.1-.3-.2-.5-.4-.4-.3-.6-.7-.8-1-.7.7-1.3 1.2-2 1.6v3.4c.1 1-.8 1.8-2.5 2.2-.1-.2-.4-.2-.9-.2l-1 .2-.1-.3c2.1-.4 3-1 2.7-1.8V9.7c-.9.4-1.8.7-2.7.8.2-.4.2-1.1-.2-2.1.7.1 1.3.1 1.7.1.5 0 .9 0 1.4-.1V4.6h-2.5v-.8h2.5V.5h1.8v3.3h1.4v.8h-1.4V8c.6-.2 1.2-.5 1.8-1-.3-.3-.5-.5-.5-.7l.1-.1c.8.6 1.4 1 1.8 1.2zm-8 13.2V20c.9-.4 1.4-1.2 1.4-2.4v-2.1h1.8v1.9c.1 1.4-1 2.5-3.2 3.2zm5-5h0c.5.5 1.2 1.4 2.1 2.8-.2.5-.5 1.1-1.1 1.8-.4-.8-.7-2.3-1-4.6zm3.3-.5h0c1.1 1.3 1.9 2.3 2.3 3.2-.1.4-.4 1-1.1 1.8-.4-1.3-.8-2.9-1.2-5zm3.5-.3h.2c.6 1.8 1.7 2.9 3.4 3.5-.5.5-.6 1.3-.5 2.1 0 .1 0 .2-.1.2 0 .1-.1.1-.2 0-1.6-1-2.6-2.9-2.8-5.8zM70.8 18v-2.4h1.8v2.2c-.2 1.5-1.4 2.5-3.6 3v-.6c1.1-.2 1.7-1 1.8-2.2zm.4-11.9H73v.8h2.5V.4h1.8v2.4H84v.8h-6.7V7h2.9V6H82v8.9h-1.8v-1H73v1h-1.8V6.1h0zm9 1.7H73V13h7.2V7.8zm-6.1 8h0c.9.9 1.6 1.8 2.3 2.7-.2.8-.6 1.5-1.3 2-.6-1.5-1-3.1-1-4.7zm3 .2h0c1 .8 1.9 1.8 2.9 2.8-.2.7-.6 1.3-1.2 1.8-.9-1.6-1.5-3.2-1.7-4.6zm3.5-.4h0c.8 1.5 2 2.4 3.7 2.7-.5.7-.5 1.5-.2 2.5-2.1-.9-3.3-2.6-3.5-5.2z"/></g></svg>