<svg xmlns="http://www.w3.org/2000/svg" width="34.3" height="31.2"><path fill="#9EACB2" d="M14.2 5.3C7.9 3.9 1.7 7.9.3 14.1S2.9 26.6 9.2 28s12.5-2.6 13.9-8.9-2.7-12.5-8.9-13.8zM9.9 24.5C5 23.4 1.9 18.6 3 13.7s5.9-8 10.8-6.9 8 5.9 6.9 10.8-5.9 7.9-10.8 6.9z"/><path fill="#A9B8BF" d="M16.9 7C10.3 8 5.6 14.1 6.6 20.8S13.7 32 20.3 31s11.3-7.1 10.3-13.8S23.5 6 16.9 7zm2.9 20.3c-5.2.7-9.9-2.8-10.7-8s2.8-9.9 8-10.7 9.9 2.8 10.7 8c.7 5.1-2.9 9.9-8 10.7z"/><path fill="#C21912" d="M34.1 10.9s0-.1 0 0c0-.2-.1-.3-.1-.4 0-.2-.1-.5-.1-.7C32.3 3.3 26-.8 19.5.1c-.4.1-.9.1-1.3.3-.4.1-.8.2-1.2.4-.1 0-.2.1-.2.1-.3.1-.6.2-.9.4-.1 0-.2.1-.3.1-.3.1-.6.3-.8.5-.1 0-.2.1-.2.1l-.9.6h-.1c-.7.5-1.2 1-1.8 1.6 0 .1-.1.1-.1.2-.2.2-.4.5-.6.8l-.2.2c-.2.3-.4.5-.5.8 0 .1-.1.1-.1.2-.2.3-.4.7-.5 1-.4.4-.5.8-.7 1.1 0 .1 0 .1-.1.2 0 .3-.1.6-.2.9 0 .1-.1.2-.1.3-.1.3-.1.6-.2.8 0 .1 0 .2-.1.3 0 .3-.1.6-.1.9v.5c0 1.2.1 2.4.4 3.7.1.4.2.7.3 1.1 0 .1.1.2.1.3l.3.6c.1.2.1.3.2.4.1.2.2.4.3.5.1.2.2.3.3.5.1.2.2.3.3.5.1.2.2.3.3.4.1.1.2.3.3.4.1.1.2.3.3.4l.3.3c.3.4.7.7 1 1l.1.1c.2.2.4.3.5.4.1.1.2.1.3.2.2.1.4.3.6.4.1.1.2.1.3.2l.6.3c.1.1.2.1.3.2l.6.3c.1 0 .2.1.3.1.2.1.4.2.7.3h.1c.5.2 1 .3 1.5.4.1 0 .3.1.4.1.2 0 .4.1.5.1.1 0 .2 0 .4.1 1.3.2 2.6.1 3.9-.1 1.8-1.2 3.2-3 3.8-5.1-.9.5-1.8.9-2.8 1.2-2.4.6-4.8.3-6.9-.7-.7-.3-1.3-.7-1.9-1.2-.3-.2-.6-.5-.8-.7l-.1-.1c-.2-.2-.5-.5-.7-.8l-.1-.1c-.2-.3-.4-.6-.6-.8-.6-.9-1.1-2-1.4-3.2-.2-.7-.3-1.4-.3-2V12v-.9-.1c.1-1 .3-2 .6-2.9.1-.3.3-.6.4-1-.1.2 0 .1.1-.1l.3-.6c.1-.1.2-.3.3-.4.1-.2.2-.3.4-.5.1-.1.2-.3.3-.4l.5-.5.3-.3c.3-.2.5-.5.8-.7.1-.1.3-.2.4-.3.2 0 .4-.2.6-.3.1-.1.3-.2.4-.2l.6-.3c.1-.1.3-.1.4-.2.3-.1.7-.2 1-.3h.1c.3-.1.7-.2 1-.2 5.3-.8 10.3 2.5 11.6 7.6.7 2.9.1 5.8-1.4 8.2.2 1.7 0 3.3-.4 4.9 3-2.9 4.6-7.2 3.8-11.6z"/></svg>