<svg xmlns="http://www.w3.org/2000/svg" width="62.5" height="25.1"><path fill="#FFF" d="M0 0h62.5v25.1H0z"/><g fill="#040000"><path d="M5.716 13.661L16.497 2.804l.497.493L6.212 14.154zM7.803 13.455L18.585 2.598l.497.493L8.3 13.948zM9.89 13.248L20.672 2.391l.497.494-10.782 10.857zM11.974 13.035L22.766 2.19l.497.494L12.47 13.529zM14.107 12.818l10.78-10.857.497.494-10.78 10.856z"/></g><g fill="#040000"><path d="M7.634 22.107L20.863 9.9l.474.514L8.11 22.622zM9.914 21.786l13.24-12.193.475.515L10.389 22.3zM12.219 21.486l13.233-12.2.475.515L12.693 22zM14.582 21.292L27.81 9.084l.475.514-13.229 12.208zM16.848 20.99l13.235-12.2.475.515-13.236 12.2z"/></g><path d="M32.3 4.8h2.6v10.4h-.7v-.7H33v1h-.7V4.8zm1.9.9H33v3.5h1.2V5.7zM33 13.6h1.2V10H33v3.6zm1.9-.2c1.2-.7 2.4-1.6 3.3-2.5h-2.9v-.8h2.4V9h-1.6v-.8h1.6v-.7h.7v.7h1.8v.4c.2-.3.5-.7.7-1l.6.5c-.5.7-1 1.4-1.6 2H42v.8h-2.8c-.3.4-.7.7-1.1 1.1h3v5h-.8v-.6h-3.2v.6h-.8v-3.6l-1.2.9c.1-.4 0-.6-.2-.9zm.7-9.1h6.2v3.4h-.7v-.4h-4.9v.4h-.7l.1-3.4zm.6 2.3h1.2V5h-1.2v1.6zm4.3 6.1h-3.2v1.1h3.2v-1.1zm-3.2 2.9h3.2v-1.1h-3.2v1.1zm.7-9h1.2V5H38v1.6zM40 9h-1.5v1.1h.5c.4-.3.7-.7 1-1.1zm1.1-4h-1.2v1.6h1.2V5zM42.7 9.3h4.6V3.7h.8v5.6h4.7v1h-3.4v4.3c0 .3 0 .6.1.7.1.2.3.3.6.3h1c.5 0 .8-.2.8-.7 0-.5.1-1.1.1-1.9.3.1.6.3.9.4-.1.9-.1 1.6-.2 2-.1.5-.2.8-.4.9-.2.2-.6.3-1.1.3H50c-.5 0-.9-.2-1.1-.5-.2-.3-.3-.7-.3-1.3v-4.5h-2c0 1.9-.3 3.3-.8 4.2-.6 1-1.5 1.8-2.7 2.4-.1-.3-.3-.6-.5-1 1.2-.5 2-1.3 2.5-2.2.4-.8.7-1.9.7-3.5h-3l-.1-.9zm.7-3.9l.6-.7c.7 1 1.4 2 2 3l-.8.8c-.5-1.1-1.2-2.2-1.8-3.1zm5.8 2.4c.8-1 1.5-2 2.1-3.1l.7.7c-.7 1.1-1.4 2.1-2.2 3.1l-.6-.7z"/><g><path d="M29.7 21.2v-3.9h1.1c.6 0 1.1.2 1.5.5s.6.8.6 1.4c0 .6-.2 1.1-.6 1.5s-.9.5-1.5.5h-1.1zm.5-3.5v3h.6c.5 0 .9-.1 1.2-.4.3-.3.4-.7.4-1.1 0-.5-.1-.9-.4-1.1-.3-.2-.7-.4-1.1-.4h-.7zM36.7 21.2h-.6l-.4-1.1h-1.6l-.4 1.1h-.6l1.5-3.9h.5l1.6 3.9zm-1.1-1.5l-.6-1.6c0-.1 0-.1-.1-.3 0 .1 0 .2-.1.3l-.6 1.6h1.4zM41.7 17.3l-1.1 3.9H40l-.8-2.8c0-.1-.1-.3-.1-.4 0 .1 0 .3-.1.4l-.8 2.8h-.6l-1.1-3.9h.6l.8 3c0 .1.1.3.1.4 0-.1 0-.2.1-.4l.8-3h.5l.8 3c0 .1 0 .2.1.4 0-.1 0-.2.1-.4l.8-3h.5zM45.5 21.2h-.6l-2-3.1c-.1-.1-.1-.2-.1-.3v3.3h-.5v-3.9h.6l1.9 3c.1.1.1.2.2.3V17.2h.5v4zM47.4 17.7H47v3.1h.4v.4h-1.3v-.4h.4v-3.1h-.4v-.4h1.3v.4zM51.2 21.2h-.6l-2-3.1c-.1-.1-.1-.2-.1-.3v3.3H48v-3.9h.6l1.9 3c.1.1.1.2.2.3V17.2h.5v4zM55.2 20.9c-.4.2-.8.3-1.3.3-.6 0-1-.2-1.4-.5-.3-.4-.5-.8-.5-1.4 0-.6.2-1.1.6-1.5.4-.4.9-.6 1.5-.6.4 0 .8.1 1.1.2v.6c-.3-.2-.7-.3-1.1-.3-.4 0-.8.1-1.1.4s-.4.7-.4 1.2.1.9.4 1.1c.3.3.6.4 1 .4.3 0 .6-.1.8-.2v-1.1h-.9v-.4h1.4l-.1 1.8z"/></g></svg>