<svg xmlns="http://www.w3.org/2000/svg" width="103.4" height="19.3"><g fill="#016F36"><path d="M17 18.8h3.4L17.6 7.3H9.1l1 3.5h4.7l.1.3c-.8 2.4-3.3 4.1-6 3.5-2.1-.4-3.7-2.1-4.1-4.1-.5-2.8 1.1-5.2 3.5-6H19l2.8 14.3H27L22.6 0H7.4c-.3 0-.6 0-.9.1C2.9 1.3.5 3.6.1 8c-.5 5.2 2.7 10.1 7.8 11.1 3.3.7 6.4-.3 8.6-2.2M24.5 0L29 18.8h4.5L29.3 0zM31 0l2.5 13.5L35.6 0z"/></g><path d="M49.1 5.3h.6v.9h-.6v3.5h.6v.9h-.6v5.6c0 .3-.2.5-.5.5h-1.1c-.3 0-.5-.2-.5-.5V6.6c0-.3-.2-.5-.5-.5H44v-.8h3v-.5h2.1v.5zm-4.2 1.3h.7c.3 0 .5.2.5.5l-.1 9.1c0 .3-.2.5-.5.5h-.7c-.3 0-.5-.2-.5-.5l.1-9.1c0-.3.2-.5.5-.5zm8.6.7l1.1-1.1h-4.3V4.8h2.1v.4h4.8v.9l-1.9 2c-.2.2-.2.5 0 .7l1.3 1.2h.6v1H55c-.1 0-.2 0-.3-.1l-.7-.7c-.2-.2-.5-.2-.7 0l-.5.6c-.1.1-.2.2-.4.2h-2.2v-.9h.7l1-1.1c.2-.2.2-.5 0-.7L50.5 7h2.7l.3.3zm3.6 5v3.8c0 .3-.2.5-.5.5h-5.8c-.3 0-.5-.2-.5-.5v-3.8c0-.3.2-.5.5-.5h5.8c.3 0 .5.3.5.5zm-4.3 3.5h1.7c.3 0 .5-.2.5-.5v-2.1c0-.3-.2-.5-.5-.5h-1.7c-.3 0-.5.2-.5.5v2.1c0 .3.3.5.5.5zM64.3 5.3h.8v.9h-.8v3.1h.8v.9h-.8v6.1c0 .3-.2.5-.5.5h-1c-.3 0-.5-.2-.5-.5V6.6c0-.3-.2-.5-.5-.5h-2.4v-.8h2.9v-.5h2v.5zm-4 1.3h.7c.3 0 .5.2.5.5l-.1 9.1c0 .3-.2.5-.5.5h-.7c-.3 0-.5-.2-.5-.5l.1-9.1c0-.3.2-.5.5-.5zm9.8-1.3h2.5v.9h-2c-.3 0-.5.2-.5.5v9.5c0 .3-.2.5-.5.5h-1c-.3 0-.5-.2-.5-.5V6.6c0-.3-.2-.5-.5-.5h-2v-.8h2.5v-.5h2v.5zm-3.7 1.5h.5c.3 0 .5.2.5.5l-.2 8.9c0 .3-.2.5-.5.5h-.6c-.3 0-.5-.2-.5-.5l.2-8.9c.1-.3.3-.5.6-.5zm5.6 9.9h-.6c-.3 0-.5-.2-.5-.5l-.2-8.9c0-.3.2-.5.5-.5h.5c.3 0 .5.2.5.5l.2 8.9c.1.2-.1.5-.4.5zM83.7 13l-.4-6.4c0-.3-.2-.5-.5-.5h-5.5c-.3 0-.5.2-.5.5v9.5c0 .3-.2.5-.5.5h-1c-.3 0-.5-.2-.5-.5V5.8c0-.3.2-.5.5-.5h7.9v-.4h1.9v.4h1v-.5H88v1.3h-2.3c-.3 0-.5.2-.5.5l.3 6 .6-.1v-5c0-.3.2-.5.5-.5h.8c.4 0 .6.2.6.5v5.3c0 .2-.2.4-.4.5l-1.5.3c-.2 0-.4.3-.4.5l.1 1.3c0 .3.2.5.5.5H88v.9h-3.6c-.3 0-.5-.2-.5-.5l-.1-2.3h-.6v-.9l.5-.1zM78 15.8l.7-.7c.2-.2.2-.5 0-.7l-.7-.7c-.1-.1-.2-.2-.2-.4V10h-.4v-.8h.4v-.4h1.8v.4h1.1v-.4h1.8v.4h.4v.9h-.4v3.3c0 .1-.1.3-.2.4l-.7.6c-.2.2-.2.5 0 .7l.7.7h.7v.9h-1.7c-.1 0-.2 0-.3-.1l-.7-.7-.7.7c-.1.1-.2.1-.3.1h-1.7v-.9h.4zm4.9-8.6v.9h-5.5v-.9h5.5zm-2.2 6v-3.1h-1.1v3.1l.6.5.5-.5zM90.9 15.8l.4-6.3c0-.3.2-.5.5-.5H93c.3 0 .5.2.5.5l-.5 6.7c0 .3-.2.5-.5.5h-2.3v-.9h.7zm1.7-10.5h10.2c.3 0 .5.2.5.5v1.6c0 .3-.2.5-.5.5h-1.2c-.3 0-.5-.2-.5-.5v-.8c0-.3-.2-.5-.5-.5h-2.2c-.3 0-.5.2-.5.5v9.5c0 .3-.2.5-.5.5h-2.7v-.9h1.1V6.6c0-.3-.2-.5-.5-.5h-2.1c-.3 0-.5.2-.5.5v.8c0 .3-.2.5-.5.5H91c-.3 0-.5-.2-.5-.5V5.3c0-.3.2-.5.5-.5h1.7v.5zm10.2 10.5h.6v.9h-2.3c-.3 0-.5-.2-.5-.5l-.5-6.7c0-.3.2-.5.5-.5h1.2c.3 0 .5.2.5.5l.5 6.3z"/></svg>