<svg xmlns="http://www.w3.org/2000/svg" width="156" height="54"><path fill="#49514A" stroke="#000" stroke-miterlimit="10" d="M.5.5h155v53H.5z"/><g fill="#FFF"><path d="M49.3 12.4c2.1.5 3.8 1.5 4 2.1.1.2.1.3.1.5 0 .7-.4 1.3-.7 1.3-.3 0-.5-.3-.7-.7-.6-1.4-1.2-2.1-2.7-2.9v-.3zm7.8-3.3l-3 10.9c-.3 1.2-.4 2.3-.4 3.5 0 1.5.2 3 .5 5 .1.3.1.5.1.7 0 .7-.3 1.2-1 1.2-.6 0-.9-.4-.9-1.3v-.5c.1-1.5.2-2.5.2-3.3 0-1.8 0-2.1-3.3-2.5v-.4c2.7 0 3-.4 3.6-2.1L56.7 9l.4.1zm-5.9-2.7c2.4.7 3.9 1.7 4.1 2.3.1.2.1.4.1.6 0 .8-.5 1.3-.9 1.3-.3 0-.5-.2-.6-.8-.2-.9-1-2.1-2.7-2.9v-.5zm22 10.7c.2.2.3.3.3.4 0 .1-.1.1-.4.1H58.2c-.5 0-1.3.1-1.7.3l-.7-1c.7.1 1.3.1 1.9.1h6.5v-5.6h-4.1c-.7 1.5-1.4 2.9-2.2 4.2l-.3-.2c1.3-3.1 2.2-6.3 2.7-8.7l1.8 1.1.1.1c0 .1 0 .1-.2.1-.6.2-.7.3-.9.9-.3.6-.5 1.3-.8 1.9h3.8V8.9c0-1.1-.1-3-.1-4l2 .9c.2.1.3.2.3.3 0 .1-.1.2-.3.3l-.7.5v4h3.4l1.1-1.6 1.4 1.6c.2.3.3.4.3.5 0 .1-.1.1-.4.1h-5.8V17h5.2l1.1-1.6 1.6 1.7zM70.6 21c.1.1.2.2.2.3 0 .1-.1.1-.2.3l-.9.7v4c0 1.7.1 2.8.1 3.5v.3c0 .4-.2.5-.7.7-.2.1-.4.2-.5.2-.2 0-.2-.1-.2-.4v-2h-8.5v1.6c0 .4-.1.5-.5.7-.2 0-.4.1-.5.1-.2 0-.2-.2-.2-.6v-7.9-2.9l1.6 1.5h7.8l.9-1.3 1.6 1.2zm-2.1 6.8v-6.1H60v6.1h8.5zM75.3 12.7c2.4.7 3.6 1.6 3.6 2.8 0 .6-.4 1.2-.8 1.2-.3 0-.5-.3-.6-.8-.2-1-.7-1.8-2.3-2.9l.1-.3zm6-2l-2 9.6c-.3 1.5-.4 2.7-.4 4 0 1 .1 2.1.3 3.4.1.5.1.9.1 1.2 0 1-.3 1.5-.9 1.5-.5 0-.8-.3-.8-1.3 0-.3 0-.6.1-1 .2-1.3.3-2.2.3-2.9 0-1-.2-1.4-.6-1.7-.6-.4-1.3-.7-1.9-.8l.1-.4c.6.1 1 .1 1.3.1.9 0 1.1-.4 1.3-1.3L81 10.7h.3zm-4.9-4.6c1.8.5 4 1.2 4 2.8 0 .6-.3 1.1-.7 1.1-.3 0-.5-.1-.8-.7-.4-.9-.7-1.5-2.8-2.9l.3-.3zM88.9 10c.1.1.1.2.1.2s-.1.1-.2.1h-3.5v3h1l.5-.7 1.2 1.1.1.1c0 .1-.1.1-.5.4v4.6c0 .3.1 1.6.1 1.9 0 .3-.1.4-.5.6-.3.1-.4.2-.5.2-.2 0-.2-.2-.2-.8h-1.6v3.1h.9l.6-1 1 1.2c.1.1.1.2.1.3 0 .1-.1.1-.2.1h-2.4v1.9c0 2.1 0 2.8.1 3.3v.2c0 .3-.1.4-.6.6-.3.2-.5.3-.6.3-.1 0-.1-.1-.1-.3v-.3c.1-1 .1-2.3.1-3.9v-1.9h-1.9c-.4 0-1 .1-1.4.3l-.6-1c.5.1 1 .1 1.5.1h2.3v-3.1h-1.1c0 .6 0 .7-.5 1-.2.1-.3.2-.4.2-.1 0-.2-.1-.2-.4 0-.2.1-1.9.1-2.3v-4.2c0-.6 0-2-.1-2.8l1.3 1.1h1.5v-3h-1.4c-.4 0-1 .1-1.4.3l-.6-1c.5.1 1 .1 1.5.1h1.8V8c0-1.3 0-2-.1-3.1l1.9 1c.1 0 .2.1.2.1l-.2.2-.7.5v3.1h1.4l.9-1.2 1.3 1.4zm-2.4 6.7v-2.8h-3.9v2.8h3.9zm0 3.5v-2.9h-3.9v2.9h3.9zm6.6-5.6c.1.1.1.1.1.2s0 .1-.1.2l-.4.3v12.4c0 1.9-.1 2-1.5 3-.1.1-.1.1-.2.1s-.1-.1-.2-.2c-.1-.6-.2-1.1-2.5-1.6l.1-.4c1.2.2 1.9.3 2.4.3.8 0 .8-.3.8-.9v-6.1l-1.3 1.5c-.5.5-.9 1.2-1.1 1.6 0 .1-.1.2-.1.2-.1 0-.1 0-.1-.1l-1.1-1 3.7-2.8V15h-1.7c-.5 0-.8.1-1.2.2l-.7-.9c.5.1.9.1 1.3.1h2l.7-.9 1.1 1.1zm-4.6 1.9c1.8 1.6 2 2.3 2 3 0 .6-.3 1.1-.7 1.1-.3 0-.4-.3-.5-1 0-.7-.2-1.6-1.1-2.9l.3-.2zm6.3-10.9c.2.1.2.2.2.2 0 .1-.8.3-.9.3 1.5 3.4 3.6 5.5 5.7 6.3v.3c-1.2.1-1.5.3-1.8.6-.1.1-.1.1-.2.1-.2 0-2.6-2.5-4-7-2.1 3.2-3.6 5.3-5.1 6.9l-.4-.2c2.3-3.2 3.5-5.5 4.9-8.6l1.6 1.1zm3.4 9c.1.1.1.1.1.2s-.1.1-.1.2l-.6.4v12.8c0 1.9-.1 2.2-1.4 3.1-.1.1-.1.1-.2.1s-.1-.1-.2-.2c-.1-.8-.4-1.2-2.6-1.6l.1-.4c1 .2 1.7.3 2.2.3.8 0 1-.3 1-.9V22l-1.7 2.2c-.4.5-.4.8-.4 1.2 0 .1-.1.1-.1.1s-.1 0-.1-.1l-1.2-.8 3.5-3.3V15h-1.7c-.3 0-.6.1-1.1.3l-.7-1c.5.1.9.1 1.2.1h2l.7-.9 1.3 1.1zm-4.8 2.2c1.2 1 2.1 2.1 2.1 3.1 0 .6-.3.9-.7.9-.3 0-.5-.2-.5-1s-.3-1.5-1.2-2.8l.3-.2zM101.3 11.8c3.5 1.3 4.2 2.4 4.2 3.1 0 .6-.5 1.3-.9 1.3-.3 0-.4-.2-.6-.8-.3-1-1.2-2.1-2.9-3.2l.2-.4zm7.6-1.8l-3.1 11.5c-.2.6-.3 1.4-.3 2.2 0 1.2.2 2.5.6 4.1.1.3.1.6.1.8 0 1-.5 1.6-.9 1.6s-.9-.3-.9-1.4c0-.3.1-.6.1-1 .2-1 .2-1.8.2-2.4 0-1.8-.3-2.4-3.3-2.7v-.5c.7.1 1.2.1 1.6.1 1.2 0 1.5-.4 1.9-1.8l3.5-10.6.5.1zm-6-4.3c3.4 1 4.2 2.2 4.2 2.9 0 .7-.5 1.3-.7 1.3-.4 0-.5-.1-.8-.8-.3-1-.8-1.9-2.9-3.2l.2-.2zm14.7 13.2c2.2 4.5 4.3 6.8 8.1 7.9l-.1.3c-1.4 0-2 .3-2.3.8-.1.1-.1.1-.2.1s-.2-.1-.3-.2c-2.7-2.2-4.2-4.8-5.6-9h-.3V24c0 2.1 0 4.2.1 5.5v.2c0 .4-.1.5-.6.8-.2.1-.4.2-.5.2-.2 0-.2-.2-.2-.6v-.3c.1-1.7.1-4.2.1-5.8v-4c-2.2 3.4-5.2 6.8-8.4 9l-.2-.4c2.9-2.4 6.3-6.7 7.9-9.8H111c-.5 0-1.3.1-1.7.3l-.7-1c.6.1 1.3.1 1.9.1h5.4c0-1.6 0-3.3-.1-4.9l1.8.8c.2.1.3.1.3.2s-.1.1-.7.7v3.2h5.2l1.1-1.3 1.4 1.4c.2.2.3.3.3.4 0 .1-.1.1-.4.1l-7.2.1zM124.9 7l.3.3s-.1.1-.4.2c-.8.1-1.3.6-3.1 2.7l-.3-.2 1.3-2.7h-10.5c-.1 1-.6 2.9-2 2.9-.2 0-.8-.1-.8-.6 0-.4.2-.7.9-1 .9-.4 1.4-1.4 1.5-3.2h.4c0 .4.1.9 0 1.3h10.3l.8-1.2 1.6 1.5zm-9.5 3.2c.2.2.3.3.3.4 0 .1-.1.1-.3.2-.4.1-.7.2-1 .5-1.3 1.7-3.2 4-4.7 5.4l-.3-.3c2-2.4 3.4-4.7 4.7-7.3l1.3 1.1zm2.2-.8c2.1 1.1 5.4 3.4 5.4 5.1 0 .8-.5 1.6-.9 1.6-.2 0-.5-.2-.6-.9-.1-.8-1.1-3.5-4-5.5l.1-.3zM150.6 8.9c.1.1.2.2.2.3 0 .1-.1.1-.3.1h-18.8v6.2c0 6.9-.7 12.5-4.5 15.6l-.2-.3c2.7-3.8 3.5-6.5 3.5-15.2v-5.1c0-1.1-.1-2.3-.1-3.3l1.7 1.4h15.6l1.1-1.7 1.8 2zm.9 20.5c-1.3 0-2.1.6-2.3 1.3-.1.1-.1.1-.2.1-.2 0-5.7-1.3-8.2-3.1-2.8 2.3-6.5 3.2-10.9 3.6v-.4c4.3-.8 7.7-2.1 10.1-3.9-1.7-1.6-2.7-3.5-3.3-5.4h-.9c-.4 0-.9.1-1.3.3l-.7-1c.6.1 1.3.1 1.9.1h8.4l.8-1 1.5 1.3c.1.1.1.1.1.2s-.1.1-.2.2c-.3.1-.8.4-1 .8-1.3 2.1-2.2 3.3-3.6 4.6 2.2 1.2 5.4 2 9.9 2l-.1.3zm-.8-15.8c.1.1.2.2.2.3 0 .1-.1.1-.3.1h-5.9v1.8c0 .4.1 2.7.1 2.7 0 .3-.1.4-.6.6-.2.1-.4.1-.5.1-.2 0-.2-.1-.2-.8H138c0 .6 0 .7-.5.9-.3.1-.4.2-.5.2-.2 0-.2-.1-.2-.4V14h-1.7c-.5 0-1.3.1-1.7.3l-.7-1c.6.1 1.3.1 1.9.1h2.2v-1.2c0-1 0-1.8-.1-2.6l1.9 1c.1.1.1.1.1.2s-.1.1-.1.2l-.6.5v1.9h5.5v-1.1c0-1 0-1.9-.1-2.7l1.8.9c.1.1.2.1.2.2s-.1.2-.7.7v2.1h3.2l1-1.4 1.8 1.5zm-13.6 8c.7 1.9 1.8 3.5 3.5 4.7 1.8-1.6 2.7-2.9 3.4-4.7h-6.9zm6.4-3.9V14H138v3.8h5.5zM138.1 5c1.2.2 2.4.6 3 1.2.2.2.3.6.3.9 0 .6-.3 1.3-.7 1.3-.3 0-.5-.4-.7-1-.2-.5-1.1-1.5-1.9-2.1V5z"/></g><path fill="#FFF" d="M23 4.7h4c1.2 14.2-.4 18 16.2 29.5l-1.5 2.9c-15.9-9.6-33.7 0-33.7 0l-1.9-2.2C18.3 24.8 23.4 20 23 4.7z"/><circle fill="#49514A" stroke="#000" stroke-miterlimit="10" cx="25" cy="25.3" r="3.6"/><g fill="#FFF"><path d="M20.3 4.8S20 20.9 4.9 30.2l-1.1-1.6c2.6.7 14.1-14 14.8-23.9l1.7.1z"/><path d="M9.5 14.4s6.1 3.9 5.2 3.8c-.9-.2-1.3 1.3-1.3 1.3s-5.8-4-4.8-4.6l.9-.5zM6.1 18.9s5.8 4.3 5 4.1-1.4 1.3-1.4 1.3-5.5-4.4-4.6-4.8l1-.6zM12.1 9.4s7.1 1.8 6.1 1.9c-.9.1-.8 1.7-.8 1.7s-6.8-2-6.1-2.8.8-.8.8-.8z"/></g><g fill="#FFF"><path d="M29.6 4.8s.3 16.1 15.4 25.4l1.1-1.6c-2.6.7-14.1-14-14.8-23.9l-1.7.1z"/><path d="M40.5 14.4s-6.1 3.9-5.2 3.8c.9-.2 1.3 1.3 1.3 1.3s5.8-4 4.8-4.6-.9-.5-.9-.5zM43.8 18.9s-5.8 4.3-5 4.1c.9-.2 1.4 1.3 1.4 1.3s5.5-4.4 4.6-4.8l-1-.6zM37.9 9.4s-7.1 1.8-6.1 1.9c.9.1.8 1.7.8 1.7s6.8-2 6.1-2.8l-.8-.8z"/></g><g fill="#FFF"><path d="M41.2 40.4s-13.6-8.6-29.6-1.1l.7 1.8c.9-2.5 19.5-4 28.1.7l.8-1.4z"/><path d="M27.3 44.3s0-7.3-.3-6.4c-.3.9-1.8.3-1.8.3s.2 7 1.2 6.5l.9-.4zM21.7 44.6s-.4-7.2-.7-6.4-1.8.5-1.8.5.6 7 1.5 6.5l1-.6zM32.9 44.9s2.4-6.9 1.8-6.2c-.6.7-1.8-.3-1.8-.3s-2.1 6.7-1 6.6l1-.1z"/></g></svg>