<svg xmlns="http://www.w3.org/2000/svg" width="125.5" height="13.1"><g fill="#FFF"><path d="M0 10.4V1h2.4v9.4H0zM6.4 10.4V3.6h2v1c1-.8 2.4-1.1 4.2-1.1.8 0 1.5.1 2.2.2.7.1 1.2.3 1.5.6.3.2.6.5.7.9.1.2.1.6.1 1.1v4.2H15V6.3c0-.5-.1-.8-.3-1.1-.2-.2-.5-.4-.9-.6-.4-.1-1-.2-1.6-.2-1 0-1.8.2-2.5.5s-1 .9-1 1.8v3.7H6.4zM19.8 8.4l2.2-.2c.1.5.5.8 1 1.1.6.2 1.4.4 2.4.4s1.8-.1 2.3-.3c.5-.2.8-.5.8-.8 0-.3-.2-.5-.7-.6-.3-.1-1.1-.2-2.3-.4-1.7-.2-2.8-.4-3.4-.6-.6-.2-1.1-.4-1.5-.6-.3-.3-.5-.6-.5-.9 0-.3.1-.6.4-.8.3-.3.6-.5 1.1-.6.4-.1.8-.2 1.4-.3.6-.1 1.3-.1 1.9-.1 1 0 2 .1 2.8.2.8.2 1.4.4 1.7.6.4.3.6.6.8 1.1l-2.2.2c-.1-.4-.4-.6-.9-.8-.5-.2-1.2-.3-2-.3-1 0-1.8.1-2.2.3-.4.2-.7.4-.7.6 0 .1.1.3.3.4.2.1.5.2.9.3.2 0 .9.1 2 .3 1.6.2 2.7.4 3.3.5.6.1 1.1.3 1.5.6.4.3.5.6.5 1s-.2.7-.7 1.1c-.4.3-1.1.6-1.9.8-.8.2-1.8.3-2.8.3-1.7 0-3-.2-4-.6-.7-.6-1.3-1.2-1.5-1.9zM33.5 13.1V3.6h2.1v.9c.5-.3 1-.6 1.6-.8.6-.2 1.3-.3 2.2-.3 1.1 0 2.1.1 3 .5.9.3 1.5.7 2 1.3s.7 1.1.7 1.8-.2 1.3-.7 1.9c-.5.6-1.2 1-2.1 1.3-.9.3-1.9.4-2.9.4-.8 0-1.4-.1-2-.2-.6-.2-1.1-.4-1.5-.6v3.3h-2.4zm2.1-6c0 .9.3 1.5 1 1.9.7.4 1.5.6 2.5.6s1.9-.2 2.6-.7 1.1-1.1 1.1-2c0-.9-.4-1.5-1-2-.7-.4-1.5-.6-2.5-.6s-1.8.2-2.5.7c-.9.5-1.2 1.2-1.2 2.1zM56.5 10.4v-1c-1 .8-2.4 1.2-4.2 1.2-.8 0-1.5-.1-2.2-.2-.7-.2-1.2-.3-1.5-.6-.3-.2-.6-.5-.7-.9-.1-.2-.1-.6-.1-1.1V3.6H50v3.8c0 .6 0 1 .1 1.2.1.3.4.5.9.7.5.2 1 .3 1.7.3s1.3-.1 1.9-.3c.6-.2 1-.4 1.3-.7.2-.3.4-.8.4-1.3V3.6h2.3v6.8h-2.1zM62 10.4V3.6h2v1c.5-.5 1-.8 1.4-1 .4-.2.9-.2 1.4-.2.8 0 1.5.1 2.3.4l-.8 1.1c-.6-.2-1.1-.3-1.7-.3-.5 0-.9.1-1.3.2-.4.2-.7.4-.8.6-.3.4-.4.9-.4 1.4v3.6H62zM77.4 4c1.3.5 2.7 1.2 4 2 .3.4 0 .5-.8.4-1.3-.7-2.7-1.3-4-1.9-.2-.4 0-.5.8-.5zm4 3.2c.6-.3 1-.2 1.2.3-.9 1.9-2.3 3.3-4.2 4.4-.8.2-1.1.1-1-.4 1.9-1.1 3.2-2.5 4-4.3zM79 .5c1.6.8 2.9 1.6 3.8 2.3 0 .3-.3.4-1 .3-1.2-.8-2.4-1.4-3.6-2.1-.2-.4 0-.6.8-.5zM90.5.1c.8.5 1.4 1 1.8 1.4h4.4c1.6 0 2.3.3 2.2.9v3.5c.1.8-.5 1.2-2 1.1h-6c1.1 1.1 2.2 1.9 3.4 2.5 1.9-.7 3.5-1.4 4.8-2.2.9-.2 1.3-.1 1 .4-1.6.8-3.2 1.5-4.8 2.2 1.7.8 3.5 1.3 5.4 1.6.4.3.3.5-.4.6-4.9-1-8.6-2.7-10.8-5.1h-4.2v4c0 .4.5.5 1.6.3 2.4-.3 4.1-.6 5.2-.9.8.1.9.3.4.6-1.7.4-4 .8-6.8 1-1.1.1-1.6-.2-1.6-1V2.5c0-.7.7-1 2.2-1h4.6c-.4-.3-.9-.7-1.4-1 0-.4.3-.6 1-.4zm6.2 2H86.2c-.7 0-1 .2-1 .5V4h12.4V2.6c.2-.3-.1-.5-.9-.5zm1 2.5H85.2v1.9h11.4c.8.1 1.1-.1 1-.5l.1-1.4zM103.5 3.5c1.6.8 2.9 1.4 3.8 2.1 0 .4-.3.5-1 .4-.7-.5-1.9-1.1-3.6-2-.2-.4.1-.5.8-.5zm2.8 3.3c.5-.3.9-.2 1.2.1-.4 2.1-1.5 3.7-3.2 5-.7.2-1 .1-1-.3 1.6-1.2 2.6-2.8 3-4.8zM104.5.5c1.2.5 2.3 1.1 3.4 1.7.4.5.1.7-.8.5-1.1-.6-2.2-1.2-3.4-1.7-.4-.4-.2-.6.8-.5zm8.6-.2v1.2h3.2c.5.2.5.4 0 .6h-3.2v1h1.6c1.5 0 2.1.3 2 1v3.1c.1.8-.5 1.1-2 1h-1.6v1.2h3.6c.5.2.5.4 0 .6h-3.6v2c-.4.3-.8.3-1.2 0v-1.9h-4c-.5-.2-.5-.4 0-.6h4V8.3h-1.6c-1.3.1-2-.3-2-1V4.2c0-.7.7-1 2-1h1.6v-1h-3c-.5-.2-.5-.4 0-.6h3V.3c.4-.4.8-.4 1.2 0zm1.2 3.5h-3.6c-.8 0-1.2.2-1.2.6v1h6v-1c.1-.4-.3-.6-1.2-.6zm1.2 2.2h-6v1c0 .5.4.7 1.2.6h3.6c.9.1 1.3-.1 1.2-.6V6zm4.8-5.3h2.8c1.7 0 2.5.3 2.4 1v9.6c0 .7-.8 1-2.4.8-1.2-.1-2.3-.2-3.2-.5-.4-.4-.1-.6.8-.5 2.5.6 3.7.6 3.6-.1V7.5h-4.8c.1 1.8-.7 3.3-2.6 4.6-.7.2-1 .1-1-.3 1.7-1.2 2.5-2.7 2.4-4.5V1.7c0-.7.7-1 2-1zm2.4.6h-2c-.8 0-1.2.2-1.2.6v1.9h4.8V1.9c.2-.4-.4-.6-1.6-.6zm1.6 3.1h-4.8v2.5h4.8V4.4z"/></g></svg>