<svg xmlns="http://www.w3.org/2000/svg" width="39.4" height="40.2"><path fill="#356FB7" d="M.2 17.9c3.1 2.1 7.3 3.5 11.9 3.8 2.6.1 5-.1 7.3-.7 4.1-1 4-6.7-.2-7.5-1.2-.2-2.4-.4-3.6-.4-6.3-.3-12 1.6-15.4 4.8z"/><path fill="#AAD057" d="M21.4 39.8c3.2.3 10.6-3.1 14.5-7.9-3.4 2.6-11.9 6-14.9 6.2-1.1.1-1 1.5.4 1.7z"/><path fill="#4483C4" d="M19.7 8.9c5 0 9.8.9 14 2.6 2.3.9 4.1-2.2 2.1-3.6-4.2-2.9-9.2-4.5-14.7-4.5-8.8 0-16.6 4.4-21.1 11 5.4-3.5 12.2-5.5 19.7-5.5z"/><path fill="#99C848" d="M20 31.2c-5 0-9.8-.9-14-2.6-2.3-.9-4.1 2.2-2.1 3.6 4.1 2.9 9.2 4.5 14.6 4.5 8.8 0 15.7-5 20.2-11.7-5.3 3.5-11.2 6.2-18.7 6.2z"/><path fill="#10295C" d="M20.8 37C11.9 37 4.3 32.6 1 26.3c1.8 7.9 9.2 13.9 18 13.9 3.2 0 6.3-.8 8.9-2.2 1-.5.4-2.1-.8-1.8-2 .5-4.1.8-6.3.8z"/><path fill="#759DD2" d="M18.3.2C15.1-.1 7.7 3.2 3.8 8c3.4-2.6 11.9-6 14.9-6.1 1.1-.2 1-1.6-.4-1.7z"/><path fill="#2355A5" d="M18.1 26c-6.8 0-13-1.7-17.6-4.4C2.9 28.3 10.7 33.3 20 33.3c3.3 0 6.5-.6 9.2-1.8 4-1.6 2-7.5-2.2-6.5-2.8.6-5.7 1-8.9 1z"/><path fill="#9CC94A" d="M39.4 22c-3.1-2.1-7.3-3.6-11.9-3.8-2.6-.1-5 .1-7.3.7-4.1 1-4 6.8.2 7.6 1.2.2 2.4.4 3.6.4 6.4.3 12.1-1.7 15.4-4.9z"/><path fill="#83C036" d="M21.6 13.8c6.8 0 13 1.7 17.6 4.5C36.8 11.5 29 6.4 19.7 6.4c-3.3 0-6.5.7-9.2 1.8-4 1.7-2 7.6 2.2 6.6 2.8-.6 5.7-1 8.9-1z"/><path fill="#6EB926" d="M18.9 3.3c8.9 0 16.5 4.4 19.9 10.8C37 6 29.6 0 20.8 0c-3.2 0-6.3.8-8.9 2.2-1 .6-.4 2.1.8 1.8 1.9-.4 4-.7 6.2-.7z"/></svg>