<svg xmlns="http://www.w3.org/2000/svg" width="119.5" height="33.7"><path fill="#133982" d="M0 4h23.8v5.8H7.3v6.4h16.5v5H7.3v12.5H0z"/><path fill="#133982" d="M22.8 12.8h11.4v5.3H22.8z"/><path fill="#E77919" d="M22.8 28.3h11.4v5.3H22.8zM21.8 0h11.4v5.3H21.8z"/><g fill="#133982"><path d="M43.6 13.4c-.7-.5-2.3-1.2-3.5-1.6l1.3-1.4c1.2.4 2.7 1 3.5 1.4l-1.3 1.6zm1.9 2c-.8 1.6-1.9 3.3-2.8 4.8l-2-1c.9-1.2 2.2-3 3.1-4.8l1.7 1zm-.8-6c-.8-.5-2.4-1.2-3.5-1.7l1.3-1.3c1.1.4 2.8 1 3.6 1.5l-1.4 1.5zm1.7 2.6c-.2.1-.4.3-.5.4-.4-.4-1.2-1.1-1.6-1.4C46.2 9.9 48 8.2 49 6.4l2.2.5c-.2.2-.3.5-.5.7h3.1l.4-.1 1.5.8c-.5.7-1.1 1.4-1.8 2.1h3.3v6.4H46.4V12zm11.7 6.1v1.7h-13v-1.7h13zm-8.7-9c-.4.5-.8.9-1.3 1.3h3.2c.4-.4.7-.8 1.1-1.3h-3zm1.3 3.9v-1.2h-2.3V13h2.3zm-2.3 1.3v1.2h2.3v-1.2h-2.3zm6.7-2.5h-2.3V13h2.3v-1.2zm0 2.5h-2.3v1.2h2.3v-1.2zM68 6.8c-1.3 1.6-3.5 2.9-5.8 3.7-.3-.3-1.1-1-1.6-1.3 2.1-.6 4.2-1.6 5.2-2.9l2.2.5zm1 11.9c0 .8-.2 1.1-.9 1.4-.7.2-1.6.2-2.9.2-.1-.4-.4-1-.6-1.4h1.9c.3 0 .3-.1.3-.2v-.9c-1.8.5-3.6 1.1-5.1 1.5l-.9-1.4c1.5-.3 3.8-.9 6-1.5v-2h-3.4c.9.4 1.9.9 2.4 1.3l-1.5 1c-.5-.4-1.6-1.1-2.4-1.5l1.3-.8h-1.6v-1.5H69v5.8zm5.6-6c-.3-.3-.7-.6-1.1-1-7.5.4-8.4.5-9.1.7-.1-.3-.4-1.1-.6-1.5.4-.1.9-.2 1.4-.5.6-.3 2.5-1.4 3.7-2.6l1.8 1c-.9.7-1.9 1.3-3 1.9l4-.2c-.4-.3-.8-.5-1.1-.7l1.7-.7c1.5.8 3.2 2 4.1 2.8l-1.8.8zm3.1 6c0 .8-.2 1.2-.9 1.4-.7.2-1.7.2-3.1.2-.1-.4-.4-1-.6-1.5h2.1c.3 0 .4-.1.4-.2v-.9c-1.8.6-3.8 1.2-5.3 1.6l-.9-1.4c1.5-.4 3.9-1 6.2-1.6v-1.9h-3.8c.9.4 2 1 2.5 1.4l-1.5 1c-.5-.4-1.6-1.1-2.5-1.5l1.3-.8H70V13h7.7v5.7zM73.2 6.4c1.2 1.1 3.5 2.2 5.6 2.8-.5.3-1.2 1-1.5 1.4-2.2-.7-4.6-2.1-6-3.6l1.9-.6zM87.1 6.9c-.4.9-.9 1.8-1.4 2.7v10.9h-2.1v-8.1l-1.4 1.4c-.2-.4-.8-1.3-1.2-1.8 1.6-1.4 3.2-3.5 4.1-5.6l2 .5zm12 1.8v1.5H86.5V8.7h5.6c-.3-.6-.8-1.2-1.2-1.8l2-.6c.5.6 1.1 1.4 1.4 2l-1.1.4h5.9zm-11.5 6.6h10.3v5h-2v-.4h-6.3v.5h-2v-5.1zm10.1-3h-9.8v-1.4h9.8v1.4zm-9.8.8h9.8v1.4h-9.8v-1.4zm1.7 3.6v1.7h6.3v-1.7h-6.3zM101.5 18.8c.7-.9 1.4-2.1 1.8-3.1l2.1.7c-.5 1-1.1 2.4-1.8 3.3l-2.1-.9zM110 15h-5.6V7.6h4.5c.2-.5.4-1 .5-1.5l2.8.3c-.3.5-.6.8-.8 1.2h5.3V15h-5.6c.8.6 1.6 1.4 2 2l-1.9.9c-.4-.7-1.4-1.7-2.3-2.4l1.1-.5zm2.8 3.5c.9 0 1.1-.2 1.2-1.6.5.3 1.5.5 2.1.6-.3 2.1-1 2.6-3.1 2.6h-3.7c-2.7 0-3.4-.5-3.4-2.1v-2.1h2.4V18c0 .5.2.5 1.3.5h3.2zm-6.1-8.8h7.7V9h-7.7v.7zm0 2h7.7V11h-7.7v.7zm0 1.9h7.7v-.7h-7.7v.7zm10.6 1.8c.9 1 1.8 2.3 2.2 3.2l-2.2.7c-.3-.9-1.1-2.2-2-3.3l2-.6z"/></g><g fill="#133982"><path d="M42.8 24.2v2.1H47v1h-4.2v3.2h-2.3v-5.6c0-.9.7-1.6 1.6-1.6h5.2v1h-4.5zM48.8 30.3v-7.1H51v7.1h-2.2zM55.1 24.1l4.5 2.6c.6.3.9 1 .9 1.6v.1c0 1-.8 1.9-1.9 1.9h-5.7l-.4-.9h5.7l-4.5-2.7c-.6-.3-.9-1-.9-1.6 0-1 .8-1.9 1.9-1.9h5.9v.9h-5.5zM67.8 30.3v-3.2h-3.4v3.2h-2.3v-7.1h2.3v3h3.4v-3h2.3v7.1h-2.3zM78.3 30.3h-5.5c-.7 0-1.2-.5-1.2-1.2v-4.7c0-.7.5-1.2 1.2-1.2h5.8v.9h-4.7v2.1h4.5v.9h-4.5v2.3h4.9l-.5.9zM85.4 30.3l-1.9-3h-1.1v-.8 3.8h-2.3v-5.8c0-.7.6-1.3 1.3-1.3h1v.8-.8h3.5c.7 0 1.3.6 1.3 1.3v2.9H86l1.9 3h-2.5zm-.6-5.6h-2.4v1.7h2.4c.5 0 .9-.4.9-.9 0-.4-.4-.8-.9-.8z"/></g><g fill="#E77919"><path d="M96.3 30.3v-5.2c0-.5-.4-.8-.8-.8h-1v6.1h-1.8l-.1-6.1h-.9c-.5 0-.8.4-.8.8v5.2h-2.1v-5.7c0-.8.7-1.5 1.5-1.5h6.6c.8 0 1.5.7 1.5 1.5v5.7h-2.1zM106 30.3v-4h-3.6v4h-2.1v-5.2c0-1.1.9-2 2-2h3.9c1.1 0 2 .9 2 2v5.2H106zm0-5.8h-3.6v1h3.6v-1zM115.7 30.3l-2.8-3.9c-.1-.2-.4-.1-.4.1v3.8h-2.3v-7.1h2.6l2.7 4c.1.2.4.1.4-.1v-3.8h2.3v7.1h-2.5z"/></g></svg>