<svg xmlns="http://www.w3.org/2000/svg" width="76.9" height="25"><path fill="#5C1013" d="M7 8.6S11.6 5 17.5 2.5c3.4-1.4 11-4.1 13.2-1.2 2.2 2.8-1.4 7.6-6.9 11.5-5.5 4.1-11 6.9-13 5.3-2-1.8.5-3.9 4.3-6.9 2-1.6 0-2.3-2-1.4-1.8.9-8.5 4.4-8.5 9.1 0 4.4 5.7 4.3 11.9 1.1 6.2-3.2 5.7-3 7.8-4.3 2.8-1.8 2-.2 2-.2S18.7 22 11.5 24c-6.1 1.6-9.2 1-10.7-.2-1.6-1.4-1.1-5.3 5.5-10.7 5.5-4.4 12.8-7.8 15-6.1 2.1 1.8-4.4 6.1-5.2 6.8-.7.7-.9 2 1.8 1.1 2.7-.9 6.2-4.1 6.9-5 .7-.7 4.3-4.8 2.1-6.2-2-1.4-6.8-.7-10.2.7C13 6 8.4 9.2 7.4 9.4c-.9.3-1.5.1-.4-.8z"/><g fill="#040000"><path d="M34 6.5h2.5c.7 0 .9.4.9.9-.2.5-.5 1.2-1.1 2 .7.7 1.1 1.2 1.4 1.6.2.4 0 .5-.4.4-.4-.5-.7-1.1-1.2-1.4v4.8c-.2.4-.4.4-.5 0v-4.6c-.4.5-.9.9-1.6 1.4-.4 0-.5 0-.4-.4 1.6-1.4 2.7-2.7 3.2-3.7.2-.4 0-.5-.4-.5H34c-.1-.1-.1-.4 0-.5zm1.3-1.8c.5.5.9.9 1.1 1.3 0 .4-.2.4-.4.2-.4-.5-.7-.9-1.1-1.1.1-.2.1-.4.4-.4zm5 .2c.2-.2.4-.2.5 0v1.6h1.6c.7 0 .9.4.9.9v4.4c0 .7-.2.9-.9.9h-1.6V15c-.2.2-.4.2-.5 0v-2.3h-1.6c-.5 0-.9-.4-.9-.9V7.3c-.2-.5.2-.9.9-.9h1.6V4.9zm0 2h-1.4c-.4 0-.5.2-.5.5v1.8h2V6.9h-.1zm0 2.8h-2v2c0 .4.2.5.5.5h1.4V9.7h.1zm1.9-2.8h-1.4v2.3h2V7.4c0-.4-.2-.5-.6-.5zm.6 2.8h-2v2.5h1.4c.4 0 .5-.2.5-.5v-2h.1zM46 7c0 2.1-.2 3.7-.9 5-.4.2-.4 0-.4-.2.7-1.2.9-2.8.9-4.8.1-.1.2-.1.4 0zm1.2-2.1v4.6c.2 2.3-.5 4.1-1.8 5.5-.4 0-.4-.2-.2-.4 1.1-1.2 1.6-3 1.6-5V5.1c0-.4.3-.4.4-.2zM48.5 7c.5 1.6.9 3.2 1.2 4.8-.2.4-.4.4-.5 0-.4-1.8-.7-3.4-1.2-4.8-.1-.1.1-.1.5 0zm2.1-1.8V14c-.2.2-.4.2-.5 0V5.2c.2-.1.3-.1.5 0zm.9 1.7c.7 1.8 1.2 3.6 1.8 5-.2.4-.4.4-.5 0-.5-1.6-1.1-3.2-1.8-5 0-.3.1-.3.5 0zm2.5-2v9.8c-.2.4-.4.4-.5 0V4.9h.5zM58.5 10.4l-.2.4h2.1c.7 0 .9.4.5 1.1-.2.5-.5 1.1-1.2 1.8.5.2.7.4 1.1.5.2.2 0 .4-.2.4-.4-.2-.7-.4-1.1-.5-.9.5-2 .7-3.4.9-.4-.2-.4-.4 0-.5.9 0 2-.2 2.7-.5-.7-.4-1.4-.7-2.1-.9-.2-.2-.2-.4 0-.5.4-.4.7-.7.9-1.1h-1.8c-.2-.2-.2-.4 0-.5h2l.2-.5c.2-.4.5-.4.5-.1zm0-.6V8c-.7.7-1.4 1.4-2.3 1.8-.4 0-.4-.2-.2-.5.9-.4 1.6-.9 2.3-1.8H56c-.4-.2-.4-.4 0-.5h2.7V4.8c.2-.4.4-.4.5 0v2.1h2.1c.2.2.2.4 0 .5h-1.8c.5.7 1.1 1.2 1.6 1.8 0 .4-.2.5-.4.4-.5-.5-.9-1.1-1.4-1.8v1.8c-.5.5-.7.5-.8.2zm-2.2-4.4c0-.4.2-.4.4-.2.4.4.5.9.7 1.4-.2.4-.4.4-.6.2.2-.3-.1-.7-.5-1.4zm4 5.9h-2.1c-.4.5-.7.9-1.1 1.2.9.2 1.6.5 2.1.9.7-.5 1.1-1.1 1.2-1.8.2-.3 0-.3-.1-.3zm.3-6.2c.2-.2.4 0 .4.2-.2.5-.5 1.1-.9 1.6-.4.2-.4 0-.4-.2.3-.6.7-1.1.9-1.6zm2.3 0c0 .5-.2.9-.2 1.3h2.8c.2.2.2.4 0 .5h-.7c0 2-.2 3.7-.9 5.2.5.9 1.1 1.8 1.6 2.3.2.4 0 .5-.4.4-.5-.7-1.1-1.4-1.6-2.3-.7.9-1.4 1.6-2.3 2.3-.4.2-.5 0-.4-.4.9-.7 1.6-1.6 2.3-2.5-.5-1.1-.9-2.1-1.2-3.6l-.5 1.1c-.2.2-.4 0-.4-.2.7-1.4 1.2-2.8 1.2-4.3.3 0 .5 0 .7.2zM64.3 7h-1.8l-.2.7c.4 1.6.7 3 1.2 3.9.7-1.2.8-2.8.8-4.6zM67 5.1h3.4c.2.2.2.4 0 .5H69c-.2.9-.5 2-.9 2.8h1.2c.7 0 .9.4.9.9v4.3c0 .7-.2 1.1-.9.9h-.9c-.5 0-.9-.2-.9-.9V9.5c-.2.4-.4.5-.5.9-.4.2-.4 0-.4-.2.9-1.2 1.6-2.8 2.1-4.6h-1.6c-.3-.2-.3-.4-.1-.5zM69.2 9h-.7c-.4 0-.4.2-.4.4v4.1c0 .4.2.5.5.5h.7c.4 0 .5-.2.5-.5v-4c-.2-.4-.2-.5-.6-.5zm6 2.3c.2.2.2.4 0 .5h-4.3c-.4-.2-.4-.4 0-.5h4.3zm-4.1-6.2h3.4c.9 0 1.1.4 1.1 1.1l-.4 3h.4c.7 0 1.1.4 1.1 1.1v3c0 1.1-.4 1.6-1.2 1.6-.4 0-1.1 0-2-.4-.2-.4-.2-.5.2-.5 1.8.7 2.7.5 2.5-.7v-3.1c0-.4-.2-.5-.5-.5H72c-.5.2-.9-.2-.7-1.1l.2-2.3c.2-.4.4-.4.5 0l-.2 2.3c0 .5 0 .7.4.5h2.5l.4-3c.2-.4 0-.5-.5-.5h-3.4c-.3-.2-.3-.4-.1-.5z"/></g><g fill="#040000"><path d="M34.4 21.9v-5.5h2.9c.4 0 .5.2.9.4s.5.5.7.9c.2.4.2.9.2 1.2s0 .7-.2 1.1c-.2.4-.2.5-.4.7l-.5.5c-.2.2-.4.2-.7.4-.2 0-.5.2-.9.2l-2 .1zm.7-.7h1.2c.4 0 .7 0 .9-.2.2 0 .4-.2.5-.4.2-.2.4-.4.4-.7.2-.4.2-.7.2-1.1 0-.5-.2-1.1-.4-1.2-.2-.2-.4-.5-.7-.5-.2 0-.5-.2-.9-.2h-1.1l-.1 4.3zM40 17.3v-.7h.7v.7H40zm0 4.6V18h.7v3.9H40zM41.4 22.3l.7.2c0 .2.2.4.2.4.2.2.4.2.7.2.4 0 .5 0 .7-.2.2-.2.4-.4.4-.5v-.9c-.4.4-.7.5-1.1.5-.5 0-.9-.2-1.2-.5-.4-.4-.5-.9-.5-1.4 0-.4 0-.7.2-1.1.2-.4.4-.5.5-.7.2-.2.5-.2.9-.2.5 0 .9.2 1.2.5V18h.6v3.4c0 .5 0 1.1-.2 1.2s-.4.5-.5.5c-.2 0-.5.2-1.1.2-.5 0-.9-.2-1.1-.4-.3.1-.4-.2-.4-.6zm.7-2.3c0 .5.2.9.4 1.1.2.2.5.4.7.4.4 0 .5-.2.7-.4.2-.2.4-.5.4-1.1 0-.5-.2-.9-.4-1.1-.2-.2-.5-.4-.7-.4-.4 0-.5.2-.7.4-.4.2-.4.5-.4 1.1zM45.8 17.3v-.7h.7v.7h-.7zm0 4.6V18h.7v3.9h-.7zM49 21.5l.2.5h-.5c-.2 0-.4 0-.5-.2-.2 0-.2-.2-.4-.4v-3h-.5v-.5h.5v-1.1l.8-.3v1.4h.7v.5h-.7V21.1s0 .2.2.2h.2c-.1.2-.1.2 0 .2zM52.2 21.5c-.2.2-.5.4-.7.5-.2 0-.5.2-.7.2-.4 0-.7-.2-1.1-.4-.2-.2-.4-.5-.4-.9 0-.2 0-.4.2-.5 0-.2.2-.4.4-.4.2-.2.4-.2.5-.2s.4 0 .5-.2c.5 0 .9-.2 1.2-.2v-.2c0-.4 0-.5-.2-.5-.2-.2-.4-.2-.7-.2-.4 0-.5 0-.7.2-.2.2-.2.4-.4.5l-.7-.2c0-.4.2-.5.4-.7.2-.2.4-.4.5-.4.2-.2.5-.2.9-.2s.5 0 .9.2c.2 0 .4.2.5.4.2.2.2.4.2.5v2.5c0 .2 0 .4.2.5h-.7c.1 0-.1-.2-.1-.3zm0-1.5c-.2.2-.5.2-1.1.2-.4 0-.5 0-.5.2-.2 0-.2.2-.2.2 0 .2-.2.2-.2.4s0 .4.2.5c.2.2.4.2.5.2s.5 0 .7-.2l.5-.5c0-.2.2-.4.2-.7V20h-.1zM53.8 21.9v-5.5h.7v5.5h-.7zM61.8 20l.7.2c-.2.5-.4 1.1-.9 1.4-.4.4-.9.5-1.4.5-.5 0-1.1-.2-1.4-.4-.4-.2-.7-.5-.9-1.1-.2-.5-.4-.9-.4-1.4 0-.5.2-1.1.4-1.4.2-.4.5-.7.9-.9.4-.2.9-.4 1.2-.4.5 0 1.1.2 1.4.4.4.4.7.7.7 1.2l-.7.2c-.2-.4-.4-.7-.5-.9-.2-.2-.5-.4-.9-.4s-.7.2-1.1.4c-.4.2-.5.5-.5.9-.2.4-.2.7-.2 1.1 0 .5 0 .9.2 1.2.2.4.4.5.7.7.4.2.5.2.9.2s.7-.2 1.1-.4c.3-.2.6-.6.7-1.1zM63.2 21.9v-5.5h.7v2c.4-.4.7-.5 1.2-.5.4 0 .5 0 .7.2l.5.5c.2.2.2.5.2.9V22h-.7v-2.5c0-.4 0-.5-.2-.7s-.4-.2-.5-.2-.4 0-.5.2c-.2.2-.4.2-.4.4s-.2.4-.2.7V22l-.8-.1zM67.5 17.3v-.7h.7v.7h-.7zm0 4.6V18h.7v3.9h-.7zM69.3 21.9V18h.5v.5c.4-.4.7-.7 1.2-.7.2 0 .5 0 .7.2.2 0 .4.2.5.4.2.2.2.4.2.5v3.2h-.7v-2.5-.5c0-.2-.2-.2-.4-.4s-.4-.2-.5-.2c-.4 0-.5.2-.7.4-.2.2-.4.5-.4 1.1v2.1l-.4-.2zM76 21.5c-.2.2-.5.4-.7.5-.2 0-.5.2-.7.2-.4 0-.7-.2-1.1-.4-.2-.2-.4-.5-.4-.9 0-.2 0-.4.2-.5 0-.2.2-.4.4-.4.2-.2.4-.2.5-.2s.4 0 .5-.2c.5 0 .9-.2 1.2-.2v-.2c0-.4 0-.5-.2-.5-.2-.2-.4-.2-.7-.2-.4 0-.5 0-.7.2-.2.2-.2.4-.4.5l-.7-.2c0-.4.2-.5.4-.7.2-.2.4-.4.5-.4.2-.2.5-.2.9-.2.3 0 .5 0 .9.2.2 0 .4.2.5.4.2.2.2.4.2.5v2.5c0 .2 0 .4.2.5h-.7c-.1 0-.1-.2-.1-.3zm0-1.5c-.2.2-.5.2-1.1.2-.4 0-.5 0-.5.2-.2 0-.2.2-.2.2 0 .2-.2.2-.2.4s0 .4.2.5c.2.2.4.2.5.2s.5 0 .7-.2l.5-.5c0-.2.2-.4.2-.7V20H76z"/></g></svg>