<svg xmlns="http://www.w3.org/2000/svg" width="43.2" height="14"><g fill="#FFF"><path d="M3.9 4.8s2.6-2 5.9-3.4C11.7.6 16-.9 17.2.7s-.8 4.3-3.9 6.5c-3.1 2.3-6.2 3.9-7.3 3-1.1-1 .3-2.2 2.4-3.9 1.1-.9 0-1.3-1.1-.8-1 .5-4.8 2.5-4.8 5.1 0 2.5 3.2 2.4 6.7.6s3.2-1.7 4.4-2.4c1.6-1 1.1-.1 1.1-.1s-4.2 3.6-8.2 4.7c-3.5.9-5.2.6-6.1-.1-.9-.8-.6-3 3.1-6 3.1-2.5 7.2-4.4 8.4-3.4 1.2 1-2.5 3.4-2.9 3.8s-.5 1.1 1 .6c1.5-.5 3.5-2.3 3.9-2.8.4-.4 2.4-2.7 1.2-3.5s-3.9-.4-5.8.4c-2.1.9-4.7 2.7-5.2 2.8-.5.2-.8.1-.2-.4zM19.1 3.6h1.4c.4 0 .5.2.5.5-.1.3-.3.7-.6 1.1.4.4.6.7.8.9.1.2 0 .3-.2.2-.2-.3-.4-.6-.7-.8v2.7c-.1.2-.2.2-.3 0V5.6c-.2.3-.5.5-.9.8-.2 0-.3 0-.2-.2.9-.8 1.5-1.5 1.8-2.1.1-.2 0-.3-.2-.3h-1.3c-.2 0-.2-.1-.1-.2zm.7-1c.3.3.5.5.6.7 0 .2-.1.2-.2.1-.2-.3-.4-.5-.6-.6 0-.1 0-.2.2-.2zm2.8.1c.1-.1.2-.1.3 0v.9h.9c.4 0 .5.2.5.5v2.5c0 .4-.1.5-.5.5h-.9v1.3c-.1.1-.2.1-.3 0V7.1h-.9c-.3 0-.5-.2-.5-.5V4.1c-.1-.3.1-.5.5-.5h.9v-.9zm0 1.1h-.8c-.2 0-.3.1-.3.3v1h1.1V3.8zm0 1.6h-1.1v1.1c0 .2.1.3.3.3h.8V5.4zm1.1-1.6h-.8v1.3H24v-1c0-.2-.1-.3-.3-.3zm.3 1.6h-1.1v1.4h.8c.2 0 .3-.1.3-.3V5.4zM25.8 3.9c0 1.2-.1 2.1-.5 2.8-.2.1-.2 0-.2-.1.4-.7.5-1.6.5-2.7 0-.1.1-.1.2 0zm.7-1.2v2.6c.1 1.3-.3 2.3-1 3.1-.2 0-.2-.1-.1-.2.6-.7.9-1.7.9-2.8V2.8c0-.2.1-.2.2-.1zm.7 1.2c.3.9.5 1.8.7 2.7-.1.2-.2.2-.3 0-.2-1-.4-1.9-.7-2.7 0-.1.1-.1.3 0zm1.2-1v4.9c-.1.1-.2.1-.3 0V2.9c.1-.1.2-.1.3 0zm.5.9c.4 1 .7 2 1 2.8-.1.2-.2.2-.3 0-.3-.9-.6-1.8-1-2.8 0-.1.1-.1.3 0zm1.4-1.1v5.5c-.1.2-.2.2-.3 0V2.7h.3zM32.8 5.8l-.1.2h1.2c.4 0 .5.2.3.6-.1.3-.3.6-.7 1 .3.1.4.2.6.3.1.1 0 .2-.1.2l-.6-.3c-.5.3-1.1.4-1.9.5-.2-.1-.2-.2 0-.3.5 0 1.1-.1 1.5-.3-.4-.2-.8-.4-1.2-.5-.1-.1-.1-.2 0-.3.2-.2.4-.4.5-.6h-1c-.1-.1-.1-.2 0-.3h1.1l.1-.3c.2-.1.3-.1.3.1zm0-.3v-1c-.4.4-.8.8-1.3 1-.2 0-.2-.1-.1-.3.5-.2.9-.5 1.3-1h-1.3c-.2-.1-.2-.2 0-.3h1.5V2.7c.1-.2.2-.2.3 0v1.2h1.2c.1.1.1.2 0 .3h-1c.3.4.6.7.9 1 0 .2-.1.3-.2.2-.3-.3-.5-.6-.8-1v1c-.3.2-.4.2-.5.1zM31.6 3c0-.2.1-.2.2-.1.2.2.3.5.4.8-.1.2-.2.2-.3.1.1-.2-.1-.4-.3-.8zm2.2 3.3h-1.2c-.2.3-.4.5-.6.7.5.1.9.3 1.2.5.4-.3.6-.6.7-1 .1-.2 0-.2-.1-.2zm.2-3.5c.1-.1.2 0 .2.1-.1.3-.3.6-.5.9-.2.1-.2 0-.2-.1.2-.3.4-.6.5-.9zm1.3 0c0 .3-.1.5-.1.7h1.6c.1.1.1.2 0 .3h-.4c0 1.1-.1 2.1-.5 2.9.3.5.6 1 .9 1.3.1.2 0 .3-.2.2-.3-.4-.6-.8-.9-1.3-.4.5-.8.9-1.3 1.3-.2.1-.3 0-.2-.2.5-.4.9-.9 1.3-1.4-.3-.6-.5-1.2-.7-2l-.3.6c-.1.1-.2 0-.2-.1.4-.8.7-1.6.7-2.4.1 0 .2 0 .3.1zm.8 1.1h-1l-.1.4c.2.9.4 1.7.7 2.2.3-.7.4-1.6.4-2.6zM37.6 2.8h1.9c.1.1.1.2 0 .3h-.8c-.1.5-.3 1.1-.5 1.6h.7c.4 0 .5.2.5.5v2.4c0 .4-.1.6-.5.5h-.5c-.3 0-.5-.1-.5-.5V5.3c-.1.2-.2.3-.3.5-.2.1-.2 0-.2-.1.5-.7.9-1.6 1.2-2.6h-.9c-.2-.1-.2-.2-.1-.3zM38.8 5h-.4c-.2 0-.2.1-.2.2v2.3c0 .2.1.3.3.3h.4c.2 0 .3-.1.3-.3V5.3c-.1-.2-.1-.3-.4-.3zm3.4 1.3c.1.1.1.2 0 .3h-2.4c-.2-.1-.2-.2 0-.3h2.4zm-2.3-3.5h1.9c.5 0 .6.2.6.6l-.2 1.7h.2c.4 0 .6.2.6.6v1.7c0 .6-.2.9-.7.9-.2 0-.6 0-1.1-.2-.1-.2-.1-.3.1-.3 1 .4 1.5.3 1.4-.4V5.7c0-.2-.1-.3-.3-.3h-2c-.3.1-.5-.1-.4-.6l.1-1.3c.1-.2.2-.2.3 0l-.1 1.3c0 .3 0 .4.2.3h1.4l.2-1.7c.1-.2 0-.3-.3-.3h-1.9c-.1-.1-.1-.2 0-.3z"/><g><path d="M19.3 12.3V9.2h1.6c.2 0 .3.1.5.2s.3.3.4.5.1.5.1.7 0 .4-.1.6-.1.3-.2.4l-.3.3c-.1.1-.2.1-.4.2-.1 0-.3.1-.5.1l-1.1.1zm.4-.4h.7c.2 0 .4 0 .5-.1.1 0 .2-.1.3-.2s.2-.2.2-.4c.1-.2.1-.4.1-.6 0-.3-.1-.6-.2-.7s-.2-.3-.4-.3c-.1 0-.3-.1-.5-.1h-.6l-.1 2.4zM22.4 9.7v-.4h.4v.4h-.4zm0 2.6v-2.2h.4v2.2h-.4zM23.2 12.5l.4.1c0 .1.1.2.1.2.1.1.2.1.4.1s.3 0 .4-.1.2-.2.2-.3V12c-.2.2-.4.3-.6.3-.3 0-.5-.1-.7-.3s-.3-.5-.3-.8c0-.2 0-.4.1-.6s.2-.3.3-.4.3-.1.5-.1c.3 0 .5.1.7.3v-.3h.3V12c0 .3 0 .6-.1.7s-.2.3-.3.3-.3.1-.6.1-.5-.1-.6-.2c-.1 0-.2-.2-.2-.4zm.4-1.3c0 .3.1.5.2.6s.3.2.4.2c.2 0 .3-.1.4-.2s.2-.3.2-.6-.1-.5-.2-.6-.3-.2-.4-.2c-.2 0-.3.1-.4.2-.2.1-.2.3-.2.6zM25.7 9.7v-.4h.4v.4h-.4zm0 2.6v-2.2h.4v2.2h-.4zM27.5 12l.1.3h-.3c-.1 0-.2 0-.3-.1-.1 0-.1-.1-.2-.2V10.3h-.3V10h.3v-.6l.4-.2v.8h.4v.3h-.4v1.5s0 .1.1.1h.1c0 .1 0 .1.1.1zM29.3 12c-.1.1-.3.2-.4.3-.1 0-.3.1-.4.1-.2 0-.4-.1-.6-.2-.1-.1-.2-.3-.2-.5 0-.1 0-.2.1-.3 0-.1.1-.2.2-.2.1-.1.2-.1.3-.1s.2 0 .3-.1c.3 0 .5-.1.7-.1v-.1c0-.2 0-.3-.1-.3-.1-.1-.2-.1-.4-.1s-.3 0-.4.1-.1.2-.2.3l-.4-.1c0-.2.1-.3.2-.4s.2-.2.3-.2c.1-.1.3-.1.5-.1s.3 0 .5.1c.1 0 .2.1.3.2s.1.2.1.3v1.5c0 .1 0 .2.1.3h-.4c0-.2-.1-.3-.1-.4zm0-.8c-.1.1-.3.1-.6.1-.2 0-.3 0-.3.1-.1 0-.1.1-.1.1 0 .1-.1.1-.1.2s0 .2.1.3.2.1.3.1.3 0 .4-.1l.3-.3c0-.1.1-.2.1-.4v-.1h-.1zM30.2 12.3V9.2h.4v3.1h-.4zM34.7 11.2l.4.1c-.1.3-.2.6-.5.8-.2.2-.5.3-.8.3s-.6-.1-.8-.2-.4-.3-.5-.6-.2-.5-.2-.8.1-.6.2-.8.3-.4.5-.5.5-.2.7-.2c.3 0 .6.1.8.2.2.2.4.4.4.7l-.4.1c-.1-.2-.2-.4-.3-.5s-.3-.2-.5-.2-.4.1-.6.2-.3.3-.3.5c-.1.2-.1.4-.1.6 0 .3 0 .5.1.7s.2.3.4.4.3.1.5.1.4-.1.6-.2c.2-.2.3-.4.4-.7zM35.5 12.3V9.2h.4v1.1c.2-.2.4-.3.7-.3.2 0 .3 0 .4.1l.3.3c.1.1.1.3.1.5v1.4H37v-1.4c0-.2 0-.3-.1-.4s-.2-.1-.3-.1-.2 0-.3.1-.2.1-.2.2-.1.2-.1.4v1.2h-.5zM37.9 9.7v-.4h.4v.4h-.4zm0 2.6v-2.2h.4v2.2h-.4zM38.9 12.3v-2.2h.3v.3c.2-.2.4-.4.7-.4.1 0 .3 0 .4.1.1 0 .2.1.3.2s.1.2.1.3V12.4h-.4V11v-.3c0-.1-.1-.1-.2-.2s-.2-.1-.3-.1c-.2 0-.3.1-.4.2s-.2.3-.2.6v1.2l-.3-.1zM42.7 12c-.1.1-.3.2-.4.3-.1 0-.3.1-.4.1-.2 0-.4-.1-.6-.2-.1-.1-.2-.3-.2-.5 0-.1 0-.2.1-.3 0-.1.1-.2.2-.2.1-.1.2-.1.3-.1s.2 0 .3-.1c.3 0 .5-.1.7-.1v-.1c0-.2 0-.3-.1-.3-.1-.1-.2-.1-.4-.1s-.3 0-.4.1-.1.2-.2.3l-.4-.1c0-.2.1-.3.2-.4s.2-.2.3-.2c.1-.1.3-.1.5-.1s.3 0 .5.1c.1 0 .2.1.3.2s.1.2.1.3v1.5c0 .1 0 .2.1.3h-.4c-.1-.2-.1-.3-.1-.4zm0-.8c-.1.1-.3.1-.6.1-.2 0-.3 0-.3.1-.1 0-.1.1-.1.1 0 .1-.1.1-.1.2s0 .2.1.3.2.1.3.1.3 0 .4-.1l.3-.3c0-.1.1-.2.1-.4v-.1h-.1z"/></g></g></svg>