<svg xmlns="http://www.w3.org/2000/svg" width="53.1" height="38"><path d="M9.9 6.6H8.7s-2.8 8.7 17.8 8.8v-2C10 14 9.9 6.6 9.9 6.6z"/><path d="M7.9 6.9l-1.4-.3s-6 12.3 20 12.6v-2.3c-20.8.5-18.6-10-18.6-10z"/><path d="M5.2 6.6H3.9s-8.6 16 22.7 15.5v-2.3C-.7 20.6 5.2 6.6 5.2 6.6z"/><path d="M3.1 7H1.7S-9.7 26.3 26.5 25.9v-2.3C-5.2 24.1 3.1 7 3.1 7z"/><path fill="#384C46" d="M43.2 19.3h1.2s2.8-8.7-17.8-8.8v2c16.5-.5 16.6 6.8 16.6 6.8z"/><path fill="#384C46" d="M45.2 19.1l1.4.2s6-12.3-20-12.6V9c20.8-.5 18.6 10.1 18.6 10.1z"/><path fill="#384C46" d="M47.9 19.3h1.3s8.6-16-22.7-15.5v2.3c27.3-.7 21.4 13.2 21.4 13.2z"/><path fill="#384C46" d="M50 18.9h1.3S62.7-.4 26.5 0v2.3C58.3 1.9 50 18.9 50 18.9z"/><path d="M14.2 37.4c-.8 0-1.2.2-1.4.4h-.1c-2.4-.7-4.3-1.5-5.3-3.3H6v2.7l2.7-.7.1.1c-2.8 1-2.9 1-3.2 1.3h-.1-.1l-.6-.5c.5-.2.6-.3.6-.5v-2.4H4.1c-.3 0-.6 0-.8.1l-.3-.3h2.9v-3.1-1.1l.8.5h5.4l.5-.5.9.5c.1 0 .1.1.1.1H6.4v1h4.9l.5-.4.8.5s.1 0 .1.1 0 0-.1 0H6.4v1h4.9l.5-.4.8.5.1.1H6.4v1.1h6.5l.6-.5.8.5.1.1H7.7c.4.6 1 1.1 1.7 1.5 1.4-.5 2.3-1 2.8-1.3l.7.5v.1h-.2c-.2 0-.6.1-1.1.3-.5.2-1.2.4-2.1.6 1.2.6 2.7 1.1 4.6 1.1l.1.3zM26.4 33.9l.1.1s0 .1-.1.1h-3c-.3.8-.9 1.7-1.4 2.1 1.5.4 2.4.7 3 .9.5.2.6.4.6.6 0 .1-.1.3-.2.3s-.2-.1-.4-.2c-.5-.4-1.6-.9-3.3-1.4-1.2.8-3.5 1.4-5.9 1.6v-.1c2.5-.4 4.3-.9 5.4-1.6-.7-.2-1.7-.5-2.8-.7l.9-1.5h-2.5c-.3 0-.6 0-.8.1l-.3-.3h3.8c.4-.8.8-1.5 1-2l.8.4s.1 0 .1.1l-.1.1-.4.1-.8 1.4H25l.5-.5.9.4zm-.3-2.3l.1.1h-.1c-.5 0-.9.2-1.8.9l-.1-.1.8-.9h-7.4c0 .4-.2 1.1-1 1.1-.2 0-.5-.1-.5-.2s.1-.2.4-.3c.3-.1.8-.5.9-1.2h.2v.4h7.3l.5-.4.7.6zm-7.2 3.9c.9.2 1.8.4 2.5.5.7-.5 1.1-1.4 1.2-2h-2.9l-.8 1.5zm1.2-5.4c1 .2 1.7.5 1.7.8 0 .3-.3.5-.5.5s-.2 0-.3-.2c-.2-.4-.4-.7-.9-1.1zM39 37.1c-.5.1-.8.2-1 .4-.1.1-.1.1-.3.1-2.5 0-4.6 0-5.6-.1-1.2-.1-1.9-.7-2.2-1.2-.1-.1-.2-.2-.3-.2-.2 0-.9.6-1.2 1.2 0 .1-.1.1-.1.1h-.1l-.6-.2 1.9-1.3v-2.3h-1c-.2 0-.5 0-.6.1l-.3-.3h1.8l.4-.4.8.4c.1 0 .1.1.1.1l-.1.1-.4.2v2.1c0 .9.9 1.4 2.3 1.4H34c1.4 0 3.3-.1 5.1-.2H39zm-10.3-6.7c.8.3 1.7.8 1.7 1.1 0 .2-.2.4-.4.4s-.2-.1-.3-.3c0-.3-.5-.8-1-1.2zm9.2.4c.1 0 .1 0 0 0 .1.1 0 .1-.1.1-.4 0-.9.2-2.6 1v.1c0 .2-.2.3-.4.3-.1 0-.2 0-.3-.2-.2-.3-.5-.6-1.1-.8l.1-.1c.9.2 1.3.4 1.6.6l1.5-.9h-3.9c-.3 0-.5 0-.7.1l-.4-.3h5.1l.5-.3.7.4zm.2 1.5c.1 0 .1 0 0 0 .1.1 0 .1 0 .1l-.3.2v3.3c0 .4 0 .5-.8.8h-.1-.1c-.1-.3-.3-.4-1.1-.5v-.1c.5.1.8.1 1 .1.3 0 .4-.1.4-.3V35H35V36.2c0 .1-.1.1-.3.2-.1 0-.2.1-.2.1-.1 0-.1-.1-.1-.2v-.1-1.1h-2.1v1.3c0 .1 0 .1-.3.2h-.2c-.1 0-.1 0-.1-.2V33v-1.1l.7.4H37l.3-.3.8.3zm-3.5 1.3v-1.1h-2.1v1.1h2.1zm0 1.2v-1h-2.1v1h2.1zm2.7-1.2v-1.1h-2.1v1.1h2.1zm0 1.2v-1h-2.1v1h2.1zM43.5 30.5c.1 0 .1.1.1.1l-.1.1c-.3.1-.3.1-.4.3-.3.5-.6 1-1 1.5l.4.1-.2.2v5c0 .1 0 .1-.3.3-.1.1-.2.1-.3.1s-.1-.1-.1-.2v-.1c0-.5.1-1 .1-1.5V33c-.5.6-1.1 1.2-1.7 1.7l-.1-.1c1.2-1.3 2.3-2.8 3-4.4l.6.3zm7.7 1.1l.1.1s-.1.1-.2.1h-6.5c-.3 0-.6 0-.8.1l-.3-.3H50l.5-.5.7.5zm-.8 2.3l.1.1s-.1.1-.2.1h-5.5c-.3 0-.6 0-.8.1l-.3-.3H49.3l.4-.4.7.4zm-.3-1.1l.1.1s-.1.1-.2.1h-4.9c-.3 0-.6 0-.8.1l-.3-.3h5l.4-.4.7.4zm-.1 2.3s.1.1 0 0c.1.1 0 .1-.3.3v2.1c0 .1 0 .1-.3.2-.1 0-.2.1-.2.1-.1 0-.1 0-.1-.1V37h-4v.5c0 .1-.5.3-.6.3-.1 0-.1 0-.1-.1v-.1-2.1-.9l.8.4h3.6l.4-.4.8.5zm-.9 1.8v-1.6h-4v1.6h4zm-2.6-6.8c1 .5 1.3.7 1.3.9 0 .3-.3.5-.5.5-.1 0-.2-.1-.2-.3 0-.3-.3-.8-.7-1l.1-.1z"/></svg>