<svg xmlns="http://www.w3.org/2000/svg" width="70" height="30.5"><path d="M7.2 30.3H5.5l-.6-1.9H2.2l-.5 1.9H0l2.7-8.2h1.8l2.7 8.2zm-2.6-3.2l-.8-2.8c-.1-.2-.1-.4-.1-.7 0 .2-.1.5-.1.7l-.8 2.9h1.8zM7.9 30.3v-8.6h1.5v8.6H7.9zM14.8 30.1c-.4.2-.9.4-1.6.4-.8 0-1.4-.3-1.9-.8s-.7-1.2-.7-2.1c0-1 .3-1.8.8-2.3.5-.6 1.2-.9 2.1-.9.6 0 1 .1 1.3.3v1.5c-.4-.3-.7-.4-1.1-.4-.5 0-.8.2-1.1.5-.3.3-.4.8-.4 1.3s.1 1 .4 1.3c.3.3.6.5 1.1.5.4 0 .8-.1 1.2-.4l-.1 1.1zM16 24.8c.2-.1.6-.3 1-.4.4-.1.7-.1 1-.1 1.5 0 2.2.8 2.2 2.5v3.5h-1.5v-.9c-.4.7-.9 1-1.6 1-.5 0-.9-.2-1.2-.5-.3-.3-.4-.7-.4-1.3 0-1.1.6-1.8 1.8-2l1.4-.2c0-.7-.3-1-1-1-.6 0-1.2.2-1.8.6l.1-1.2zm1.7 2.9c-.6.1-.8.4-.8.8 0 .2.1.4.2.5.1.1.3.2.5.2.3 0 .6-.1.8-.4.2-.2.3-.6.3-.9v-.4l-1 .2zM24.6 30.3c-.2.1-.6.2-1.1.2-1.1 0-1.7-.7-1.7-2v-2.8H21v-1.3h.9v-1.3l1.5-.5v1.8h1.2v1.3h-1.2v2.5c0 .6.2.9.7.9.2 0 .3-.1.5-.2v1.4zM30.1 27.9h-3.5c.1.9.5 1.4 1.5 1.4.6 0 1.1-.2 1.5-.5V30c-.5.3-1.1.4-1.9.4-.8 0-1.5-.3-2-.8s-.7-1.3-.7-2.2c0-.9.2-1.7.7-2.3s1.1-.9 1.9-.9c.7 0 1.3.3 1.7.8.4.5.6 1.2.6 2.1l.2.8zm-1.4-1.1c0-.9-.3-1.3-1-1.3-.3 0-.5.1-.7.4-.2.2-.3.6-.4 1l2.1-.1zM31.1 30.3v-8.6h1.5v8.6h-1.5zM36.9 27.8h-2.8v-1.2h2.8v1.2zM42.7 30.3h-4.3v-8.2H40v6.8h2.8v1.4zM48.5 30.3H47v-.9c-.4.7-.9 1-1.6 1-1.2 0-1.8-.8-1.8-2.5v-3.5H45v3.4c0 .9.3 1.3.9 1.3.3 0 .6-.1.7-.4.2-.2.3-.6.3-1v-3.3h1.5l.1 5.9zM53.8 30.1c-.4.2-.9.4-1.6.4-.8 0-1.5-.3-1.9-.8-.5-.5-.7-1.2-.7-2.1 0-1 .3-1.8.8-2.3.5-.6 1.2-.9 2.1-.9.6 0 1 .1 1.3.3v1.5c-.4-.3-.7-.4-1.2-.4s-.8.2-1.1.5-.4.8-.4 1.3.1 1 .4 1.3c.3.3.6.5 1.1.5.4 0 .8-.1 1.2-.4v1.1zM59.6 27.9h-3.5c.1.9.5 1.4 1.5 1.4.6 0 1.1-.2 1.5-.5V30c-.5.3-1.1.4-1.9.4-.8 0-1.5-.3-2-.8s-.7-1.3-.7-2.2c0-.9.2-1.7.7-2.3.5-.6 1.1-.9 1.9-.9.7 0 1.3.3 1.7.8.4.5.6 1.2.6 2.1l.2.8zm-1.4-1.1c0-.9-.3-1.3-1-1.3-.3 0-.5.1-.7.4-.2.2-.3.6-.4 1l2.1-.1zM65.6 30.3h-1.5V27c0-.9-.3-1.4-.9-1.4-.3 0-.5.1-.7.4-.2.3-.3.6-.3 1v3.3h-1.5v-5.8h1.5v.9c.4-.7.9-1.1 1.7-1.1 1.2 0 1.7.8 1.7 2.4v3.6zM70 30.3c-.2.1-.6.2-1 .2-1.1 0-1.7-.7-1.7-2v-2.8h-.9v-1.3h.9v-1.3l1.5-.5v1.8H70v1.3h-1.2v2.5c0 .6.2.9.7.9.2 0 .3-.1.5-.2v1.4z"/><g><circle fill="#5A4099" cx="36" cy="8.8" r="8.8"/><g fill="#FFF"><path d="M40.9 10c0 .1-.1.3-.2.4.1 0 .2.1.3.1.5-1.4.6-2.7.6-3 0-.9-.4-1.4-1-1.6 1.3.6 1 2.1.3 4.1zM38.7 5.8h-.2c.6 0 1.1 0 1.6.1-.4-.1-.8-.2-1.4-.1zM38.5 5.8c-.2 0-1 0 0 0z"/><path d="M40.1 11.3c-1.9 2.1-3.8 2.9-3.8 1.9.1-5.7 3.3-10.1 1-10.9-1.7-.6-6.9 5.4-7.7 8.4-.2.7 1.1 1.2 1.3.9 1-1.3 3.1-3.5 4.6-4.5 1-.7.9-.8.2-.3-.2.1-1.9 1.2-2.4.9s3-4.6 3.6-4.2c.9.7-5 12.5-.7 11.7 2.4-.5 3.4-1.8 4.5-3.4-.3-.1-.5-.4-.6-.5z"/></g></g></svg>