<svg xmlns="http://www.w3.org/2000/svg" width="37.4" height="31.5">
    <style>
        .st0 {
            fill: #282b2f
        }

        .st1 {
            fill: #d1d1d1
        }

        .st2 {
            fill: #80847c
        }

    </style>
    <g transform="matrix(0,1,-1,0,34.4,-2.9)" id="XMLID_3_">
        <g id="XMLID_7_">
            <g id="XMLID_11_">
                <path id="XMLID_15_" class="st0"
                    d="M 2.9 13.7 h 31.7 c 1.2 0 2.3 1.1 2.3 2.4 v 12.5 c 0 1.3 -1 2.4 -2.3 2.4 H 2.8 C 1.6 31 0.5 29.9 0.5 28.6 V 16.1 c 0 -1.3 1.2 -2.4 2.4 -2.4 z" />
                <path id="XMLID_12_" class="st1"
                    d="M 34.6 31.5 H 2.8 c -1.5 0 -2.8 -1.4 -2.8 -2.9 V 16.1 c 0 -1.5 1.4 -2.9 2.9 -2.9 h 31.7 c 1.5 0 2.8 1.4 2.8 2.9 v 12.5 c 0 1.6 -1.3 2.9 -2.8 2.9 z M 2.9 14.2 c -1 0 -1.9 0.9 -1.9 1.9 v 12.5 c 0 1 0.9 1.9 1.8 1.9 h 31.8 c 1 0 1.8 -0.9 1.8 -1.9 V 16.1 c 0 -1 -0.9 -1.9 -1.8 -1.9 H 2.9 z" />
            </g>
            <path id="XMLID_8_" class="st0"
                d="M 37.2 16.1 v 12.6 c 0 1.5 -1.1 2.7 -2.5 2.7 H 2.9 c -1.4 0 -2.5 -1.2 -2.5 -2.7 V 16.1 c 0 -1.5 1.1 -2.7 2.5 -2.7 h 31.7 c 1.5 0.1 2.6 1.3 2.6 2.7 z M 0.9 28.7 c 0 1.2 0.9 2.2 2 2.2 h 31.7 c 1.1 0 2 -1 2 -2.2 V 16.2 c 0 -1.2 -0.9 -2.2 -2 -2.2 H 2.8 c -1.1 0 -2 1 -2 2.2 c 0.1 -0.1 0.1 12.5 0.1 12.5 z" />
        </g>
        <path id="XMLID_6_" class="st1"
            d="M 2.4 14.8 h 32.5 c 0.6 0 1.1 0.5 1.1 1.2 v 5.2 c 0 0.6 -0.5 1.2 -1.1 1.2 H 2.4 c -0.6 0 -1.1 -0.5 -1.1 -1.2 V 16 c 0.1 -0.6 0.6 -1.2 1.1 -1.2 z" />
        <path id="XMLID_5_" class="st2"
            d="M 7.3 26.6 h 5.5 c 0.1 0 0.2 0.2 0.2 0.5 v 2.2 c 0 0.3 -0.1 0.5 -0.2 0.5 H 7.3 c -0.1 0 -0.2 -0.2 -0.2 -0.5 v -2.2 c 0 -0.3 0.1 -0.5 0.2 -0.5 z" />
        <path id="XMLID_4_" class="st2"
            d="M 24.6 26.6 h 5.5 c 0.1 0 0.2 0.2 0.2 0.5 v 2.2 c 0 0.3 -0.1 0.5 -0.2 0.5 h -5.5 c -0.1 0 -0.2 -0.2 -0.2 -0.5 v -2.2 c 0 -0.3 0 -0.5 0.2 -0.5 z" />
    </g>
    <g transform="matrix(0,1,-1,0,34.4,-2.9)" id="XMLID_1_">
        <path id="XMLID_2_" class="st1"
            d="M 10.3 4.9 c 0 -0.8 0.6 -1.6 1.3 -1.6 c 0.6 0 1 0.5 1.2 0.9 v 0.2 h 2.5 v -0.2 c 0.2 -0.3 0.3 -0.7 0.4 -0.9 c 0.4 -1.3 0.8 -2 3.2 -2 h 0.2 v -0.2 c 0.2 -0.7 0.6 -1.1 1.2 -1.1 c 0.8 0 1.3 0.7 1.3 1.6 c 0 0.8 -0.6 1.6 -1.3 1.6 c -0.6 0 -1 -0.5 -1.2 -1.1 v -0.2 h -0.2 c -2.2 0 -2.5 0.8 -2.7 1.8 c 0 0.2 -0.2 0.3 -0.2 0.7 l -0.2 0.3 H 25 V 3.4 L 27.3 5 L 25 6.6 V 5.1 h -7.4 l 0.2 0.3 c 0 0.2 0.2 0.2 0.2 0.3 c 0.3 0.8 0.9 2 2.9 2 h 0.2 V 6.6 h 2 v 2.5 h -2 v -0.9 h -0.2 c -2.3 0 -2.9 -1.3 -3.3 -2.4 c -0.2 -0.5 -0.3 -0.8 -0.8 -0.9 h -3.9 v 0.2 c -0.2 0.6 -0.6 1.1 -1.2 1.1 c -0.8 0.2 -1.4 -0.4 -1.4 -1.3 z" />
    </g>
</svg>
