<svg xmlns="http://www.w3.org/2000/svg" width="37.4" height="31.5">
    <style>
        .st0 {
            fill: #282b2f
        }

        .st1 {
            fill: #d1d1d1
        }

        .st2 {
            fill: #80847c
        }

    </style>
    <g>
        <g>
            <g>
                <path class="st0"
                    d="M2.9 13.7h31.7c1.2 0 2.3 1.1 2.3 2.4v12.5c0 1.3-1 2.4-2.3 2.4H2.8C1.6 31 .5 29.9.5 28.6V16.1c0-1.3 1.2-2.4 2.4-2.4z" />
                <path class="st1"
                    d="M34.6 31.5H2.8c-1.5 0-2.8-1.4-2.8-2.9V16.1c0-1.5 1.4-2.9 2.9-2.9h31.7c1.5 0 2.8 1.4 2.8 2.9v12.5c0 1.6-1.3 2.9-2.8 2.9zM2.9 14.2c-1 0-1.9.9-1.9 1.9v12.5c0 1 .9 1.9 1.8 1.9h31.8c1 0 1.8-.9 1.8-1.9V16.1c0-1-.9-1.9-1.8-1.9H2.9z" />
            </g>
            <path class="st0"
                d="M37.2 16.1v12.6c0 1.5-1.1 2.7-2.5 2.7H2.9c-1.4 0-2.5-1.2-2.5-2.7V16.1c0-1.5 1.1-2.7 2.5-2.7h31.7c1.5.1 2.6 1.3 2.6 2.7zM.9 28.7c0 1.2.9 2.2 2 2.2h31.7c1.1 0 2-1 2-2.2V16.2c0-1.2-.9-2.2-2-2.2H2.8c-1.1 0-2 1-2 2.2.1-.1.1 12.5.1 12.5z" />
        </g>
        <path class="st1"
            d="M2.4 14.8h32.5c.6 0 1.1.5 1.1 1.2v5.2c0 .6-.5 1.2-1.1 1.2H2.4c-.6 0-1.1-.5-1.1-1.2V16c.1-.6.6-1.2 1.1-1.2z" />
        <path class="st2"
            d="M7.3 26.6h5.5c.1 0 .2.2.2.5v2.2c0 .3-.1.5-.2.5H7.3c-.1 0-.2-.2-.2-.5v-2.2c0-.3.1-.5.2-.5z" />
        <path class="st2"
            d="M24.6 26.6h5.5c.1 0 .2.2.2.5v2.2c0 .3-.1.5-.2.5h-5.5c-.1 0-.2-.2-.2-.5v-2.2c0-.3 0-.5.2-.5z" />
    </g>
    <g>
        <path class="st1"
            d="M10.3 4.9c0-.8.6-1.6 1.3-1.6.6 0 1 .5 1.2.9v.2h2.5v-.2c.2-.3.3-.7.4-.9.4-1.3.8-2 3.2-2h.2v-.2c.2-.7.6-1.1 1.2-1.1.8 0 1.3.7 1.3 1.6 0 .8-.6 1.6-1.3 1.6-.6 0-1-.5-1.2-1.1v-.2h-.2c-2.2 0-2.5.8-2.7 1.8 0 .2-.2.3-.2.7l-.2.3H25V3.4L27.3 5 25 6.6V5.1h-7.4l.2.3c0 .2.2.2.2.3.3.8.9 2 2.9 2h.2V6.6h2v2.5h-2v-.9h-.2c-2.3 0-2.9-1.3-3.3-2.4-.2-.5-.3-.8-.8-.9h-3.9v.2c-.2.6-.6 1.1-1.2 1.1-.8.2-1.4-.4-1.4-1.3z" />
    </g>
</svg>
