<svg xmlns="http://www.w3.org/2000/svg" width="44.9" height="75.2">
    <style>
        .st0 {
            fill: #fff
        }

        .st1 {
            fill: #c6c6c6
        }

        .st2 {
            fill: #939292
        }

        .st3 {
            fill: #393944
        }

        .st4 {
            fill: #45454c
        }

        .st5 {
            fill: #c4c46c
        }

        .st6 {
            fill: #eaeaea
        }

        .st7 {
            fill: #9ecc6b
        }

        .st8 {
            fill: #ffed87
        }

    </style>
    <g id="XMLID_1_">
        <g id="XMLID_45_">
            <g id="XMLID_83_">
                <path id="XMLID_84_" class="st0" d="M.4 37.3h43.9v37.4H.4z" />
            </g>
            <g id="XMLID_49_">
                <path id="XMLID_82_" class="st0"
                    d="M40.3 46.6H4.5v25.7h11.1V75h13.6v-2.7h11.2l-.1-4.2z" />
                <path id="XMLID_81_" class="st1"
                    d="M40.3 44.2H4.5V72.3l.9-1.4H16l-.4 1.5V75l.3-1.5h12.9l.4 1.5v-2.7l-.3-1.4h10.6l.8 1.4v-4.2z" />
                <path id="XMLID_80_" class="st2" d="M40.3 44.2H4.5l.9 1h34.1z" />
                <path id="XMLID_79_" d="M39.5 45.1H5.4v25.8H16v2.6h12.9v-2.6h10.6z" />
                <path id="XMLID_78_" class="st3" d="M37.5 45.1h-30v25.8h8.4v3.2h13v-3.2h8.6z" />
                <path id="XMLID_77_" class="st4" d="M13.6 59.6h17.6v10.1H13.6z" />
                <path id="XMLID_76_" d="M13.6 59.6h17.6v9.7H13.6z" />
                <path id="XMLID_75_" d="M8.8 45.2h27.4v5.5H8.8z" />
                <g id="XMLID_50_">
                    <path id="XMLID_74_" class="st5" d="M20.5 45.5h1v4h-1z" />
                    <path id="XMLID_73_" class="st6" d="M21.4 45.5h.1v4h-.1z" />
                    <path id="XMLID_72_" class="st6" d="M20.5 45.5h.1v4h-.1z" />
                    <path id="XMLID_71_" class="st5" d="M17.6 45.5h1v4h-1z" />
                    <path id="XMLID_70_" class="st6" d="M18.6 45.5h.1v4h-.1z" />
                    <path id="XMLID_69_" class="st6" d="M17.6 45.5h.1v4h-.1z" />
                    <path id="XMLID_68_" class="st5" d="M14.8 45.5h1v4h-1z" />
                    <path id="XMLID_67_" class="st6" d="M15.8 45.5h.1v4h-.1z" />
                    <path id="XMLID_66_" class="st6" d="M14.8 45.5h.1v4h-.1z" />
                    <path id="XMLID_65_" class="st5" d="M12 45.5h1v4h-1z" />
                    <path id="XMLID_64_" class="st6" d="M13 45.5h.1v4H13z" />
                    <path id="XMLID_63_" class="st6" d="M12 45.5h.1v4H12z" />
                    <path id="XMLID_62_" class="st5" d="M31.8 45.5h1v4h-1z" />
                    <path id="XMLID_61_" class="st6" d="M32.7 45.5h.1v4h-.1z" />
                    <path id="XMLID_60_" class="st6" d="M31.8 45.5h.1v4h-.1z" />
                    <path id="XMLID_59_" class="st5" d="M28.9 45.5h1v4h-1z" />
                    <path id="XMLID_58_" class="st6" d="M29.9 45.5h.1v4h-.1z" />
                    <path id="XMLID_57_" class="st6" d="M28.9 45.5h.1v4h-.1z" />
                    <path id="XMLID_56_" class="st5" d="M26.1 45.5h1v4h-1z" />
                    <path id="XMLID_55_" class="st6" d="M27.1 45.5h.1v4h-.1z" />
                    <path id="XMLID_54_" class="st6" d="M26.1 45.5h.1v4h-.1z" />
                    <path id="XMLID_53_" class="st5" d="M23.3 45.5h1v4h-1z" />
                    <path id="XMLID_52_" class="st6" d="M24.3 45.5h.1v4h-.1z" />
                    <path id="XMLID_51_" class="st6" d="M23.3 45.5h.1v4h-.1z" />
                </g>
            </g>
            <path id="XMLID_48_" d="M10.4 74.2h22.3v1H10.4z" />
            <path id="XMLID_47_" class="st7" d="M5.6 66.4h8.3v4.2H5.6z" />
            <path id="XMLID_46_" class="st8" d="M30.9 66.4h8.3v4.2h-8.3z" />
        </g>
        <g id="XMLID_2_">
            <g id="XMLID_40_">
                <path id="XMLID_44_" class="st0" d="M.4.5h43.9v36.8H.4z" />
                <path id="XMLID_41_" d="M44.9 75.2H0V0h44.9v75.2zm-44-1h42.9V1H.9v73.2z" />
            </g>
            <g id="XMLID_6_">
                <path id="XMLID_39_" class="st0" d="M40.3 28.5H4.5V2.8h11.1V.1h13.6v2.7h11.2L40.3 7z" />
                <path id="XMLID_38_" class="st1"
                    d="M40.3 30.9H4.5V2.8l.9 1.4H16l-.4-1.5V.1l.3 1.5h12.9l.4-1.5v2.7l-.3 1.4h10.6l.8-1.4V7z" />
                <path id="XMLID_37_" class="st2" d="M40.3 30.9H4.5l.9-1h34.1z" />
                <path id="XMLID_36_" d="M39.5 30H5.4V4.2H16V1.6h12.9v2.6h10.6z" />
                <path id="XMLID_35_" class="st3" d="M37.5 30h-30V4.2h8.4V1h13v3.2h8.6z" />
                <path id="XMLID_34_" class="st4" d="M13.6 5.4h17.6v10.1H13.6z" />
                <path id="XMLID_33_" d="M13.6 5.8h17.6v9.7H13.6z" />
                <path id="XMLID_32_" d="M8.8 24.4h27.4v5.5H8.8z" />
                <g id="XMLID_7_">
                    <path id="XMLID_31_" class="st5" d="M20.5 25.6h1v4h-1z" />
                    <path id="XMLID_30_" class="st6" d="M21.5 25.6h.1v4h-.1z" />
                    <path id="XMLID_29_" class="st6" d="M20.5 25.6h.1v4h-.1z" />
                    <path id="XMLID_28_" class="st5" d="M17.7 25.6h1v4h-1z" />
                    <path id="XMLID_27_" class="st6" d="M18.6 25.6h.1v4h-.1z" />
                    <path id="XMLID_26_" class="st6" d="M17.7 25.6h.1v4h-.1z" />
                    <path id="XMLID_25_" class="st5" d="M14.9 25.6h1v4h-1z" />
                    <path id="XMLID_24_" class="st6" d="M15.8 25.6h.1v4h-.1z" />
                    <path id="XMLID_23_" class="st6" d="M14.9 25.6h.1v4h-.1z" />
                    <path id="XMLID_22_" class="st5" d="M12 25.6h1v4h-1z" />
                    <path id="XMLID_21_" class="st6" d="M13 25.6h.1v4H13z" />
                    <path id="XMLID_20_" class="st6" d="M12 25.6h.1v4H12z" />
                    <path id="XMLID_19_" class="st5" d="M31.8 25.6h1v4h-1z" />
                    <path id="XMLID_18_" class="st6" d="M32.8 25.6h.1v4h-.1z" />
                    <path id="XMLID_17_" class="st6" d="M31.8 25.6h.1v4h-.1z" />
                    <path id="XMLID_16_" class="st5" d="M29 25.6h1v4h-1z" />
                    <path id="XMLID_15_" class="st6" d="M30 25.6h.1v4H30z" />
                    <path id="XMLID_14_" class="st6" d="M29 25.6h.1v4H29z" />
                    <path id="XMLID_13_" class="st5" d="M26.2 25.6h1v4h-1z" />
                    <path id="XMLID_12_" class="st6" d="M27.1 25.6h.1v4h-.1z" />
                    <path id="XMLID_11_" class="st6" d="M26.2 25.6h.1v4h-.1z" />
                    <path id="XMLID_10_" class="st5" d="M23.3 25.6h1v4h-1z" />
                    <path id="XMLID_9_" class="st6" d="M24.3 25.6h.1v4h-.1z" />
                    <path id="XMLID_8_" class="st6" d="M23.3 25.6h.1v4h-.1z" />
                </g>
            </g>
            <path id="XMLID_5_" d="M12.1 0h22.3v1H12.1z" />
            <path id="XMLID_4_" class="st7" d="M30.9 4.5h8.3v4.2h-8.3z" />
            <path id="XMLID_3_" class="st8" d="M5.6 4.5h8.3v4.2H5.6z" />
        </g>
    </g>
</svg>
